# Blender 5.2.2 LTS
# www.blender.org
o spike_cube_alt
v 0.070000 0.000000 0.070000
v 0.070000 0.000000 -0.070000
v 0.070000 0.140000 -0.070000
v 0.070000 0.140000 0.070000
v -0.070000 0.000000 -0.070000
v -0.070000 0.000000 0.070000
v -0.070000 0.140000 0.070000
v -0.070000 0.140000 -0.070000
v 0.014000 0.140000 0.014000
v 0.014000 0.140000 -0.014000
v 0.014000 0.560000 -0.014000
v 0.014000 0.560000 0.014000
v -0.014000 0.140000 -0.014000
v -0.014000 0.140000 0.014000
v -0.014000 0.560000 0.014000
v -0.014000 0.560000 -0.014000
vn 1.0000 -0.0000 -0.0000
vn -1.0000 -0.0000 -0.0000
vn -0.0000 -0.0000 -1.0000
vn -0.0000 -0.0000 1.0000
vn -0.0000 1.0000 -0.0000
vn -0.0000 -1.0000 -0.0000
vt 0.000000 0.750000
vt 0.250000 0.750000
vt 0.250000 1.000000
vt 0.000000 1.000000
vt 0.500000 0.750000
vt 0.500000 1.000000
vt 0.750000 0.750000
vt 0.750000 1.000000
vt 1.000000 0.750000
vt 1.000000 1.000000
vt 0.000000 0.500000
vt 0.250000 0.500000
vt 0.500000 0.500000
vt 0.625000 0.187500
vt 0.687500 0.187500
vt 0.687500 0.750000
vt 0.625000 0.750000
vt 0.750000 0.187500
vt 0.562500 0.187500
vt 0.562500 0.750000
vt 0.500000 0.187500
vt 0.750000 0.687500
vt 0.812500 0.687500
vt 0.812500 0.750000
s 0
f 1/1/1 2/2/1 3/3/1 4/4/1
f 5/2/2 6/5/2 7/6/2 8/3/2
f 2/5/3 5/7/3 8/8/3 3/6/3
f 6/7/4 1/9/4 4/10/4 7/8/4
f 7/11/5 4/12/5 3/2/5 8/1/5
f 5/5/6 2/2/6 1/12/6 6/13/6
f 9/14/1 10/15/1 11/16/1 12/17/1
f 13/15/2 14/18/2 15/7/2 16/16/2
f 10/19/3 13/14/3 16/17/3 11/20/3
f 14/21/4 9/19/4 12/20/4 15/5/4
f 15/22/5 12/23/5 11/24/5
f 15/22/5 11/24/5 16/7/5
