# Blender 5.2.2 LTS
# www.blender.org
o byakuya_sealed_drawn
v 0.009680 0.000000 0.000000
v 0.008943 0.000000 -0.005051
v 0.006845 0.000000 -0.009334
v 0.003704 0.000000 -0.012195
v 0.000000 0.000000 -0.013200
v -0.003704 0.000000 -0.012195
v -0.006845 0.000000 -0.009334
v -0.008943 0.000000 -0.005051
v -0.009680 0.000000 -0.000000
v -0.008943 0.000000 0.005051
v -0.006845 0.000000 0.009334
v -0.003704 0.000000 0.012195
v -0.000000 0.000000 0.013200
v 0.003704 0.000000 0.012195
v 0.006845 0.000000 0.009334
v 0.008943 0.000000 0.005051
v 0.011000 0.001800 0.000000
v 0.010163 0.001800 -0.005740
v 0.007778 0.001800 -0.010607
v 0.004210 0.001800 -0.013858
v 0.000000 0.001800 -0.015000
v -0.004210 0.001800 -0.013858
v -0.007778 0.001800 -0.010607
v -0.010163 0.001800 -0.005740
v -0.011000 0.001800 -0.000000
v -0.010163 0.001800 0.005740
v -0.007778 0.001800 0.010607
v -0.004210 0.001800 0.013858
v -0.000000 0.001800 0.015000
v 0.004210 0.001800 0.013858
v 0.007778 0.001800 0.010607
v 0.010163 0.001800 0.005740
v 0.011000 0.014000 0.000000
v 0.010163 0.014000 -0.005740
v 0.007778 0.014000 -0.010607
v 0.004210 0.014000 -0.013858
v 0.000000 0.014000 -0.015000
v -0.004210 0.014000 -0.013858
v -0.007778 0.014000 -0.010607
v -0.010163 0.014000 -0.005740
v -0.011000 0.014000 -0.000000
v -0.010163 0.014000 0.005740
v -0.007778 0.014000 0.010607
v -0.004210 0.014000 0.013858
v -0.000000 0.014000 0.015000
v 0.004210 0.014000 0.013858
v 0.007778 0.014000 0.010607
v 0.010163 0.014000 0.005740
v 0.012000 0.014000 0.000000
v 0.010392 0.014000 -0.007500
v 0.006000 0.014000 -0.012990
v 0.000000 0.014000 -0.015000
v -0.006000 0.014000 -0.012990
v -0.010392 0.014000 -0.007500
v -0.012000 0.014000 -0.000000
v -0.010392 0.014000 0.007500
v -0.006000 0.014000 0.012990
v -0.000000 0.014000 0.015000
v 0.006000 0.014000 0.012990
v 0.010392 0.014000 0.007500
v 0.013500 0.023652 0.000000
v 0.011691 0.023652 -0.008250
v 0.006750 0.023652 -0.014289
v 0.000000 0.023652 -0.016500
v -0.006750 0.023652 -0.014289
v -0.011691 0.023652 -0.008250
v -0.013500 0.023652 -0.000000
v -0.011691 0.023652 0.008250
v -0.006750 0.023652 0.014289
v -0.000000 0.023652 0.016500
v 0.006750 0.023652 0.014289
v 0.011691 0.023652 0.008250
v 0.012000 0.033304 0.000000
v 0.010392 0.033304 -0.007500
v 0.006000 0.033304 -0.012990
v 0.000000 0.033304 -0.015000
v -0.006000 0.033304 -0.012990
v -0.010392 0.033304 -0.007500
v -0.012000 0.033304 -0.000000
v -0.010392 0.033304 0.007500
v -0.006000 0.033304 0.012990
v -0.000000 0.033304 0.015000
v 0.006000 0.033304 0.012990
v 0.010392 0.033304 0.007500
v 0.013500 0.042957 0.000000
v 0.011691 0.042957 -0.008250
v 0.006750 0.042957 -0.014289
v 0.000000 0.042957 -0.016500
v -0.006750 0.042957 -0.014289
v -0.011691 0.042957 -0.008250
v -0.013500 0.042957 -0.000000
v -0.011691 0.042957 0.008250
v -0.006750 0.042957 0.014289
v -0.000000 0.042957 0.016500
v 0.006750 0.042957 0.014289
v 0.011691 0.042957 0.008250
v 0.012000 0.052609 0.000000
v 0.010392 0.052609 -0.007500
v 0.006000 0.052609 -0.012990
v 0.000000 0.052609 -0.015000
v -0.006000 0.052609 -0.012990
v -0.010392 0.052609 -0.007500
v -0.012000 0.052609 -0.000000
v -0.010392 0.052609 0.007500
v -0.006000 0.052609 0.012990
v -0.000000 0.052609 0.015000
v 0.006000 0.052609 0.012990
v 0.010392 0.052609 0.007500
v 0.013500 0.062261 0.000000
v 0.011691 0.062261 -0.008250
v 0.006750 0.062261 -0.014289
v 0.000000 0.062261 -0.016500
v -0.006750 0.062261 -0.014289
v -0.011691 0.062261 -0.008250
v -0.013500 0.062261 -0.000000
v -0.011691 0.062261 0.008250
v -0.006750 0.062261 0.014289
v -0.000000 0.062261 0.016500
v 0.006750 0.062261 0.014289
v 0.011691 0.062261 0.008250
v 0.012000 0.071913 0.000000
v 0.010392 0.071913 -0.007500
v 0.006000 0.071913 -0.012990
v 0.000000 0.071913 -0.015000
v -0.006000 0.071913 -0.012990
v -0.010392 0.071913 -0.007500
v -0.012000 0.071913 -0.000000
v -0.010392 0.071913 0.007500
v -0.006000 0.071913 0.012990
v -0.000000 0.071913 0.015000
v 0.006000 0.071913 0.012990
v 0.010392 0.071913 0.007500
v 0.013500 0.081565 0.000000
v 0.011691 0.081565 -0.008250
v 0.006750 0.081565 -0.014289
v 0.000000 0.081565 -0.016500
v -0.006750 0.081565 -0.014289
v -0.011691 0.081565 -0.008250
v -0.013500 0.081565 -0.000000
v -0.011691 0.081565 0.008250
v -0.006750 0.081565 0.014289
v -0.000000 0.081565 0.016500
v 0.006750 0.081565 0.014289
v 0.011691 0.081565 0.008250
v 0.012204 0.091217 0.000000
v 0.010569 0.091217 -0.007602
v 0.006102 0.091217 -0.013167
v 0.000000 0.091217 -0.015204
v -0.006102 0.091217 -0.013167
v -0.010569 0.091217 -0.007602
v -0.012204 0.091217 -0.000000
v -0.010569 0.091217 0.007602
v -0.006102 0.091217 0.013167
v -0.000000 0.091217 0.015204
v 0.006102 0.091217 0.013167
v 0.010569 0.091217 0.007602
v 0.014279 0.100870 0.000000
v 0.012366 0.100870 -0.008640
v 0.007140 0.100870 -0.014964
v 0.000000 0.100870 -0.017279
v -0.007140 0.100870 -0.014964
v -0.012366 0.100870 -0.008640
v -0.014279 0.100870 -0.000000
v -0.012366 0.100870 0.008640
v -0.007140 0.100870 0.014964
v -0.000000 0.100870 0.017279
v 0.007140 0.100870 0.014964
v 0.012366 0.100870 0.008640
v 0.013225 0.110522 0.000000
v 0.011454 0.110522 -0.008113
v 0.006613 0.110522 -0.014052
v 0.000000 0.110522 -0.016225
v -0.006613 0.110522 -0.014052
v -0.011454 0.110522 -0.008113
v -0.013225 0.110522 -0.000000
v -0.011454 0.110522 0.008113
v -0.006613 0.110522 0.014052
v -0.000000 0.110522 0.016225
v 0.006613 0.110522 0.014052
v 0.011454 0.110522 0.008113
v 0.014969 0.120174 0.000000
v 0.012963 0.120174 -0.008984
v 0.007484 0.120174 -0.015561
v 0.000000 0.120174 -0.017969
v -0.007484 0.120174 -0.015561
v -0.012963 0.120174 -0.008984
v -0.014969 0.120174 -0.000000
v -0.012963 0.120174 0.008984
v -0.007484 0.120174 0.015561
v -0.000000 0.120174 0.017969
v 0.007484 0.120174 0.015561
v 0.012963 0.120174 0.008984
v 0.013469 0.129826 0.000000
v 0.011664 0.129826 -0.008234
v 0.006734 0.129826 -0.014262
v 0.000000 0.129826 -0.016469
v -0.006734 0.129826 -0.014262
v -0.011664 0.129826 -0.008234
v -0.013469 0.129826 -0.000000
v -0.011664 0.129826 0.008234
v -0.006734 0.129826 0.014262
v -0.000000 0.129826 0.016469
v 0.006734 0.129826 0.014262
v 0.011664 0.129826 0.008234
v 0.014725 0.139478 0.000000
v 0.012753 0.139478 -0.008863
v 0.007363 0.139478 -0.015351
v 0.000000 0.139478 -0.017725
v -0.007363 0.139478 -0.015351
v -0.012753 0.139478 -0.008863
v -0.014725 0.139478 -0.000000
v -0.012753 0.139478 0.008863
v -0.007363 0.139478 0.015351
v -0.000000 0.139478 0.017725
v 0.007363 0.139478 0.015351
v 0.012753 0.139478 0.008863
v 0.012779 0.149130 0.000000
v 0.011067 0.149130 -0.007890
v 0.006390 0.149130 -0.013665
v 0.000000 0.149130 -0.015779
v -0.006390 0.149130 -0.013665
v -0.011067 0.149130 -0.007890
v -0.012779 0.149130 -0.000000
v -0.011067 0.149130 0.007890
v -0.006390 0.149130 0.013665
v -0.000000 0.149130 0.015779
v 0.006390 0.149130 0.013665
v 0.011067 0.149130 0.007890
v 0.013704 0.158783 0.000000
v 0.011868 0.158783 -0.008352
v 0.006852 0.158783 -0.014466
v 0.000000 0.158783 -0.016704
v -0.006852 0.158783 -0.014466
v -0.011868 0.158783 -0.008352
v -0.013704 0.158783 -0.000000
v -0.011868 0.158783 0.008352
v -0.006852 0.158783 0.014466
v -0.000000 0.158783 0.016704
v 0.006852 0.158783 0.014466
v 0.011868 0.158783 0.008352
v 0.012000 0.168435 0.000000
v 0.010392 0.168435 -0.007500
v 0.006000 0.168435 -0.012990
v 0.000000 0.168435 -0.015000
v -0.006000 0.168435 -0.012990
v -0.010392 0.168435 -0.007500
v -0.012000 0.168435 -0.000000
v -0.010392 0.168435 0.007500
v -0.006000 0.168435 0.012990
v -0.000000 0.168435 0.015000
v 0.006000 0.168435 0.012990
v 0.010392 0.168435 0.007500
v 0.013500 0.178087 0.000000
v 0.011691 0.178087 -0.008250
v 0.006750 0.178087 -0.014289
v 0.000000 0.178087 -0.016500
v -0.006750 0.178087 -0.014289
v -0.011691 0.178087 -0.008250
v -0.013500 0.178087 -0.000000
v -0.011691 0.178087 0.008250
v -0.006750 0.178087 0.014289
v -0.000000 0.178087 0.016500
v 0.006750 0.178087 0.014289
v 0.011691 0.178087 0.008250
v 0.012000 0.187739 0.000000
v 0.010392 0.187739 -0.007500
v 0.006000 0.187739 -0.012990
v 0.000000 0.187739 -0.015000
v -0.006000 0.187739 -0.012990
v -0.010392 0.187739 -0.007500
v -0.012000 0.187739 -0.000000
v -0.010392 0.187739 0.007500
v -0.006000 0.187739 0.012990
v -0.000000 0.187739 0.015000
v 0.006000 0.187739 0.012990
v 0.010392 0.187739 0.007500
v 0.013500 0.197391 0.000000
v 0.011691 0.197391 -0.008250
v 0.006750 0.197391 -0.014289
v 0.000000 0.197391 -0.016500
v -0.006750 0.197391 -0.014289
v -0.011691 0.197391 -0.008250
v -0.013500 0.197391 -0.000000
v -0.011691 0.197391 0.008250
v -0.006750 0.197391 0.014289
v -0.000000 0.197391 0.016500
v 0.006750 0.197391 0.014289
v 0.011691 0.197391 0.008250
v 0.012000 0.207043 0.000000
v 0.010392 0.207043 -0.007500
v 0.006000 0.207043 -0.012990
v 0.000000 0.207043 -0.015000
v -0.006000 0.207043 -0.012990
v -0.010392 0.207043 -0.007500
v -0.012000 0.207043 -0.000000
v -0.010392 0.207043 0.007500
v -0.006000 0.207043 0.012990
v -0.000000 0.207043 0.015000
v 0.006000 0.207043 0.012990
v 0.010392 0.207043 0.007500
v 0.013500 0.216696 0.000000
v 0.011691 0.216696 -0.008250
v 0.006750 0.216696 -0.014289
v 0.000000 0.216696 -0.016500
v -0.006750 0.216696 -0.014289
v -0.011691 0.216696 -0.008250
v -0.013500 0.216696 -0.000000
v -0.011691 0.216696 0.008250
v -0.006750 0.216696 0.014289
v -0.000000 0.216696 0.016500
v 0.006750 0.216696 0.014289
v 0.011691 0.216696 0.008250
v 0.012000 0.226348 0.000000
v 0.010392 0.226348 -0.007500
v 0.006000 0.226348 -0.012990
v 0.000000 0.226348 -0.015000
v -0.006000 0.226348 -0.012990
v -0.010392 0.226348 -0.007500
v -0.012000 0.226348 -0.000000
v -0.010392 0.226348 0.007500
v -0.006000 0.226348 0.012990
v -0.000000 0.226348 0.015000
v 0.006000 0.226348 0.012990
v 0.010392 0.226348 0.007500
v 0.012000 0.236000 0.000000
v 0.010392 0.236000 -0.007500
v 0.006000 0.236000 -0.012990
v 0.000000 0.236000 -0.015000
v -0.006000 0.236000 -0.012990
v -0.010392 0.236000 -0.007500
v -0.012000 0.236000 -0.000000
v -0.010392 0.236000 0.007500
v -0.006000 0.236000 0.012990
v -0.000000 0.236000 0.015000
v 0.006000 0.236000 0.012990
v 0.010392 0.236000 0.007500
v 0.012000 0.236000 0.000000
v 0.011087 0.236000 -0.005740
v 0.008485 0.236000 -0.010607
v 0.004592 0.236000 -0.013858
v 0.000000 0.236000 -0.015000
v -0.004592 0.236000 -0.013858
v -0.008485 0.236000 -0.010607
v -0.011087 0.236000 -0.005740
v -0.012000 0.236000 -0.000000
v -0.011087 0.236000 0.005740
v -0.008485 0.236000 0.010607
v -0.004592 0.236000 0.013858
v -0.000000 0.236000 0.015000
v 0.004592 0.236000 0.013858
v 0.008485 0.236000 0.010607
v 0.011087 0.236000 0.005740
v 0.013000 0.237500 0.000000
v 0.012010 0.237500 -0.006123
v 0.009192 0.237500 -0.011314
v 0.004975 0.237500 -0.014782
v 0.000000 0.237500 -0.016000
v -0.004975 0.237500 -0.014782
v -0.009192 0.237500 -0.011314
v -0.012010 0.237500 -0.006123
v -0.013000 0.237500 -0.000000
v -0.012010 0.237500 0.006123
v -0.009192 0.237500 0.011314
v -0.004975 0.237500 0.014782
v -0.000000 0.237500 0.016000
v 0.004975 0.237500 0.014782
v 0.009192 0.237500 0.011314
v 0.012010 0.237500 0.006123
v 0.013000 0.250000 0.000000
v 0.012010 0.250000 -0.006123
v 0.009192 0.250000 -0.011314
v 0.004975 0.250000 -0.014782
v 0.000000 0.250000 -0.016000
v -0.004975 0.250000 -0.014782
v -0.009192 0.250000 -0.011314
v -0.012010 0.250000 -0.006123
v -0.013000 0.250000 -0.000000
v -0.012010 0.250000 0.006123
v -0.009192 0.250000 0.011314
v -0.004975 0.250000 0.014782
v -0.000000 0.250000 0.016000
v 0.004975 0.250000 0.014782
v 0.009192 0.250000 0.011314
v 0.012010 0.250000 0.006123
v 0.027200 0.250000 -0.040921
v 0.026866 0.250000 -0.042601
v 0.025959 0.250000 -0.043959
v 0.024601 0.250000 -0.044866
v 0.022921 0.250000 -0.045200
v -0.022921 0.250000 -0.045200
v -0.024601 0.250000 -0.044866
v -0.025959 0.250000 -0.043959
v -0.026866 0.250000 -0.042601
v -0.027200 0.250000 -0.040921
v -0.027200 0.250000 0.040921
v -0.026866 0.250000 0.042601
v -0.025959 0.250000 0.043959
v -0.024601 0.250000 0.044866
v -0.022921 0.250000 0.045200
v 0.022921 0.250000 0.045200
v 0.024601 0.250000 0.044866
v 0.025959 0.250000 0.043959
v 0.026866 0.250000 0.042601
v 0.027200 0.250000 0.040921
v 0.028000 0.250800 -0.041000
v 0.027619 0.250800 -0.042913
v 0.026536 0.250800 -0.044536
v 0.024913 0.250800 -0.045619
v 0.023000 0.250800 -0.046000
v -0.023000 0.250800 -0.046000
v -0.024913 0.250800 -0.045619
v -0.026536 0.250800 -0.044536
v -0.027619 0.250800 -0.042913
v -0.028000 0.250800 -0.041000
v -0.028000 0.250800 0.041000
v -0.027619 0.250800 0.042913
v -0.026536 0.250800 0.044536
v -0.024913 0.250800 0.045619
v -0.023000 0.250800 0.046000
v 0.023000 0.250800 0.046000
v 0.024913 0.250800 0.045619
v 0.026536 0.250800 0.044536
v 0.027619 0.250800 0.042913
v 0.028000 0.250800 0.041000
v 0.028000 0.256200 -0.041000
v 0.027619 0.256200 -0.042913
v 0.026536 0.256200 -0.044536
v 0.024913 0.256200 -0.045619
v 0.023000 0.256200 -0.046000
v -0.023000 0.256200 -0.046000
v -0.024913 0.256200 -0.045619
v -0.026536 0.256200 -0.044536
v -0.027619 0.256200 -0.042913
v -0.028000 0.256200 -0.041000
v -0.028000 0.256200 0.041000
v -0.027619 0.256200 0.042913
v -0.026536 0.256200 0.044536
v -0.024913 0.256200 0.045619
v -0.023000 0.256200 0.046000
v 0.023000 0.256200 0.046000
v 0.024913 0.256200 0.045619
v 0.026536 0.256200 0.044536
v 0.027619 0.256200 0.042913
v 0.028000 0.256200 0.041000
v 0.027200 0.257000 -0.040921
v 0.026866 0.257000 -0.042601
v 0.025959 0.257000 -0.043959
v 0.024601 0.257000 -0.044866
v 0.022921 0.257000 -0.045200
v -0.022921 0.257000 -0.045200
v -0.024601 0.257000 -0.044866
v -0.025959 0.257000 -0.043959
v -0.026866 0.257000 -0.042601
v -0.027200 0.257000 -0.040921
v -0.027200 0.257000 0.040921
v -0.026866 0.257000 0.042601
v -0.025959 0.257000 0.043959
v -0.024601 0.257000 0.044866
v -0.022921 0.257000 0.045200
v 0.022921 0.257000 0.045200
v 0.024601 0.257000 0.044866
v 0.025959 0.257000 0.043959
v 0.026866 0.257000 0.042601
v 0.027200 0.257000 0.040921
v -0.009000 0.250000 0.020000
v -0.005000 0.250000 0.020000
v -0.005000 0.250000 0.038000
v -0.020000 0.250000 0.038000
v -0.020000 0.250000 0.004000
v -0.009000 0.250000 0.004000
v -0.009000 0.250000 -0.004000
v -0.020000 0.250000 -0.004000
v -0.020000 0.250000 -0.038000
v -0.005000 0.250000 -0.038000
v -0.005000 0.250000 -0.020000
v -0.009000 0.250000 -0.020000
v 0.009000 0.250000 0.004000
v 0.020000 0.250000 0.004000
v 0.020000 0.250000 0.038000
v 0.005000 0.250000 0.038000
v 0.005000 0.250000 0.020000
v 0.009000 0.250000 0.020000
v 0.009000 0.250000 -0.020000
v 0.005000 0.250000 -0.020000
v 0.005000 0.250000 -0.038000
v 0.020000 0.250000 -0.038000
v 0.020000 0.250000 -0.004000
v 0.009000 0.250000 -0.004000
v -0.009000 0.257000 0.020000
v -0.005000 0.257000 0.020000
v -0.005000 0.257000 0.038000
v -0.020000 0.257000 0.038000
v -0.020000 0.257000 0.004000
v -0.009000 0.257000 0.004000
v -0.009000 0.257000 -0.004000
v -0.020000 0.257000 -0.004000
v -0.020000 0.257000 -0.038000
v -0.005000 0.257000 -0.038000
v -0.005000 0.257000 -0.020000
v -0.009000 0.257000 -0.020000
v 0.009000 0.257000 0.004000
v 0.020000 0.257000 0.004000
v 0.020000 0.257000 0.038000
v 0.005000 0.257000 0.038000
v 0.005000 0.257000 0.020000
v 0.009000 0.257000 0.020000
v 0.009000 0.257000 -0.020000
v 0.005000 0.257000 -0.020000
v 0.005000 0.257000 -0.038000
v 0.020000 0.257000 -0.038000
v 0.020000 0.257000 -0.004000
v 0.009000 0.257000 -0.004000
v 0.004000 0.257000 0.016000
v 0.005000 0.257000 0.015000
v 0.005000 0.257000 -0.015000
v 0.004000 0.257000 -0.016000
v -0.004000 0.257000 -0.016000
v -0.005000 0.257000 -0.015000
v -0.005000 0.257000 0.015000
v -0.004000 0.257000 0.016000
v 0.004000 0.285000 0.016000
v 0.005000 0.285000 0.015000
v 0.005000 0.285000 -0.015000
v 0.004000 0.285000 -0.016000
v -0.004000 0.285000 -0.016000
v -0.005000 0.285000 -0.015000
v -0.005000 0.285000 0.015000
v -0.004000 0.285000 0.016000
v 0.000000 0.978519 -0.086432
v 0.000500 0.285000 0.016000
v 0.005000 0.285000 -0.001600
v 0.005000 0.285000 -0.016000
v -0.005000 0.285000 -0.016000
v -0.005000 0.285000 -0.001600
v -0.000500 0.285000 0.016000
v 0.000500 0.347821 0.014850
v 0.004750 0.347468 -0.002197
v 0.004750 0.347179 -0.016144
v -0.004750 0.347179 -0.016144
v -0.004750 0.347468 -0.002197
v -0.000500 0.347821 0.014850
v 0.000500 0.410621 0.012399
v 0.004500 0.409938 -0.004087
v 0.004500 0.409379 -0.017575
v -0.004500 0.409379 -0.017575
v -0.004500 0.409938 -0.004087
v -0.000500 0.410621 0.012399
v 0.000500 0.473399 0.008649
v 0.004250 0.472410 -0.007270
v 0.004250 0.471601 -0.020295
v -0.004250 0.471601 -0.020295
v -0.004250 0.472410 -0.007270
v -0.000500 0.473399 0.008649
v 0.000500 0.536155 0.003601
v 0.004000 0.534884 -0.011747
v 0.004000 0.533845 -0.024304
v -0.004000 0.533845 -0.024304
v -0.004000 0.534884 -0.011747
v -0.000500 0.536155 0.003601
v 0.000500 0.598890 -0.002746
v 0.003750 0.597361 -0.017517
v 0.003750 0.596110 -0.029602
v -0.003750 0.596110 -0.029602
v -0.003750 0.597361 -0.017517
v -0.000500 0.598890 -0.002746
v 0.000500 0.661602 -0.010390
v 0.003500 0.659840 -0.024581
v 0.003500 0.658397 -0.036192
v -0.003500 0.658397 -0.036192
v -0.003500 0.659840 -0.024581
v -0.000500 0.661602 -0.010390
v 0.000500 0.724293 -0.019330
v 0.003250 0.722321 -0.032938
v 0.003250 0.720707 -0.044072
v -0.003250 0.720707 -0.044072
v -0.003250 0.722321 -0.032938
v -0.000500 0.724293 -0.019330
v 0.000500 0.786961 -0.029567
v 0.003000 0.784804 -0.042590
v 0.003000 0.783039 -0.053244
v -0.003000 0.783039 -0.053244
v -0.003000 0.784804 -0.042590
v -0.000500 0.786961 -0.029567
v 0.000500 0.849607 -0.041099
v 0.002750 0.847289 -0.053535
v 0.002750 0.845393 -0.063710
v -0.002750 0.845393 -0.063710
v -0.002750 0.847289 -0.053535
v -0.000500 0.849607 -0.041099
v 0.000500 0.912230 -0.053925
v 0.002500 0.909777 -0.065774
v 0.002500 0.907770 -0.075468
v -0.002500 0.907770 -0.075468
v -0.002500 0.909777 -0.065774
v -0.000500 0.912230 -0.053925
v 0.000500 0.945987 -0.067632
v 0.002000 0.944384 -0.074961
v 0.002000 0.943074 -0.080957
v -0.002000 0.943074 -0.080957
v -0.002000 0.944384 -0.074961
v -0.000500 0.945987 -0.067632
vn 0.8009 -0.5873 -0.1168
vn 0.7092 -0.6135 -0.3475
vn 0.5076 -0.6572 -0.5571
vn 0.1884 -0.6944 -0.6944
vn -0.1884 -0.6944 -0.6944
vn -0.5076 -0.6572 -0.5571
vn -0.7092 -0.6135 -0.3475
vn -0.8009 -0.5873 -0.1168
vn -0.8009 -0.5873 0.1168
vn -0.7092 -0.6135 0.3475
vn -0.5076 -0.6572 0.5571
vn -0.1884 -0.6944 0.6944
vn 0.1884 -0.6944 0.6944
vn 0.5076 -0.6572 0.5571
vn 0.7092 -0.6135 0.3475
vn 0.8009 -0.5873 0.1168
vn 0.9895 -0.0000 -0.1443
vn 0.8980 -0.0000 -0.4400
vn 0.6735 -0.0000 -0.7392
vn 0.2618 -0.0000 -0.9651
vn -0.2618 -0.0000 -0.9651
vn -0.6735 -0.0000 -0.7392
vn -0.8980 -0.0000 -0.4400
vn -0.9895 -0.0000 -0.1443
vn -0.9895 -0.0000 0.1443
vn -0.8980 -0.0000 0.4400
vn -0.6735 -0.0000 0.7392
vn -0.2618 -0.0000 0.9651
vn 0.2618 -0.0000 0.9651
vn 0.6735 -0.0000 0.7392
vn 0.8980 -0.0000 0.4400
vn 0.9895 -0.0000 0.1443
vn -0.0000 -1.0000 -0.0000
vn 0.9884 -0.1516 -0.0000
vn 0.8920 -0.1520 -0.4257
vn 0.9010 -0.0000 -0.4338
vn 1.0000 -0.0000 -0.0000
vn 0.5638 -0.1540 -0.8114
vn 0.5669 -0.0000 -0.8238
vn -0.0000 -0.1559 -0.9878
vn -0.0000 -0.0000 -1.0000
vn -0.5638 -0.1540 -0.8114
vn -0.5669 -0.0000 -0.8238
vn -0.8920 -0.1520 -0.4257
vn -0.9010 -0.0000 -0.4338
vn -0.9884 -0.1516 -0.0000
vn -1.0000 -0.0000 -0.0000
vn -0.8920 -0.1520 0.4257
vn -0.9010 -0.0000 0.4338
vn -0.5638 -0.1540 0.8114
vn -0.5669 -0.0000 0.8238
vn -0.0000 -0.1559 0.9878
vn -0.0000 -0.0000 1.0000
vn 0.5638 -0.1540 0.8114
vn 0.5669 -0.0000 0.8238
vn 0.8920 -0.1520 0.4257
vn 0.9010 -0.0000 0.4338
vn 0.9025 -0.0000 -0.4307
vn 0.5706 -0.0000 -0.8212
vn -0.5706 -0.0000 -0.8212
vn -0.9025 -0.0000 -0.4307
vn -0.9025 -0.0000 0.4307
vn -0.5706 -0.0000 0.8212
vn 0.5706 -0.0000 0.8212
vn 0.9025 -0.0000 0.4307
vn 0.9009 -0.0100 -0.4340
vn 0.9999 -0.0100 -0.0000
vn 0.5668 -0.0101 -0.8238
vn -0.0000 -0.0102 -0.9999
vn -0.5668 -0.0101 -0.8238
vn -0.9009 -0.0100 -0.4340
vn -0.9999 -0.0100 -0.0000
vn -0.9009 -0.0100 0.4340
vn -0.5668 -0.0101 0.8238
vn -0.0000 -0.0102 0.9999
vn 0.5668 -0.0101 0.8238
vn 0.9009 -0.0100 0.4340
vn 0.9012 -0.0398 -0.4316
vn 0.9992 -0.0396 -0.0000
vn 0.5690 -0.0405 -0.8214
vn -0.0000 -0.0412 -0.9992
vn -0.5690 -0.0405 -0.8214
vn -0.9012 -0.0398 -0.4316
vn -0.9992 -0.0396 -0.0000
vn -0.9012 -0.0398 0.4316
vn -0.5690 -0.0405 0.8214
vn -0.0000 -0.0412 0.9992
vn 0.5690 -0.0405 0.8214
vn 0.9012 -0.0398 0.4316
vn 0.8983 -0.0498 -0.4366
vn 0.9988 -0.0498 -0.0000
vn 0.5628 -0.0502 -0.8250
vn -0.0000 -0.0506 -0.9987
vn -0.5628 -0.0502 -0.8250
vn -0.8983 -0.0498 -0.4366
vn -0.9988 -0.0498 -0.0000
vn -0.8983 -0.0498 0.4366
vn -0.5628 -0.0502 0.8250
vn -0.0000 -0.0506 0.9987
vn 0.5628 -0.0502 0.8250
vn 0.8983 -0.0498 0.4366
vn 0.8994 -0.0354 -0.4358
vn 0.9994 -0.0352 -0.0000
vn 0.5647 -0.0360 -0.8245
vn -0.0000 -0.0365 -0.9993
vn -0.5647 -0.0360 -0.8245
vn -0.8994 -0.0354 -0.4358
vn -0.9994 -0.0352 -0.0000
vn -0.8994 -0.0354 0.4358
vn -0.5647 -0.0360 0.8245
vn -0.0000 -0.0365 0.9993
vn 0.5647 -0.0360 0.8245
vn 0.8994 -0.0354 0.4358
vn 0.8980 -0.0118 -0.4398
vn 0.9999 -0.0118 -0.0000
vn 0.5607 -0.0119 -0.8279
vn -0.0000 -0.0120 -0.9999
vn -0.5607 -0.0119 -0.8279
vn -0.8980 -0.0118 -0.4398
vn -0.9999 -0.0118 -0.0000
vn -0.8980 -0.0118 0.4398
vn -0.5607 -0.0119 0.8279
vn -0.0000 -0.0120 0.9999
vn 0.5607 -0.0119 0.8279
vn 0.8980 -0.0118 0.4398
vn 0.8994 0.0125 -0.4370
vn 0.9999 0.0124 -0.0000
vn 0.5641 0.0127 -0.8256
vn -0.0000 0.0129 -0.9999
vn -0.5641 0.0127 -0.8256
vn -0.8994 0.0125 -0.4370
vn -0.9999 0.0124 -0.0000
vn -0.8994 0.0125 0.4370
vn -0.5641 0.0127 0.8256
vn -0.0000 0.0129 0.9999
vn 0.5641 0.0127 0.8256
vn 0.8994 0.0125 0.4370
vn 0.8980 0.0336 -0.4387
vn 0.9994 0.0336 -0.0000
vn 0.5614 0.0339 -0.8268
vn -0.0000 0.0341 -0.9994
vn -0.5614 0.0339 -0.8268
vn -0.8980 0.0336 -0.4387
vn -0.9994 0.0336 -0.0000
vn -0.8980 0.0336 0.4387
vn -0.5614 0.0339 0.8268
vn -0.0000 0.0341 0.9994
vn 0.5614 0.0339 0.8268
vn 0.8980 0.0336 0.4387
vn 0.8996 0.0524 -0.4336
vn 0.9986 0.0521 -0.0000
vn 0.5662 0.0533 -0.8225
vn -0.0000 0.0540 -0.9985
vn -0.5662 0.0533 -0.8225
vn -0.8996 0.0524 -0.4336
vn -0.9986 0.0521 -0.0000
vn -0.8996 0.0524 0.4336
vn -0.5662 0.0533 0.8225
vn -0.0000 0.0540 0.9985
vn 0.5662 0.0533 0.8225
vn 0.8996 0.0524 0.4336
vn 0.8998 0.0384 -0.4347
vn 0.9993 0.0384 -0.0000
vn 0.5654 0.0388 -0.8239
vn -0.0000 0.0392 -0.9992
vn -0.5654 0.0388 -0.8239
vn -0.8998 0.0384 -0.4347
vn -0.9993 0.0384 -0.0000
vn -0.8998 0.0384 0.4347
vn -0.5654 0.0388 0.8239
vn -0.0000 0.0392 0.9992
vn 0.5654 0.0388 0.8239
vn 0.8998 0.0384 0.4347
vn 0.9024 0.0105 -0.4308
vn 0.9999 0.0104 -0.0000
vn 0.5705 0.0106 -0.8212
vn -0.0000 0.0108 -0.9999
vn -0.5705 0.0106 -0.8212
vn -0.9024 0.0105 -0.4308
vn -0.9999 0.0104 -0.0000
vn -0.9024 0.0105 0.4308
vn -0.5705 0.0106 0.8212
vn -0.0000 0.0108 0.9999
vn 0.5705 0.0106 0.8212
vn 0.9024 0.0105 0.4308
vn 0.9003 0.0771 -0.4284
vn 0.9970 0.0768 -0.0000
vn 0.5698 0.0783 -0.8180
vn -0.0000 0.0795 -0.9968
vn -0.5698 0.0783 -0.8180
vn -0.9003 0.0771 -0.4284
vn -0.9970 0.0768 -0.0000
vn -0.9003 0.0771 0.4284
vn -0.5698 0.0783 0.8180
vn -0.0000 0.0795 0.9968
vn 0.5698 0.0783 0.8180
vn 0.9003 0.0771 0.4284
vn 0.9035 -0.0000 -0.4286
vn 0.5726 -0.0000 -0.8199
vn -0.5726 -0.0000 -0.8199
vn -0.9035 -0.0000 -0.4286
vn -0.9035 -0.0000 0.4286
vn -0.5726 -0.0000 0.8199
vn 0.5726 -0.0000 0.8199
vn 0.9035 -0.0000 0.4286
vn 0.8266 -0.5470 -0.1326
vn 0.7378 -0.5455 -0.3976
vn 0.5348 -0.5452 -0.6455
vn 0.2005 -0.5469 -0.8129
vn -0.2005 -0.5469 -0.8129
vn -0.5348 -0.5452 -0.6455
vn -0.7378 -0.5455 -0.3976
vn -0.8266 -0.5470 -0.1326
vn -0.8266 -0.5470 0.1326
vn -0.7378 -0.5455 0.3976
vn -0.5348 -0.5452 0.6455
vn -0.2005 -0.5469 0.8129
vn 0.2005 -0.5469 0.8129
vn 0.5348 -0.5452 0.6455
vn 0.7378 -0.5455 0.3976
vn 0.8266 -0.5470 0.1326
vn 0.9872 -0.0000 -0.1595
vn 0.8788 -0.0000 -0.4771
vn 0.6352 -0.0000 -0.7724
vn 0.2378 -0.0000 -0.9713
vn -0.2378 -0.0000 -0.9713
vn -0.6352 -0.0000 -0.7724
vn -0.8788 -0.0000 -0.4771
vn -0.9872 -0.0000 -0.1595
vn -0.9872 -0.0000 0.1595
vn -0.8788 -0.0000 0.4771
vn -0.6352 -0.0000 0.7724
vn -0.2378 -0.0000 0.9713
vn 0.2378 -0.0000 0.9713
vn 0.6352 -0.0000 0.7724
vn 0.8788 -0.0000 0.4771
vn 0.9872 -0.0000 0.1595
vn 0.6935 -0.7071 -0.1380
vn 0.5879 -0.7071 -0.3929
vn 0.3929 -0.7071 -0.5879
vn 0.1379 -0.7071 -0.6935
vn -0.0000 -0.7071 -0.7071
vn -0.1379 -0.7071 -0.6935
vn -0.3928 -0.7071 -0.5879
vn -0.5879 -0.7071 -0.3929
vn -0.6935 -0.7071 -0.1380
vn -0.7071 -0.7071 -0.0000
vn -0.6935 -0.7071 0.1380
vn -0.5879 -0.7071 0.3929
vn -0.3929 -0.7071 0.5879
vn -0.1379 -0.7071 0.6935
vn -0.0000 -0.7071 0.7071
vn 0.1379 -0.7071 0.6935
vn 0.3928 -0.7071 0.5879
vn 0.5879 -0.7071 0.3929
vn 0.6935 -0.7071 0.1380
vn 0.7071 -0.7071 -0.0000
vn 0.9808 -0.0000 -0.1951
vn 0.8315 -0.0000 -0.5556
vn 0.5556 -0.0000 -0.8315
vn 0.1951 -0.0000 -0.9808
vn -0.1951 -0.0000 -0.9808
vn -0.5556 -0.0000 -0.8315
vn -0.8315 -0.0000 -0.5556
vn -0.9808 -0.0000 -0.1951
vn -0.9808 -0.0000 0.1951
vn -0.8315 -0.0000 0.5556
vn -0.5556 -0.0000 0.8315
vn -0.1951 -0.0000 0.9808
vn 0.1951 -0.0000 0.9808
vn 0.5556 -0.0000 0.8315
vn 0.8315 -0.0000 0.5556
vn 0.9808 -0.0000 0.1951
vn 0.6935 0.7071 -0.1380
vn 0.5879 0.7071 -0.3929
vn 0.3928 0.7071 -0.5879
vn 0.1380 0.7071 -0.6935
vn -0.0000 0.7071 -0.7071
vn -0.1380 0.7071 -0.6935
vn -0.3928 0.7071 -0.5879
vn -0.5879 0.7071 -0.3929
vn -0.6935 0.7071 -0.1380
vn -0.7071 0.7071 -0.0000
vn -0.6935 0.7071 0.1380
vn -0.5879 0.7071 0.3929
vn -0.3928 0.7071 0.5879
vn -0.1380 0.7071 0.6935
vn -0.0000 0.7071 0.7071
vn 0.1380 0.7071 0.6935
vn 0.3928 0.7071 0.5879
vn 0.5879 0.7071 0.3929
vn 0.6935 0.7071 0.1380
vn 0.7071 0.7071 -0.0000
vn -0.0000 1.0000 -0.0000
vn 0.7071 -0.0000 0.7071
vn 0.7071 -0.0000 -0.7071
vn -0.7071 -0.0000 -0.7071
vn -0.7071 -0.0000 0.7071
vn 0.9696 0.0053 0.2448
vn 1.0000 0.0040 -0.0000
vn -0.0000 -0.0023 -1.0000
vn -1.0000 0.0040 -0.0000
vn -0.9696 0.0053 0.2448
vn -0.0000 0.0183 0.9998
vn 0.9711 0.0102 0.2386
vn 1.0000 0.0040 -0.0001
vn -0.0000 -0.0230 -0.9997
vn -1.0000 0.0040 -0.0001
vn -0.9711 0.0102 0.2386
vn -0.0000 0.0390 0.9992
vn 0.9726 0.0148 0.2319
vn 1.0000 0.0040 -0.0002
vn -0.0000 -0.0437 -0.9990
vn -1.0000 0.0040 -0.0002
vn -0.9726 0.0148 0.2319
vn -0.0000 0.0596 0.9982
vn 0.9743 0.0190 0.2245
vn 1.0000 0.0040 -0.0003
vn -0.0000 -0.0643 -0.9979
vn -1.0000 0.0040 -0.0003
vn -0.9743 0.0190 0.2245
vn -0.0000 0.0802 0.9968
vn 0.9760 0.0229 0.2166
vn 1.0000 0.0040 -0.0004
vn -0.0000 -0.0848 -0.9964
vn -1.0000 0.0040 -0.0004
vn -0.9760 0.0229 0.2166
vn -0.0000 0.1007 0.9949
vn 0.9778 0.0264 0.2080
vn -0.0000 -0.1052 -0.9945
vn -0.9778 0.0264 0.2080
vn -0.0000 0.1210 0.9927
vn 0.9796 0.0294 0.1987
vn 1.0000 0.0039 -0.0005
vn -0.0000 -0.1255 -0.9921
vn -1.0000 0.0039 -0.0005
vn -0.9796 0.0294 0.1987
vn -0.0000 0.1412 0.9900
vn 0.9815 0.0319 0.1886
vn 1.0000 0.0039 -0.0006
vn -0.0000 -0.1456 -0.9893
vn -1.0000 0.0039 -0.0006
vn -0.9815 0.0319 0.1886
vn -0.0000 0.1612 0.9869
vn 0.9835 0.0339 0.1776
vn 1.0000 0.0039 -0.0007
vn -0.0000 -0.1655 -0.9862
vn -1.0000 0.0039 -0.0007
vn -0.9835 0.0339 0.1776
vn -0.0000 0.1810 0.9835
vn 0.9856 0.0351 0.1656
vn 1.0000 0.0039 -0.0008
vn -0.0000 -0.1852 -0.9827
vn -1.0000 0.0039 -0.0008
vn -0.9856 0.0351 0.1656
vn -0.0000 0.2006 0.9797
vn 0.9841 0.0629 0.1663
vn 0.9999 0.0137 -0.0029
vn -0.0000 -0.1536 -0.9881
vn -0.9999 0.0137 -0.0029
vn -0.9841 0.0629 0.1663
vn -0.0000 0.3762 0.9265
vn 0.9778 0.1160 0.1748
vn 0.9984 0.0545 -0.0119
vn -0.0000 -0.1526 -0.9883
vn -0.9984 0.0545 -0.0119
vn -0.9778 0.1160 0.1748
vn -0.0000 0.5003 0.8658
vt 0.646484 0.593750
vt 0.658142 0.593750
vt 0.658142 0.600000
vt 0.646484 0.600000
vt 0.669033 0.593750
vt 0.669033 0.600000
vt 0.678735 0.593750
vt 0.678735 0.600000
vt 0.687500 0.593750
vt 0.687500 0.600000
vt 0.523438 0.593750
vt 0.532203 0.593750
vt 0.532203 0.600000
vt 0.523438 0.600000
vt 0.541905 0.593750
vt 0.541905 0.600000
vt 0.552795 0.593750
vt 0.552795 0.600000
vt 0.564453 0.593750
vt 0.564453 0.600000
vt 0.576111 0.593750
vt 0.576111 0.600000
vt 0.587001 0.593750
vt 0.587001 0.600000
vt 0.596704 0.593750
vt 0.596704 0.600000
vt 0.605469 0.593750
vt 0.605469 0.600000
vt 0.614234 0.593750
vt 0.614234 0.600000
vt 0.623936 0.593750
vt 0.623936 0.600000
vt 0.634827 0.593750
vt 0.634827 0.600000
vt 0.658142 0.625000
vt 0.646484 0.625000
vt 0.669033 0.625000
vt 0.678735 0.625000
vt 0.687500 0.625000
vt 0.532203 0.625000
vt 0.523438 0.625000
vt 0.541905 0.625000
vt 0.552795 0.625000
vt 0.564453 0.625000
vt 0.576111 0.625000
vt 0.587001 0.625000
vt 0.596704 0.625000
vt 0.605469 0.625000
vt 0.614234 0.625000
vt 0.623936 0.625000
vt 0.634827 0.625000
vt 0.734376 0.619474
vt 0.741001 0.613438
vt 0.718749 0.619474
vt 0.183594 0.453125
vt 0.204966 0.453125
vt 0.204786 0.476562
vt 0.183594 0.476562
vt 0.224557 0.453125
vt 0.224366 0.476562
vt 0.242188 0.453125
vt 0.242188 0.476562
vt 0.007812 0.453125
vt 0.025443 0.453125
vt 0.025634 0.476562
vt 0.007812 0.476562
vt 0.045034 0.453125
vt 0.045214 0.476562
vt 0.066406 0.453125
vt 0.066406 0.476562
vt 0.087778 0.453125
vt 0.087598 0.476562
vt 0.107369 0.453125
vt 0.107178 0.476562
vt 0.125000 0.453125
vt 0.125000 0.476562
vt 0.142631 0.453125
vt 0.142822 0.476562
vt 0.162222 0.453125
vt 0.162402 0.476562
vt 0.204966 0.500000
vt 0.183594 0.500000
vt 0.224557 0.500000
vt 0.242188 0.500000
vt 0.025443 0.500000
vt 0.007812 0.500000
vt 0.045034 0.500000
vt 0.066406 0.500000
vt 0.087778 0.500000
vt 0.107369 0.500000
vt 0.125000 0.500000
vt 0.142631 0.500000
vt 0.162222 0.500000
vt 0.204786 0.523438
vt 0.183594 0.523438
vt 0.224366 0.523438
vt 0.242188 0.523438
vt 0.025634 0.523438
vt 0.007812 0.523438
vt 0.045214 0.523438
vt 0.066406 0.523438
vt 0.087598 0.523438
vt 0.107178 0.523438
vt 0.125000 0.523438
vt 0.142822 0.523438
vt 0.162402 0.523438
vt 0.204966 0.546875
vt 0.183594 0.546875
vt 0.224557 0.546875
vt 0.242188 0.546875
vt 0.025443 0.546875
vt 0.007812 0.546875
vt 0.045034 0.546875
vt 0.066406 0.546875
vt 0.087778 0.546875
vt 0.107369 0.546875
vt 0.125000 0.546875
vt 0.142631 0.546875
vt 0.162222 0.546875
vt 0.204786 0.570312
vt 0.183594 0.570312
vt 0.224366 0.570312
vt 0.242188 0.570312
vt 0.025634 0.570312
vt 0.007812 0.570312
vt 0.045214 0.570312
vt 0.066406 0.570312
vt 0.087598 0.570312
vt 0.107178 0.570312
vt 0.125000 0.570312
vt 0.142822 0.570312
vt 0.162402 0.570312
vt 0.204966 0.593750
vt 0.183594 0.593750
vt 0.224557 0.593750
vt 0.242188 0.593750
vt 0.025443 0.593750
vt 0.007812 0.593750
vt 0.045034 0.593750
vt 0.066406 0.593750
vt 0.087778 0.593750
vt 0.107369 0.593750
vt 0.125000 0.593750
vt 0.142631 0.593750
vt 0.162222 0.593750
vt 0.204786 0.617188
vt 0.183594 0.617188
vt 0.224366 0.617188
vt 0.242188 0.617188
vt 0.025634 0.617188
vt 0.007812 0.617188
vt 0.045214 0.617188
vt 0.066406 0.617188
vt 0.087598 0.617188
vt 0.107178 0.617188
vt 0.125000 0.617188
vt 0.142822 0.617188
vt 0.162402 0.617188
vt 0.204939 0.640625
vt 0.183594 0.640625
vt 0.224528 0.640625
vt 0.242188 0.640625
vt 0.025472 0.640625
vt 0.007812 0.640625
vt 0.045061 0.640625
vt 0.066406 0.640625
vt 0.087752 0.640625
vt 0.107341 0.640625
vt 0.125000 0.640625
vt 0.142659 0.640625
vt 0.162248 0.640625
vt 0.204706 0.664062
vt 0.183594 0.664062
vt 0.224281 0.664062
vt 0.242188 0.664062
vt 0.025719 0.664062
vt 0.007812 0.664062
vt 0.045294 0.664062
vt 0.066406 0.664062
vt 0.087518 0.664062
vt 0.107093 0.664062
vt 0.125000 0.664062
vt 0.142907 0.664062
vt 0.162482 0.664062
vt 0.204816 0.687500
vt 0.183594 0.687500
vt 0.224398 0.687500
vt 0.242188 0.687500
vt 0.025602 0.687500
vt 0.007812 0.687500
vt 0.045184 0.687500
vt 0.066406 0.687500
vt 0.087629 0.687500
vt 0.107210 0.687500
vt 0.125000 0.687500
vt 0.142790 0.687500
vt 0.162371 0.687500
vt 0.204641 0.710938
vt 0.183594 0.710938
vt 0.224212 0.710938
vt 0.242188 0.710938
vt 0.025788 0.710938
vt 0.007812 0.710938
vt 0.045359 0.710938
vt 0.066406 0.710938
vt 0.087453 0.710938
vt 0.107025 0.710938
vt 0.125000 0.710938
vt 0.142975 0.710938
vt 0.162547 0.710938
vt 0.204789 0.734375
vt 0.183594 0.734375
vt 0.224369 0.734375
vt 0.242188 0.734375
vt 0.025631 0.734375
vt 0.007812 0.734375
vt 0.045211 0.734375
vt 0.066406 0.734375
vt 0.087602 0.734375
vt 0.107182 0.734375
vt 0.125000 0.734375
vt 0.142818 0.734375
vt 0.162398 0.734375
vt 0.204663 0.757812
vt 0.183594 0.757812
vt 0.224236 0.757812
vt 0.242188 0.757812
vt 0.025764 0.757812
vt 0.007812 0.757812
vt 0.045337 0.757812
vt 0.066406 0.757812
vt 0.087475 0.757812
vt 0.107048 0.757812
vt 0.125000 0.757812
vt 0.142952 0.757812
vt 0.162525 0.757812
vt 0.204868 0.781250
vt 0.183594 0.781250
vt 0.224452 0.781250
vt 0.242188 0.781250
vt 0.025548 0.781250
vt 0.007812 0.781250
vt 0.045132 0.781250
vt 0.066406 0.781250
vt 0.087680 0.781250
vt 0.107265 0.781250
vt 0.125000 0.781250
vt 0.142735 0.781250
vt 0.162320 0.781250
vt 0.204764 0.804688
vt 0.183594 0.804688
vt 0.224342 0.804688
vt 0.242188 0.804688
vt 0.025658 0.804688
vt 0.007812 0.804688
vt 0.045236 0.804688
vt 0.066406 0.804688
vt 0.087577 0.804688
vt 0.107155 0.804688
vt 0.125000 0.804688
vt 0.142845 0.804688
vt 0.162423 0.804688
vt 0.204966 0.828125
vt 0.183594 0.828125
vt 0.224557 0.828125
vt 0.242188 0.828125
vt 0.025443 0.828125
vt 0.007812 0.828125
vt 0.045034 0.828125
vt 0.066406 0.828125
vt 0.087778 0.828125
vt 0.107369 0.828125
vt 0.125000 0.828125
vt 0.142631 0.828125
vt 0.162222 0.828125
vt 0.204786 0.851562
vt 0.183594 0.851562
vt 0.224366 0.851562
vt 0.242188 0.851562
vt 0.025634 0.851562
vt 0.007812 0.851562
vt 0.045214 0.851562
vt 0.066406 0.851562
vt 0.087598 0.851562
vt 0.107178 0.851562
vt 0.125000 0.851562
vt 0.142822 0.851562
vt 0.162402 0.851562
vt 0.204966 0.875000
vt 0.183594 0.875000
vt 0.224557 0.875000
vt 0.242188 0.875000
vt 0.025443 0.875000
vt 0.007812 0.875000
vt 0.045034 0.875000
vt 0.066406 0.875000
vt 0.087778 0.875000
vt 0.107369 0.875000
vt 0.125000 0.875000
vt 0.142631 0.875000
vt 0.162222 0.875000
vt 0.204786 0.898438
vt 0.183594 0.898438
vt 0.224366 0.898438
vt 0.242188 0.898438
vt 0.025634 0.898438
vt 0.007812 0.898438
vt 0.045214 0.898438
vt 0.066406 0.898438
vt 0.087598 0.898438
vt 0.107178 0.898438
vt 0.125000 0.898438
vt 0.142822 0.898438
vt 0.162402 0.898438
vt 0.204966 0.921875
vt 0.183594 0.921875
vt 0.224557 0.921875
vt 0.242188 0.921875
vt 0.025443 0.921875
vt 0.007812 0.921875
vt 0.045034 0.921875
vt 0.066406 0.921875
vt 0.087778 0.921875
vt 0.107369 0.921875
vt 0.125000 0.921875
vt 0.142631 0.921875
vt 0.162222 0.921875
vt 0.204786 0.945312
vt 0.183594 0.945312
vt 0.224366 0.945312
vt 0.242188 0.945312
vt 0.025634 0.945312
vt 0.007812 0.945312
vt 0.045214 0.945312
vt 0.066406 0.945312
vt 0.087598 0.945312
vt 0.107178 0.945312
vt 0.125000 0.945312
vt 0.142822 0.945312
vt 0.162402 0.945312
vt 0.204966 0.968750
vt 0.183594 0.968750
vt 0.224557 0.968750
vt 0.242188 0.968750
vt 0.025443 0.968750
vt 0.007812 0.968750
vt 0.045034 0.968750
vt 0.066406 0.968750
vt 0.087778 0.968750
vt 0.107369 0.968750
vt 0.125000 0.968750
vt 0.142631 0.968750
vt 0.162222 0.968750
vt 0.204966 0.992188
vt 0.183594 0.992188
vt 0.224557 0.992188
vt 0.242188 0.992188
vt 0.025443 0.992188
vt 0.007812 0.992188
vt 0.045034 0.992188
vt 0.066406 0.992188
vt 0.087778 0.992188
vt 0.107369 0.992188
vt 0.125000 0.992188
vt 0.142631 0.992188
vt 0.162222 0.992188
vt 0.664062 0.546875
vt 0.676954 0.546875
vt 0.676875 0.552500
vt 0.664062 0.552500
vt 0.689192 0.546875
vt 0.689077 0.552500
vt 0.700442 0.546875
vt 0.700357 0.552500
vt 0.710938 0.546875
vt 0.710938 0.552500
vt 0.523438 0.546875
vt 0.533933 0.546875
vt 0.534018 0.552500
vt 0.523438 0.552500
vt 0.545183 0.546875
vt 0.545298 0.552500
vt 0.557421 0.546875
vt 0.557500 0.552500
vt 0.570312 0.546875
vt 0.570312 0.552500
vt 0.583204 0.546875
vt 0.583125 0.552500
vt 0.595442 0.546875
vt 0.595327 0.552500
vt 0.606692 0.546875
vt 0.606607 0.552500
vt 0.617188 0.546875
vt 0.617188 0.552500
vt 0.627683 0.546875
vt 0.627768 0.552500
vt 0.638933 0.546875
vt 0.639048 0.552500
vt 0.651171 0.546875
vt 0.651250 0.552500
vt 0.676875 0.578125
vt 0.664062 0.578125
vt 0.689077 0.578125
vt 0.700357 0.578125
vt 0.710938 0.578125
vt 0.534018 0.578125
vt 0.523438 0.578125
vt 0.545298 0.578125
vt 0.557500 0.578125
vt 0.570312 0.578125
vt 0.583125 0.578125
vt 0.595327 0.578125
vt 0.606607 0.578125
vt 0.617188 0.578125
vt 0.627768 0.578125
vt 0.639048 0.578125
vt 0.651250 0.578125
vt 0.523438 0.664062
vt 0.526621 0.664062
vt 0.526621 0.673437
vt 0.523438 0.673437
vt 0.529805 0.664062
vt 0.529805 0.673437
vt 0.532989 0.664062
vt 0.532989 0.673437
vt 0.536173 0.664062
vt 0.536173 0.673437
vt 0.611248 0.664062
vt 0.611248 0.673437
vt 0.614432 0.664062
vt 0.614432 0.673437
vt 0.617616 0.664062
vt 0.617616 0.673437
vt 0.620800 0.664062
vt 0.620800 0.673437
vt 0.623984 0.664062
vt 0.623984 0.673437
vt 0.757812 0.664062
vt 0.757812 0.673437
vt 0.760996 0.664062
vt 0.760996 0.673437
vt 0.764180 0.664062
vt 0.764180 0.673437
vt 0.767364 0.664062
vt 0.767364 0.673437
vt 0.770548 0.664062
vt 0.770548 0.673437
vt 0.845623 0.664062
vt 0.845623 0.673437
vt 0.848807 0.664062
vt 0.848807 0.673437
vt 0.851991 0.664062
vt 0.851991 0.673437
vt 0.855175 0.664062
vt 0.855175 0.673437
vt 0.858359 0.664062
vt 0.858359 0.673437
vt 0.992188 0.664062
vt 0.992188 0.673437
vt 0.526621 0.685938
vt 0.523438 0.685938
vt 0.529805 0.685938
vt 0.532989 0.685938
vt 0.536173 0.685938
vt 0.611248 0.685938
vt 0.614432 0.685938
vt 0.617616 0.685938
vt 0.620800 0.685938
vt 0.623984 0.685938
vt 0.757812 0.685938
vt 0.760996 0.685938
vt 0.764180 0.685938
vt 0.767364 0.685938
vt 0.770548 0.685938
vt 0.845623 0.685938
vt 0.848807 0.685938
vt 0.851991 0.685938
vt 0.855175 0.685938
vt 0.858359 0.685938
vt 0.992188 0.685938
vt 0.526621 0.695312
vt 0.523438 0.695312
vt 0.529805 0.695312
vt 0.532989 0.695312
vt 0.536173 0.695312
vt 0.611248 0.695312
vt 0.614432 0.695312
vt 0.617616 0.695312
vt 0.620800 0.695312
vt 0.623984 0.695312
vt 0.757812 0.695312
vt 0.760996 0.695312
vt 0.764180 0.695312
vt 0.767364 0.695312
vt 0.770548 0.695312
vt 0.845623 0.695312
vt 0.848807 0.695312
vt 0.851991 0.695312
vt 0.855175 0.695312
vt 0.858359 0.695312
vt 0.992188 0.695312
vt 0.680488 0.981253
vt 0.675632 0.982219
vt 0.543118 0.982219
vt 0.725762 0.981253
vt 0.863132 0.982219
vt 0.730618 0.982219
vt 0.538262 0.981253
vt 0.867988 0.981253
vt 0.684412 0.978631
vt 0.721838 0.978631
vt 0.534338 0.978631
vt 0.871912 0.978631
vt 0.687034 0.974707
vt 0.719216 0.974707
vt 0.531716 0.974707
vt 0.874534 0.974707
vt 0.688000 0.969850
vt 0.718250 0.969850
vt 0.530750 0.969850
vt 0.875500 0.969850
vt 0.688000 0.733275
vt 0.667188 0.961406
vt 0.718250 0.733275
vt 0.739062 0.961406
vt 0.623828 0.961406
vt 0.782422 0.961406
vt 0.594922 0.961406
vt 0.811328 0.961406
vt 0.551562 0.961406
vt 0.854688 0.961406
vt 0.530750 0.733275
vt 0.875500 0.733275
vt 0.667188 0.863125
vt 0.739062 0.863125
vt 0.623828 0.909375
vt 0.782422 0.909375
vt 0.594922 0.909375
vt 0.811328 0.909375
vt 0.551562 0.863125
vt 0.854688 0.863125
vt 0.635391 0.863125
vt 0.635391 0.909375
vt 0.770859 0.863125
vt 0.770859 0.909375
vt 0.583359 0.909375
vt 0.822891 0.909375
vt 0.583359 0.863125
vt 0.822891 0.863125
vt 0.667188 0.840000
vt 0.739062 0.840000
vt 0.583359 0.840000
vt 0.822891 0.840000
vt 0.551562 0.840000
vt 0.854688 0.840000
vt 0.667188 0.741719
vt 0.739062 0.741719
vt 0.635391 0.840000
vt 0.770859 0.840000
vt 0.635391 0.793750
vt 0.770859 0.793750
vt 0.583359 0.793750
vt 0.822891 0.793750
vt 0.551562 0.741719
vt 0.854688 0.741719
vt 0.623828 0.793750
vt 0.782422 0.793750
vt 0.623828 0.741719
vt 0.594922 0.793750
vt 0.782422 0.741719
vt 0.811328 0.793750
vt 0.594922 0.741719
vt 0.811328 0.741719
vt 0.687034 0.728418
vt 0.719216 0.728418
vt 0.531716 0.728418
vt 0.874534 0.728418
vt 0.684412 0.724494
vt 0.721838 0.724494
vt 0.534338 0.724494
vt 0.871912 0.724494
vt 0.680488 0.721872
vt 0.725762 0.721872
vt 0.538262 0.721872
vt 0.867988 0.721872
vt 0.675632 0.720906
vt 0.730618 0.720906
vt 0.543118 0.720906
vt 0.863132 0.720906
vt 0.523438 0.640625
vt 0.525351 0.640625
vt 0.525351 0.656250
vt 0.523438 0.656250
vt 0.533960 0.640625
vt 0.533960 0.656250
vt 0.541135 0.640625
vt 0.541135 0.656250
vt 0.557398 0.640625
vt 0.557398 0.656250
vt 0.562659 0.640625
vt 0.562659 0.656250
vt 0.570312 0.640625
vt 0.570312 0.656250
vt 0.528699 0.640625
vt 0.528699 0.656250
vt 0.544962 0.640625
vt 0.544962 0.656250
vt 0.552136 0.640625
vt 0.552136 0.656250
vt 0.560746 0.640625
vt 0.560746 0.656250
vt 0.602856 0.484375
vt 0.605156 0.484375
vt 0.605156 0.531250
vt 0.602856 0.531250
vt 0.653950 0.484375
vt 0.653950 0.531250
vt 0.656250 0.484375
vt 0.656250 0.531250
vt 0.523438 0.484375
vt 0.536449 0.484375
vt 0.536449 0.531250
vt 0.523438 0.531250
vt 0.538749 0.484375
vt 0.538749 0.531250
vt 0.587544 0.484375
vt 0.587544 0.531250
vt 0.589844 0.484375
vt 0.589844 0.531250
vt 0.690820 0.494336
vt 0.692500 0.492656
vt 0.707617 0.494336
vt 0.257812 0.445312
vt 0.275000 0.445312
vt 0.275000 0.494492
vt 0.257812 0.494492
vt 0.289062 0.445312
vt 0.289062 0.494492
vt 0.335938 0.445312
vt 0.351562 0.445312
vt 0.351562 0.494492
vt 0.335938 0.494492
vt 0.328125 0.445312
vt 0.314063 0.445312
vt 0.314063 0.494492
vt 0.328125 0.494492
vt 0.296875 0.445312
vt 0.296875 0.494492
vt 0.359375 0.445312
vt 0.367188 0.445312
vt 0.367188 0.494492
vt 0.359375 0.494492
vt 0.275000 0.543671
vt 0.257812 0.543671
vt 0.289062 0.543671
vt 0.351562 0.543671
vt 0.335938 0.543671
vt 0.314063 0.543671
vt 0.328125 0.543671
vt 0.296875 0.543671
vt 0.367188 0.543671
vt 0.359375 0.543671
vt 0.275000 0.592851
vt 0.257812 0.592851
vt 0.289062 0.592851
vt 0.351562 0.592851
vt 0.335938 0.592851
vt 0.314063 0.592851
vt 0.328125 0.592851
vt 0.296875 0.592851
vt 0.367188 0.592851
vt 0.359375 0.592851
vt 0.275000 0.642030
vt 0.257812 0.642030
vt 0.289062 0.642030
vt 0.351562 0.642030
vt 0.335938 0.642030
vt 0.314063 0.642030
vt 0.328125 0.642030
vt 0.296875 0.642030
vt 0.367188 0.642030
vt 0.359375 0.642030
vt 0.275000 0.691210
vt 0.257812 0.691210
vt 0.289062 0.691210
vt 0.351562 0.691210
vt 0.335938 0.691210
vt 0.314063 0.691210
vt 0.328125 0.691210
vt 0.296875 0.691210
vt 0.367188 0.691210
vt 0.359375 0.691210
vt 0.275000 0.740389
vt 0.257812 0.740389
vt 0.289062 0.740389
vt 0.351562 0.740389
vt 0.335938 0.740389
vt 0.314063 0.740389
vt 0.328125 0.740389
vt 0.296875 0.740389
vt 0.367188 0.740389
vt 0.359375 0.740389
vt 0.275000 0.789568
vt 0.257812 0.789568
vt 0.289062 0.789568
vt 0.351562 0.789568
vt 0.335938 0.789568
vt 0.314063 0.789568
vt 0.328125 0.789568
vt 0.296875 0.789568
vt 0.367188 0.789568
vt 0.359375 0.789568
vt 0.275000 0.838748
vt 0.257812 0.838748
vt 0.289062 0.838748
vt 0.351562 0.838748
vt 0.335938 0.838748
vt 0.314063 0.838748
vt 0.328125 0.838748
vt 0.296875 0.838748
vt 0.367188 0.838748
vt 0.359375 0.838748
vt 0.275000 0.887927
vt 0.257812 0.887927
vt 0.289062 0.887927
vt 0.351562 0.887927
vt 0.335938 0.887927
vt 0.314063 0.887927
vt 0.328125 0.887927
vt 0.296875 0.887927
vt 0.367188 0.887927
vt 0.359375 0.887927
vt 0.275000 0.937107
vt 0.257812 0.937107
vt 0.289062 0.937107
vt 0.351562 0.937107
vt 0.335938 0.937107
vt 0.314063 0.937107
vt 0.328125 0.937107
vt 0.296875 0.937107
vt 0.367188 0.937107
vt 0.359375 0.937107
vt 0.275000 0.964647
vt 0.257812 0.964647
vt 0.289062 0.964647
vt 0.351562 0.964647
vt 0.335938 0.964647
vt 0.314063 0.964647
vt 0.328125 0.964647
vt 0.296875 0.964647
vt 0.367188 0.964647
vt 0.359375 0.964647
vt 0.266406 0.992188
vt 0.282031 0.992188
vt 0.343750 0.992188
vt 0.321094 0.992188
vt 0.305469 0.992188
vt 0.363281 0.992188
vt 0.745427 0.604405
vt 0.746981 0.593750
vt 0.706144 0.593750
vt 0.745427 0.583095
vt 0.707698 0.583095
vt 0.741001 0.574062
vt 0.734376 0.568026
vt 0.712124 0.574062
vt 0.726562 0.565906
vt 0.718749 0.568026
vt 0.707698 0.604405
vt 0.712124 0.613438
vt 0.726562 0.621594
vt 0.705938 0.492656
vt 0.707617 0.544727
vt 0.690820 0.544727
vt 0.705938 0.546406
vt 0.692500 0.546406
s 0
f 1/1/1 2/2/1 18/3/1 17/4/1
f 2/2/2 3/5/2 19/6/2 18/3/2
f 3/5/3 4/7/3 20/8/3 19/6/3
f 4/7/4 5/9/4 21/10/4 20/8/4
f 5/11/5 6/12/5 22/13/5 21/14/5
f 6/12/6 7/15/6 23/16/6 22/13/6
f 7/15/7 8/17/7 24/18/7 23/16/7
f 8/17/8 9/19/8 25/20/8 24/18/8
f 9/19/9 10/21/9 26/22/9 25/20/9
f 10/21/10 11/23/10 27/24/10 26/22/10
f 11/23/11 12/25/11 28/26/11 27/24/11
f 12/25/12 13/27/12 29/28/12 28/26/12
f 13/27/13 14/29/13 30/30/13 29/28/13
f 14/29/14 15/31/14 31/32/14 30/30/14
f 15/31/15 16/33/15 32/34/15 31/32/15
f 16/33/16 1/1/16 17/4/16 32/34/16
f 17/4/17 18/3/17 34/35/17 33/36/17
f 18/3/18 19/6/18 35/37/18 34/35/18
f 19/6/19 20/8/19 36/38/19 35/37/19
f 20/8/20 21/10/20 37/39/20 36/38/20
f 21/14/21 22/13/21 38/40/21 37/41/21
f 22/13/22 23/16/22 39/42/22 38/40/22
f 23/16/23 24/18/23 40/43/23 39/42/23
f 24/18/24 25/20/24 41/44/24 40/43/24
f 25/20/25 26/22/25 42/45/25 41/44/25
f 26/22/26 27/24/26 43/46/26 42/45/26
f 27/24/27 28/26/27 44/47/27 43/46/27
f 28/26/28 29/28/28 45/48/28 44/47/28
f 29/28/29 30/30/29 46/49/29 45/48/29
f 30/30/30 31/32/30 47/50/30 46/49/30
f 31/32/31 32/34/31 48/51/31 47/50/31
f 32/34/32 17/4/32 33/36/32 48/51/32
f 4/52/33 3/53/33 6/54/33
s 1
f 49/55/34 50/56/35 62/57/36 61/58/37
f 50/56/35 51/59/38 63/60/39 62/57/36
f 51/59/38 52/61/40 64/62/41 63/60/39
f 52/63/40 53/64/42 65/65/43 64/66/41
f 53/64/42 54/67/44 66/68/45 65/65/43
f 54/67/44 55/69/46 67/70/47 66/68/45
f 55/69/46 56/71/48 68/72/49 67/70/47
f 56/71/48 57/73/50 69/74/51 68/72/49
f 57/73/50 58/75/52 70/76/53 69/74/51
f 58/75/52 59/77/54 71/78/55 70/76/53
f 59/77/54 60/79/56 72/80/57 71/78/55
f 60/79/56 49/55/34 61/58/37 72/80/57
f 61/58/37 62/57/36 74/81/58 73/82/37
f 62/57/36 63/60/39 75/83/59 74/81/58
f 63/60/39 64/62/41 76/84/41 75/83/59
f 64/66/41 65/65/43 77/85/60 76/86/41
f 65/65/43 66/68/45 78/87/61 77/85/60
f 66/68/45 67/70/47 79/88/47 78/87/61
f 67/70/47 68/72/49 80/89/62 79/88/47
f 68/72/49 69/74/51 81/90/63 80/89/62
f 69/74/51 70/76/53 82/91/53 81/90/63
f 70/76/53 71/78/55 83/92/64 82/91/53
f 71/78/55 72/80/57 84/93/65 83/92/64
f 72/80/57 61/58/37 73/82/37 84/93/65
f 73/82/37 74/81/58 86/94/36 85/95/37
f 74/81/58 75/83/59 87/96/39 86/94/36
f 75/83/59 76/84/41 88/97/41 87/96/39
f 76/86/41 77/85/60 89/98/43 88/99/41
f 77/85/60 78/87/61 90/100/45 89/98/43
f 78/87/61 79/88/47 91/101/47 90/100/45
f 79/88/47 80/89/62 92/102/49 91/101/47
f 80/89/62 81/90/63 93/103/51 92/102/49
f 81/90/63 82/91/53 94/104/53 93/103/51
f 82/91/53 83/92/64 95/105/55 94/104/53
f 83/92/64 84/93/65 96/106/57 95/105/55
f 84/93/65 73/82/37 85/95/37 96/106/57
f 85/95/37 86/94/36 98/107/58 97/108/37
f 86/94/36 87/96/39 99/109/59 98/107/58
f 87/96/39 88/97/41 100/110/41 99/109/59
f 88/99/41 89/98/43 101/111/60 100/112/41
f 89/98/43 90/100/45 102/113/61 101/111/60
f 90/100/45 91/101/47 103/114/47 102/113/61
f 91/101/47 92/102/49 104/115/62 103/114/47
f 92/102/49 93/103/51 105/116/63 104/115/62
f 93/103/51 94/104/53 106/117/53 105/116/63
f 94/104/53 95/105/55 107/118/64 106/117/53
f 95/105/55 96/106/57 108/119/65 107/118/64
f 96/106/57 85/95/37 97/108/37 108/119/65
f 97/108/37 98/107/58 110/120/36 109/121/37
f 98/107/58 99/109/59 111/122/39 110/120/36
f 99/109/59 100/110/41 112/123/41 111/122/39
f 100/112/41 101/111/60 113/124/43 112/125/41
f 101/111/60 102/113/61 114/126/45 113/124/43
f 102/113/61 103/114/47 115/127/47 114/126/45
f 103/114/47 104/115/62 116/128/49 115/127/47
f 104/115/62 105/116/63 117/129/51 116/128/49
f 105/116/63 106/117/53 118/130/53 117/129/51
f 106/117/53 107/118/64 119/131/55 118/130/53
f 107/118/64 108/119/65 120/132/57 119/131/55
f 108/119/65 97/108/37 109/121/37 120/132/57
f 109/121/37 110/120/36 122/133/58 121/134/37
f 110/120/36 111/122/39 123/135/59 122/133/58
f 111/122/39 112/123/41 124/136/41 123/135/59
f 112/125/41 113/124/43 125/137/60 124/138/41
f 113/124/43 114/126/45 126/139/61 125/137/60
f 114/126/45 115/127/47 127/140/47 126/139/61
f 115/127/47 116/128/49 128/141/62 127/140/47
f 116/128/49 117/129/51 129/142/63 128/141/62
f 117/129/51 118/130/53 130/143/53 129/142/63
f 118/130/53 119/131/55 131/144/64 130/143/53
f 119/131/55 120/132/57 132/145/65 131/144/64
f 120/132/57 109/121/37 121/134/37 132/145/65
f 121/134/37 122/133/58 134/146/66 133/147/67
f 122/133/58 123/135/59 135/148/68 134/146/66
f 123/135/59 124/136/41 136/149/69 135/148/68
f 124/138/41 125/137/60 137/150/70 136/151/69
f 125/137/60 126/139/61 138/152/71 137/150/70
f 126/139/61 127/140/47 139/153/72 138/152/71
f 127/140/47 128/141/62 140/154/73 139/153/72
f 128/141/62 129/142/63 141/155/74 140/154/73
f 129/142/63 130/143/53 142/156/75 141/155/74
f 130/143/53 131/144/64 143/157/76 142/156/75
f 131/144/64 132/145/65 144/158/77 143/157/76
f 132/145/65 121/134/37 133/147/67 144/158/77
f 133/147/67 134/146/66 146/159/78 145/160/79
f 134/146/66 135/148/68 147/161/80 146/159/78
f 135/148/68 136/149/69 148/162/81 147/161/80
f 136/151/69 137/150/70 149/163/82 148/164/81
f 137/150/70 138/152/71 150/165/83 149/163/82
f 138/152/71 139/153/72 151/166/84 150/165/83
f 139/153/72 140/154/73 152/167/85 151/166/84
f 140/154/73 141/155/74 153/168/86 152/167/85
f 141/155/74 142/156/75 154/169/87 153/168/86
f 142/156/75 143/157/76 155/170/88 154/169/87
f 143/157/76 144/158/77 156/171/89 155/170/88
f 144/158/77 133/147/67 145/160/79 156/171/89
f 145/160/79 146/159/78 158/172/90 157/173/91
f 146/159/78 147/161/80 159/174/92 158/172/90
f 147/161/80 148/162/81 160/175/93 159/174/92
f 148/164/81 149/163/82 161/176/94 160/177/93
f 149/163/82 150/165/83 162/178/95 161/176/94
f 150/165/83 151/166/84 163/179/96 162/178/95
f 151/166/84 152/167/85 164/180/97 163/179/96
f 152/167/85 153/168/86 165/181/98 164/180/97
f 153/168/86 154/169/87 166/182/99 165/181/98
f 154/169/87 155/170/88 167/183/100 166/182/99
f 155/170/88 156/171/89 168/184/101 167/183/100
f 156/171/89 145/160/79 157/173/91 168/184/101
f 157/173/91 158/172/90 170/185/102 169/186/103
f 158/172/90 159/174/92 171/187/104 170/185/102
f 159/174/92 160/175/93 172/188/105 171/187/104
f 160/177/93 161/176/94 173/189/106 172/190/105
f 161/176/94 162/178/95 174/191/107 173/189/106
f 162/178/95 163/179/96 175/192/108 174/191/107
f 163/179/96 164/180/97 176/193/109 175/192/108
f 164/180/97 165/181/98 177/194/110 176/193/109
f 165/181/98 166/182/99 178/195/111 177/194/110
f 166/182/99 167/183/100 179/196/112 178/195/111
f 167/183/100 168/184/101 180/197/113 179/196/112
f 168/184/101 157/173/91 169/186/103 180/197/113
f 169/186/103 170/185/102 182/198/114 181/199/115
f 170/185/102 171/187/104 183/200/116 182/198/114
f 171/187/104 172/188/105 184/201/117 183/200/116
f 172/190/105 173/189/106 185/202/118 184/203/117
f 173/189/106 174/191/107 186/204/119 185/202/118
f 174/191/107 175/192/108 187/205/120 186/204/119
f 175/192/108 176/193/109 188/206/121 187/205/120
f 176/193/109 177/194/110 189/207/122 188/206/121
f 177/194/110 178/195/111 190/208/123 189/207/122
f 178/195/111 179/196/112 191/209/124 190/208/123
f 179/196/112 180/197/113 192/210/125 191/209/124
f 180/197/113 169/186/103 181/199/115 192/210/125
f 181/199/115 182/198/114 194/211/126 193/212/127
f 182/198/114 183/200/116 195/213/128 194/211/126
f 183/200/116 184/201/117 196/214/129 195/213/128
f 184/203/117 185/202/118 197/215/130 196/216/129
f 185/202/118 186/204/119 198/217/131 197/215/130
f 186/204/119 187/205/120 199/218/132 198/217/131
f 187/205/120 188/206/121 200/219/133 199/218/132
f 188/206/121 189/207/122 201/220/134 200/219/133
f 189/207/122 190/208/123 202/221/135 201/220/134
f 190/208/123 191/209/124 203/222/136 202/221/135
f 191/209/124 192/210/125 204/223/137 203/222/136
f 192/210/125 181/199/115 193/212/127 204/223/137
f 193/212/127 194/211/126 206/224/138 205/225/139
f 194/211/126 195/213/128 207/226/140 206/224/138
f 195/213/128 196/214/129 208/227/141 207/226/140
f 196/216/129 197/215/130 209/228/142 208/229/141
f 197/215/130 198/217/131 210/230/143 209/228/142
f 198/217/131 199/218/132 211/231/144 210/230/143
f 199/218/132 200/219/133 212/232/145 211/231/144
f 200/219/133 201/220/134 213/233/146 212/232/145
f 201/220/134 202/221/135 214/234/147 213/233/146
f 202/221/135 203/222/136 215/235/148 214/234/147
f 203/222/136 204/223/137 216/236/149 215/235/148
f 204/223/137 193/212/127 205/225/139 216/236/149
f 205/225/139 206/224/138 218/237/150 217/238/151
f 206/224/138 207/226/140 219/239/152 218/237/150
f 207/226/140 208/227/141 220/240/153 219/239/152
f 208/229/141 209/228/142 221/241/154 220/242/153
f 209/228/142 210/230/143 222/243/155 221/241/154
f 210/230/143 211/231/144 223/244/156 222/243/155
f 211/231/144 212/232/145 224/245/157 223/244/156
f 212/232/145 213/233/146 225/246/158 224/245/157
f 213/233/146 214/234/147 226/247/159 225/246/158
f 214/234/147 215/235/148 227/248/160 226/247/159
f 215/235/148 216/236/149 228/249/161 227/248/160
f 216/236/149 205/225/139 217/238/151 228/249/161
f 217/238/151 218/237/150 230/250/162 229/251/163
f 218/237/150 219/239/152 231/252/164 230/250/162
f 219/239/152 220/240/153 232/253/165 231/252/164
f 220/242/153 221/241/154 233/254/166 232/255/165
f 221/241/154 222/243/155 234/256/167 233/254/166
f 222/243/155 223/244/156 235/257/168 234/256/167
f 223/244/156 224/245/157 236/258/169 235/257/168
f 224/245/157 225/246/158 237/259/170 236/258/169
f 225/246/158 226/247/159 238/260/171 237/259/170
f 226/247/159 227/248/160 239/261/172 238/260/171
f 227/248/160 228/249/161 240/262/173 239/261/172
f 228/249/161 217/238/151 229/251/163 240/262/173
f 229/251/163 230/250/162 242/263/174 241/264/175
f 230/250/162 231/252/164 243/265/176 242/263/174
f 231/252/164 232/253/165 244/266/177 243/265/176
f 232/255/165 233/254/166 245/267/178 244/268/177
f 233/254/166 234/256/167 246/269/179 245/267/178
f 234/256/167 235/257/168 247/270/180 246/269/179
f 235/257/168 236/258/169 248/271/181 247/270/180
f 236/258/169 237/259/170 249/272/182 248/271/181
f 237/259/170 238/260/171 250/273/183 249/272/182
f 238/260/171 239/261/172 251/274/184 250/273/183
f 239/261/172 240/262/173 252/275/185 251/274/184
f 240/262/173 229/251/163 241/264/175 252/275/185
f 241/264/175 242/263/174 254/276/36 253/277/37
f 242/263/174 243/265/176 255/278/39 254/276/36
f 243/265/176 244/266/177 256/279/41 255/278/39
f 244/268/177 245/267/178 257/280/43 256/281/41
f 245/267/178 246/269/179 258/282/45 257/280/43
f 246/269/179 247/270/180 259/283/47 258/282/45
f 247/270/180 248/271/181 260/284/49 259/283/47
f 248/271/181 249/272/182 261/285/51 260/284/49
f 249/272/182 250/273/183 262/286/53 261/285/51
f 250/273/183 251/274/184 263/287/55 262/286/53
f 251/274/184 252/275/185 264/288/57 263/287/55
f 252/275/185 241/264/175 253/277/37 264/288/57
f 253/277/37 254/276/36 266/289/58 265/290/37
f 254/276/36 255/278/39 267/291/59 266/289/58
f 255/278/39 256/279/41 268/292/41 267/291/59
f 256/281/41 257/280/43 269/293/60 268/294/41
f 257/280/43 258/282/45 270/295/61 269/293/60
f 258/282/45 259/283/47 271/296/47 270/295/61
f 259/283/47 260/284/49 272/297/62 271/296/47
f 260/284/49 261/285/51 273/298/63 272/297/62
f 261/285/51 262/286/53 274/299/53 273/298/63
f 262/286/53 263/287/55 275/300/64 274/299/53
f 263/287/55 264/288/57 276/301/65 275/300/64
f 264/288/57 253/277/37 265/290/37 276/301/65
f 265/290/37 266/289/58 278/302/36 277/303/37
f 266/289/58 267/291/59 279/304/39 278/302/36
f 267/291/59 268/292/41 280/305/41 279/304/39
f 268/294/41 269/293/60 281/306/43 280/307/41
f 269/293/60 270/295/61 282/308/45 281/306/43
f 270/295/61 271/296/47 283/309/47 282/308/45
f 271/296/47 272/297/62 284/310/49 283/309/47
f 272/297/62 273/298/63 285/311/51 284/310/49
f 273/298/63 274/299/53 286/312/53 285/311/51
f 274/299/53 275/300/64 287/313/55 286/312/53
f 275/300/64 276/301/65 288/314/57 287/313/55
f 276/301/65 265/290/37 277/303/37 288/314/57
f 277/303/37 278/302/36 290/315/58 289/316/37
f 278/302/36 279/304/39 291/317/59 290/315/58
f 279/304/39 280/305/41 292/318/41 291/317/59
f 280/307/41 281/306/43 293/319/60 292/320/41
f 281/306/43 282/308/45 294/321/61 293/319/60
f 282/308/45 283/309/47 295/322/47 294/321/61
f 283/309/47 284/310/49 296/323/62 295/322/47
f 284/310/49 285/311/51 297/324/63 296/323/62
f 285/311/51 286/312/53 298/325/53 297/324/63
f 286/312/53 287/313/55 299/326/64 298/325/53
f 287/313/55 288/314/57 300/327/65 299/326/64
f 288/314/57 277/303/37 289/316/37 300/327/65
f 289/316/37 290/315/58 302/328/36 301/329/37
f 290/315/58 291/317/59 303/330/39 302/328/36
f 291/317/59 292/318/41 304/331/41 303/330/39
f 292/320/41 293/319/60 305/332/43 304/333/41
f 293/319/60 294/321/61 306/334/45 305/332/43
f 294/321/61 295/322/47 307/335/47 306/334/45
f 295/322/47 296/323/62 308/336/49 307/335/47
f 296/323/62 297/324/63 309/337/51 308/336/49
f 297/324/63 298/325/53 310/338/53 309/337/51
f 298/325/53 299/326/64 311/339/55 310/338/53
f 299/326/64 300/327/65 312/340/57 311/339/55
f 300/327/65 289/316/37 301/329/37 312/340/57
f 301/329/37 302/328/36 314/341/186 313/342/187
f 302/328/36 303/330/39 315/343/188 314/341/186
f 303/330/39 304/331/41 316/344/189 315/343/188
f 304/333/41 305/332/43 317/345/190 316/346/189
f 305/332/43 306/334/45 318/347/191 317/345/190
f 306/334/45 307/335/47 319/348/192 318/347/191
f 307/335/47 308/336/49 320/349/193 319/348/192
f 308/336/49 309/337/51 321/350/194 320/349/193
f 309/337/51 310/338/53 322/351/195 321/350/194
f 310/338/53 311/339/55 323/352/196 322/351/195
f 311/339/55 312/340/57 324/353/197 323/352/196
f 312/340/57 301/329/37 313/342/187 324/353/197
f 313/342/187 314/341/186 326/354/198 325/355/37
f 314/341/186 315/343/188 327/356/199 326/354/198
f 315/343/188 316/344/189 328/357/41 327/356/199
f 316/346/189 317/345/190 329/358/200 328/359/41
f 317/345/190 318/347/191 330/360/201 329/358/200
f 318/347/191 319/348/192 331/361/47 330/360/201
f 319/348/192 320/349/193 332/362/202 331/361/47
f 320/349/193 321/350/194 333/363/203 332/362/202
f 321/350/194 322/351/195 334/364/53 333/363/203
f 322/351/195 323/352/196 335/365/204 334/364/53
f 323/352/196 324/353/197 336/366/205 335/365/204
f 324/353/197 313/342/187 325/355/37 336/366/205
s 0
f 51/75/33 50/75/33 54/75/33
f 337/367/206 338/368/206 354/369/206 353/370/206
f 338/368/207 339/371/207 355/372/207 354/369/207
f 339/371/208 340/373/208 356/374/208 355/372/208
f 340/373/209 341/375/209 357/376/209 356/374/209
f 341/377/210 342/378/210 358/379/210 357/380/210
f 342/378/211 343/381/211 359/382/211 358/379/211
f 343/381/212 344/383/212 360/384/212 359/382/212
f 344/383/213 345/385/213 361/386/213 360/384/213
f 345/385/214 346/387/214 362/388/214 361/386/214
f 346/387/215 347/389/215 363/390/215 362/388/215
f 347/389/216 348/391/216 364/392/216 363/390/216
f 348/391/217 349/393/217 365/394/217 364/392/217
f 349/393/218 350/395/218 366/396/218 365/394/218
f 350/395/219 351/397/219 367/398/219 366/396/219
f 351/397/220 352/399/220 368/400/220 367/398/220
f 352/399/221 337/367/221 353/370/221 368/400/221
f 353/370/222 354/369/222 370/401/222 369/402/222
f 354/369/223 355/372/223 371/403/223 370/401/223
f 355/372/224 356/374/224 372/404/224 371/403/224
f 356/374/225 357/376/225 373/405/225 372/404/225
f 357/380/226 358/379/226 374/406/226 373/407/226
f 358/379/227 359/382/227 375/408/227 374/406/227
f 359/382/228 360/384/228 376/409/228 375/408/228
f 360/384/229 361/386/229 377/410/229 376/409/229
f 361/386/230 362/388/230 378/411/230 377/410/230
f 362/388/231 363/390/231 379/412/231 378/411/231
f 363/390/232 364/392/232 380/413/232 379/412/232
f 364/392/233 365/394/233 381/414/233 380/413/233
f 365/394/234 366/396/234 382/415/234 381/414/234
f 366/396/235 367/398/235 383/416/235 382/415/235
f 367/398/236 368/400/236 384/417/236 383/416/236
f 368/400/237 353/370/237 369/402/237 384/417/237
f 385/418/238 386/419/238 406/420/238 405/421/238
f 386/419/239 387/422/239 407/423/239 406/420/239
f 387/422/240 388/424/240 408/425/240 407/423/240
f 388/424/241 389/426/241 409/427/241 408/425/241
f 389/426/242 390/428/242 410/429/242 409/427/242
f 390/428/243 391/430/243 411/431/243 410/429/243
f 391/430/244 392/432/244 412/433/244 411/431/244
f 392/432/245 393/434/245 413/435/245 412/433/245
f 393/434/246 394/436/246 414/437/246 413/435/246
f 394/436/247 395/438/247 415/439/247 414/437/247
f 395/438/248 396/440/248 416/441/248 415/439/248
f 396/440/249 397/442/249 417/443/249 416/441/249
f 397/442/250 398/444/250 418/445/250 417/443/250
f 398/444/251 399/446/251 419/447/251 418/445/251
f 399/446/252 400/448/252 420/449/252 419/447/252
f 400/448/253 401/450/253 421/451/253 420/449/253
f 401/450/254 402/452/254 422/453/254 421/451/254
f 402/452/255 403/454/255 423/455/255 422/453/255
f 403/454/256 404/456/256 424/457/256 423/455/256
f 404/456/257 385/458/257 405/459/257 424/457/257
f 405/421/258 406/420/258 426/460/258 425/461/258
f 406/420/259 407/423/259 427/462/259 426/460/259
f 407/423/260 408/425/260 428/463/260 427/462/260
f 408/425/261 409/427/261 429/464/261 428/463/261
f 409/427/41 410/429/41 430/465/41 429/464/41
f 410/429/262 411/431/262 431/466/262 430/465/262
f 411/431/263 412/433/263 432/467/263 431/466/263
f 412/433/264 413/435/264 433/468/264 432/467/264
f 413/435/265 414/437/265 434/469/265 433/468/265
f 414/437/47 415/439/47 435/470/47 434/469/47
f 415/439/266 416/441/266 436/471/266 435/470/266
f 416/441/267 417/443/267 437/472/267 436/471/267
f 417/443/268 418/445/268 438/473/268 437/472/268
f 418/445/269 419/447/269 439/474/269 438/473/269
f 419/447/53 420/449/53 440/475/53 439/474/53
f 420/449/270 421/451/270 441/476/270 440/475/270
f 421/451/271 422/453/271 442/477/271 441/476/271
f 422/453/272 423/455/272 443/478/272 442/477/272
f 423/455/273 424/457/273 444/479/273 443/478/273
f 424/457/37 405/459/37 425/480/37 444/479/37
f 425/461/274 426/460/274 446/481/274 445/482/274
f 426/460/275 427/462/275 447/483/275 446/481/275
f 427/462/276 428/463/276 448/484/276 447/483/276
f 428/463/277 429/464/277 449/485/277 448/484/277
f 429/464/278 430/465/278 450/486/278 449/485/278
f 430/465/279 431/466/279 451/487/279 450/486/279
f 431/466/280 432/467/280 452/488/280 451/487/280
f 432/467/281 433/468/281 453/489/281 452/488/281
f 433/468/282 434/469/282 454/490/282 453/489/282
f 434/469/283 435/470/283 455/491/283 454/490/283
f 435/470/284 436/471/284 456/492/284 455/491/284
f 436/471/285 437/472/285 457/493/285 456/492/285
f 437/472/286 438/473/286 458/494/286 457/493/286
f 438/473/287 439/474/287 459/495/287 458/494/287
f 439/474/288 440/475/288 460/496/288 459/495/288
f 440/475/289 441/476/289 461/497/289 460/496/289
f 441/476/290 442/477/290 462/498/290 461/497/290
f 442/477/291 443/478/291 463/499/291 462/498/291
f 443/478/292 444/479/292 464/500/292 463/499/292
f 444/479/293 425/480/293 445/501/293 464/500/293
f 448/502/294 449/503/294 450/504/294
f 388/505/33 390/506/33 389/507/33
f 448/502/294 450/504/294 451/508/294
f 388/505/33 391/509/33 390/506/33
f 447/510/294 448/502/294 451/508/294
f 387/511/33 391/509/33 388/505/33
f 447/510/294 451/508/294 452/512/294
f 387/511/33 392/513/33 391/509/33
f 446/514/294 447/510/294 452/512/294
f 386/515/33 392/513/33 387/511/33
f 446/514/294 452/512/294 453/516/294
f 386/515/33 393/517/33 392/513/33
f 445/518/294 446/514/294 453/516/294
f 385/519/33 393/517/33 386/515/33
f 445/518/294 453/516/294 454/520/294
f 385/519/33 394/521/33 393/517/33
f 464/522/294 445/518/294 510/523/294
f 404/524/33 486/525/33 385/519/33
f 510/523/294 445/518/294 454/520/294
f 486/525/33 394/521/33 385/519/33
f 510/523/294 454/520/294 509/526/294
f 486/525/33 485/527/33 394/521/33
f 509/526/294 454/520/294 498/528/294
f 485/527/33 474/529/33 394/521/33
f 498/528/294 454/520/294 497/530/294
f 474/529/33 473/531/33 394/521/33
f 497/530/294 454/520/294 455/532/294
f 473/531/33 395/533/33 394/521/33
f 464/522/294 510/523/294 511/534/294
f 404/524/33 487/535/33 486/525/33
f 508/536/294 509/526/294 498/528/294
f 484/537/33 474/529/33 485/527/33
f 508/536/294 498/528/294 499/538/294
f 484/537/33 475/539/33 474/529/33
f 496/540/294 497/530/294 455/532/294
f 472/541/33 395/533/33 473/531/33
f 512/542/294 507/543/294 508/536/294
f 488/544/33 484/537/33 483/545/33
f 512/542/294 508/536/294 499/538/294
f 488/544/33 475/539/33 484/537/33
f 512/542/294 499/538/294 500/546/294
f 488/544/33 476/547/33 475/539/33
f 512/542/294 500/546/294 495/548/294
f 488/544/33 471/549/33 476/547/33
f 464/522/294 511/534/294 502/550/294
f 404/524/33 478/551/33 487/535/33
f 502/550/294 511/534/294 512/542/294
f 478/551/33 488/544/33 487/535/33
f 502/550/294 512/542/294 495/548/294
f 478/551/33 471/549/33 488/544/33
f 502/550/294 495/548/294 496/540/294
f 478/551/33 472/541/33 471/549/33
f 502/550/294 496/540/294 494/552/294
f 478/551/33 470/553/33 472/541/33
f 494/552/294 496/540/294 493/554/294
f 470/553/33 469/555/33 472/541/33
f 493/554/294 496/540/294 455/532/294
f 469/555/33 395/533/33 472/541/33
f 464/522/294 502/550/294 503/556/294
f 404/524/33 479/557/33 478/551/33
f 501/558/294 502/550/294 494/552/294
f 477/559/294 470/553/294 478/551/294
f 506/560/294 501/558/294 494/552/294
f 482/561/33 470/553/33 477/559/33
f 506/560/294 494/552/294 489/562/294
f 482/561/33 465/563/33 470/553/33
f 492/564/294 493/554/294 455/532/294
f 468/565/33 395/533/33 469/555/33
f 505/566/294 506/560/294 489/562/294
f 481/567/294 465/563/294 482/561/294
f 504/568/294 505/566/294 490/569/294
f 480/570/33 466/571/33 481/567/33
f 490/569/294 505/566/294 489/562/294
f 466/571/294 465/563/294 481/567/294
f 504/568/294 490/569/294 491/572/294
f 480/570/33 467/573/33 466/571/33
f 464/522/294 503/556/294 504/568/294
f 404/524/33 480/570/33 479/557/33
f 464/522/294 504/568/294 491/572/294
f 404/524/33 467/573/33 480/570/33
f 464/522/294 491/572/294 492/564/294
f 404/524/33 468/565/33 467/573/33
f 464/522/294 492/564/294 455/532/294
f 404/524/33 395/533/33 468/565/33
f 463/574/294 464/522/294 455/532/294
f 403/575/33 395/533/33 404/524/33
f 463/574/294 455/532/294 456/576/294
f 403/575/33 396/577/33 395/533/33
f 462/578/294 463/574/294 456/576/294
f 402/579/33 396/577/33 403/575/33
f 462/578/294 456/576/294 457/580/294
f 402/579/33 397/581/33 396/577/33
f 461/582/294 462/578/294 457/580/294
f 401/583/33 397/581/33 402/579/33
f 461/582/294 457/580/294 458/584/294
f 401/583/33 398/585/33 397/581/33
f 460/586/294 461/582/294 458/584/294
f 400/587/33 398/585/33 401/583/33
f 460/586/294 458/584/294 459/588/294
f 400/587/33 399/589/33 398/585/33
f 465/590/53 466/591/53 490/592/53 489/593/53
f 466/591/47 467/594/47 491/595/47 490/592/47
f 467/594/41 468/596/41 492/597/41 491/595/41
f 468/596/37 469/598/37 493/599/37 492/597/37
f 469/598/53 470/600/53 494/601/53 493/599/53
f 470/600/47 465/602/47 489/603/47 494/601/47
f 471/590/41 472/604/41 496/605/41 495/593/41
f 472/604/37 473/606/37 497/607/37 496/605/37
f 473/606/53 474/608/53 498/609/53 497/607/53
f 474/608/47 475/610/47 499/611/47 498/609/47
f 475/610/41 476/600/41 500/601/41 499/611/41
f 476/600/47 471/602/47 495/603/47 500/601/47
f 477/590/53 478/604/53 502/605/53 501/593/53
f 478/604/47 479/606/47 503/607/47 502/605/47
f 479/606/41 480/608/41 504/609/41 503/607/41
f 480/608/37 481/610/37 505/611/37 504/609/37
f 481/610/53 482/600/53 506/601/53 505/611/53
f 482/600/37 477/602/37 501/603/37 506/601/37
f 483/590/41 484/591/41 508/592/41 507/593/41
f 484/591/37 485/594/37 509/595/37 508/592/37
f 485/594/53 486/596/53 510/597/53 509/595/53
f 486/596/47 487/598/47 511/599/47 510/597/47
f 487/598/41 488/600/41 512/601/41 511/599/41
f 488/600/37 483/602/37 507/603/37 512/601/37
f 513/612/295 514/613/295 522/614/295 521/615/295
f 514/613/37 515/616/37 523/617/37 522/614/37
f 515/616/296 516/618/296 524/619/296 523/617/296
f 516/620/41 517/621/41 525/622/41 524/623/41
f 517/621/297 518/624/297 526/625/297 525/622/297
f 518/624/47 519/626/47 527/627/47 526/625/47
f 519/626/298 520/628/298 528/629/298 527/627/298
f 520/628/53 513/612/53 521/615/53 528/629/53
f 527/630/294 528/631/294 522/632/294
f 530/633/299 531/634/299 537/635/299 536/636/299
f 531/634/300 532/637/300 538/638/300 537/635/300
f 532/639/301 533/640/301 539/641/301 538/642/301
f 533/643/302 534/644/302 540/645/302 539/646/302
f 534/644/303 535/647/303 541/648/303 540/645/303
f 535/649/304 530/650/304 536/651/304 541/652/304
f 536/636/305 537/635/305 543/653/305 542/654/305
f 537/635/306 538/638/306 544/655/306 543/653/306
f 538/642/307 539/641/307 545/656/307 544/657/307
f 539/646/308 540/645/308 546/658/308 545/659/308
f 540/645/309 541/648/309 547/660/309 546/658/309
f 541/652/310 536/651/310 542/661/310 547/662/310
f 542/654/311 543/653/311 549/663/311 548/664/311
f 543/653/312 544/655/312 550/665/312 549/663/312
f 544/657/313 545/656/313 551/666/313 550/667/313
f 545/659/314 546/658/314 552/668/314 551/669/314
f 546/658/315 547/660/315 553/670/315 552/668/315
f 547/662/316 542/661/316 548/671/316 553/672/316
f 548/664/317 549/663/317 555/673/317 554/674/317
f 549/663/318 550/665/318 556/675/318 555/673/318
f 550/667/319 551/666/319 557/676/319 556/677/319
f 551/669/320 552/668/320 558/678/320 557/679/320
f 552/668/321 553/670/321 559/680/321 558/678/321
f 553/672/322 548/671/322 554/681/322 559/682/322
f 554/674/323 555/673/323 561/683/323 560/684/323
f 555/673/324 556/675/324 562/685/324 561/683/324
f 556/677/325 557/676/325 563/686/325 562/687/325
f 557/679/326 558/678/326 564/688/326 563/689/326
f 558/678/327 559/680/327 565/690/327 564/688/327
f 559/682/328 554/681/328 560/691/328 565/692/328
f 560/684/329 561/683/329 567/693/329 566/694/329
f 561/683/324 562/685/324 568/695/324 567/693/324
f 562/687/330 563/686/330 569/696/330 568/697/330
f 563/689/326 564/688/326 570/698/326 569/699/326
f 564/688/331 565/690/331 571/700/331 570/698/331
f 565/692/332 560/691/332 566/701/332 571/702/332
f 566/694/333 567/693/333 573/703/333 572/704/333
f 567/693/334 568/695/334 574/705/334 573/703/334
f 568/697/335 569/696/335 575/706/335 574/707/335
f 569/699/336 570/698/336 576/708/336 575/709/336
f 570/698/337 571/700/337 577/710/337 576/708/337
f 571/702/338 566/701/338 572/711/338 577/712/338
f 572/704/339 573/703/339 579/713/339 578/714/339
f 573/703/340 574/705/340 580/715/340 579/713/340
f 574/707/341 575/706/341 581/716/341 580/717/341
f 575/709/342 576/708/342 582/718/342 581/719/342
f 576/708/343 577/710/343 583/720/343 582/718/343
f 577/712/344 572/711/344 578/721/344 583/722/344
f 578/714/345 579/713/345 585/723/345 584/724/345
f 579/713/346 580/715/346 586/725/346 585/723/346
f 580/717/347 581/716/347 587/726/347 586/727/347
f 581/719/348 582/718/348 588/728/348 587/729/348
f 582/718/349 583/720/349 589/730/349 588/728/349
f 583/722/350 578/721/350 584/731/350 589/732/350
f 584/724/351 585/723/351 591/733/351 590/734/351
f 585/723/352 586/725/352 592/735/352 591/733/352
f 586/727/353 587/726/353 593/736/353 592/737/353
f 587/729/354 588/728/354 594/738/354 593/739/354
f 588/728/355 589/730/355 595/740/355 594/738/355
f 589/732/356 584/731/356 590/741/356 595/742/356
f 590/734/357 591/733/357 597/743/357 596/744/357
f 591/733/358 592/735/358 598/745/358 597/743/358
f 592/737/359 593/736/359 599/746/359 598/747/359
f 593/739/360 594/738/360 600/748/360 599/749/360
f 594/738/361 595/740/361 601/750/361 600/748/361
f 595/742/362 590/741/362 596/751/362 601/752/362
f 596/744/363 597/743/363 529/753/363
f 597/743/364 598/745/364 529/754/364
f 598/747/365 599/746/365 529/755/365
f 599/749/366 600/748/366 529/756/366
f 600/748/367 601/750/367 529/757/367
f 601/752/368 596/751/368 529/758/368
f 2/759/33 1/760/33 9/761/33
f 1/760/33 16/762/33 10/763/33
f 16/762/33 15/764/33 10/763/33
f 15/764/33 14/765/33 11/766/33
f 10/763/33 15/764/33 11/766/33
f 14/765/33 13/767/33 12/768/33
f 12/768/33 11/766/33 14/765/33
f 10/763/33 9/761/33 1/760/33
f 9/761/33 8/769/33 2/759/33
f 8/769/33 7/770/33 2/759/33
f 7/770/33 6/54/33 3/53/33
f 2/759/33 7/770/33 3/53/33
f 6/54/33 5/771/33 4/52/33
f 50/75/33 49/75/33 54/75/33
f 49/75/33 60/75/33 55/75/33
f 54/75/33 49/75/33 55/75/33
f 60/75/33 59/75/33 57/75/33
f 59/75/33 58/75/33 57/75/33
f 57/75/33 56/75/33 60/75/33
f 56/75/33 55/75/33 60/75/33
f 54/75/33 53/75/33 51/75/33
f 53/75/33 52/75/33 51/75/33
f 528/631/294 521/772/294 522/632/294
f 522/632/294 523/773/294 526/774/294
f 523/773/294 524/775/294 526/774/294
f 524/775/294 525/776/294 526/774/294
f 526/774/294 527/630/294 522/632/294
