# Blender 5.2.2 LTS
# www.blender.org
o byakuya_bankai_blade
v 0.002000 0.000000 0.275000
v 0.070000 0.000000 -0.027500
v 0.070000 0.000000 -0.275000
v -0.070000 0.000000 -0.275000
v -0.070000 0.000000 -0.027500
v -0.002000 0.000000 0.275000
v 0.002000 0.500006 0.275000
v 0.070000 0.499999 -0.027500
v 0.070000 0.499994 -0.275000
v -0.070000 0.499994 -0.275000
v -0.070000 0.499999 -0.027500
v -0.002000 0.500006 0.275000
v 0.002000 2.005651 0.261298
v 0.062000 1.999435 -0.041139
v 0.062000 1.994349 -0.288586
v -0.062000 1.994349 -0.288586
v -0.062000 1.999435 -0.041139
v -0.002000 2.005651 0.261298
v 0.002000 3.515178 0.205834
v 0.054000 3.498482 -0.096204
v 0.054000 3.484822 -0.343327
v -0.054000 3.484822 -0.343327
v -0.054000 3.498482 -0.096204
v -0.002000 3.515178 0.205834
v 0.002000 4.527533 0.130806
v 0.048667 4.497247 -0.170174
v 0.048667 4.472467 -0.416431
v -0.048667 4.472467 -0.416431
v -0.048667 4.497247 -0.170174
v -0.002000 4.527533 0.130806
v 0.002000 5.338615 0.031843
v 0.044400 5.296138 -0.267660
v 0.044400 5.261384 -0.512708
v -0.044400 5.261384 -0.512708
v -0.044400 5.296138 -0.267660
v -0.002000 5.338615 0.031843
v 0.002000 6.046020 -0.078878
v 0.040667 5.995398 -0.377112
v 0.040667 5.953980 -0.621122
v -0.040667 5.953980 -0.621122
v -0.040667 5.995398 -0.377112
v -0.002000 6.046020 -0.078878
v 0.002000 6.541791 -0.157569
v 0.038000 6.495821 -0.456556
v 0.038000 6.458209 -0.701181
v -0.038000 6.458209 -0.701181
v -0.038000 6.495821 -0.456556
v -0.002000 6.541791 -0.157569
v 0.002000 6.894688 -0.213221
v 0.005413 6.885750 -0.267490
v 0.036133 6.845531 -0.511700
v 0.036133 6.805312 -0.755910
v -0.036133 6.805312 -0.755910
v -0.036133 6.845531 -0.511700
v -0.005413 6.885750 -0.267490
v -0.002000 6.894688 -0.213221
v 0.002000 7.149700 -0.257453
v 0.005280 7.139760 -0.311548
v 0.034800 7.095030 -0.554972
v 0.034800 7.050300 -0.798397
v -0.034800 7.050300 -0.798397
v -0.034800 7.095030 -0.554972
v -0.005280 7.139760 -0.311548
v -0.002000 7.149700 -0.257453
v 0.002000 7.587588 -0.466987
v 0.005040 7.578191 -0.505868
v 0.032400 7.535904 -0.680830
v 0.032400 7.493618 -0.855793
v -0.032400 7.493618 -0.855793
v -0.032400 7.535904 -0.680830
v -0.005040 7.578191 -0.505868
v -0.002000 7.587588 -0.466987
v 0.002000 7.724571 -0.568908
v 0.004960 7.717071 -0.596921
v 0.031600 7.683318 -0.722980
v 0.031600 7.649565 -0.849040
v -0.031600 7.649565 -0.849040
v -0.031600 7.683318 -0.722980
v -0.004960 7.717071 -0.596921
v -0.002000 7.724571 -0.568908
v 0.002000 7.858546 -0.674246
v 0.004880 7.853418 -0.691500
v 0.030800 7.830344 -0.769144
v 0.030800 7.807269 -0.846788
v -0.030800 7.807269 -0.846788
v -0.030800 7.830344 -0.769144
v -0.004880 7.853418 -0.691500
v -0.002000 7.858546 -0.674246
v 0.000000 8.000000 -0.825996
vn 0.9757 -0.0000 0.2193
vn 1.0000 -0.0000 -0.0000
vn -0.0000 -0.0000 -1.0000
vn -1.0000 -0.0000 -0.0000
vn -0.9757 -0.0000 0.2193
vn -0.0000 -0.0000 1.0000
vn 0.9783 0.0045 0.2070
vn 1.0000 0.0053 -0.0001
vn -0.0000 -0.0091 -1.0000
vn -1.0000 0.0053 -0.0001
vn -0.9783 0.0045 0.2070
vn -0.0000 0.0091 1.0000
vn 0.9833 0.0093 0.1818
vn 1.0000 0.0053 -0.0002
vn -0.0000 -0.0367 -0.9993
vn -1.0000 0.0053 -0.0002
vn -0.9833 0.0093 0.1818
vn -0.0000 0.0367 0.9993
vn 0.9870 0.0145 0.1604
vn 1.0000 0.0053 -0.0004
vn -0.0000 -0.0738 -0.9973
vn -1.0000 0.0053 -0.0004
vn -0.9870 0.0145 0.1604
vn -0.0000 0.0739 0.9973
vn 0.9893 0.0202 0.1443
vn 1.0000 0.0053 -0.0006
vn -0.0000 -0.1211 -0.9926
vn -1.0000 0.0053 -0.0006
vn -0.9893 0.0202 0.1443
vn -0.0000 0.1211 0.9926
vn 0.9911 0.0231 0.1308
vn 1.0000 0.0052 -0.0008
vn -0.0000 -0.1547 -0.9880
vn -1.0000 0.0052 -0.0008
vn -0.9911 0.0231 0.1308
vn -0.0000 0.1546 0.9880
vn 0.9925 0.0218 0.1206
vn -0.0000 -0.1568 -0.9876
vn -0.9925 0.0218 0.1206
vn -0.0000 0.1568 0.9876
vn -0.0000 -0.1558 -0.9878
vn -0.0000 0.1558 0.9878
vn 0.9981 0.0096 0.0612
vn 0.9930 0.0270 0.1154
vn 0.9924 0.0243 0.1208
vn -0.9924 0.0243 0.1208
vn -0.9930 0.0270 0.1154
vn -0.9981 0.0096 0.0612
vn 0.9982 0.0106 0.0598
vn 0.9927 0.0235 0.1185
vn 1.0000 0.0052 -0.0009
vn -0.0000 -0.1709 -0.9853
vn -1.0000 0.0052 -0.0009
vn -0.9927 0.0235 0.1185
vn -0.9982 0.0106 0.0598
vn -0.0000 0.1709 0.9853
vn 0.9977 0.0288 0.0618
vn 0.9910 0.0484 0.1247
vn 1.0000 0.0052 -0.0011
vn -0.0000 -0.1284 -0.9917
vn -1.0000 0.0052 -0.0011
vn -0.9910 0.0484 0.1247
vn -0.9977 0.0288 0.0618
vn -0.0000 0.4316 0.9020
vn 0.9957 0.0533 0.0758
vn 0.9846 0.0762 0.1574
vn 1.0000 0.0051 -0.0013
vn -0.0000 0.0433 -0.9991
vn -1.0000 0.0051 -0.0013
vn -0.9846 0.0762 0.1574
vn -0.9957 0.0533 0.0758
vn -0.0000 0.5969 0.8023
vn 0.9913 0.0786 0.1059
vn 0.9693 0.1117 0.2189
vn 1.0000 0.0050 -0.0014
vn -0.0000 0.0143 -0.9999
vn -1.0000 0.0050 -0.0014
vn -0.9693 0.1117 0.2189
vn -0.9913 0.0786 0.1059
vn -0.0000 0.6181 0.7861
vn 0.9821 0.1439 0.1212
vn 0.9382 0.2504 0.2388
vn 0.9855 0.1627 -0.0484
vn -0.0000 0.1073 -0.9942
vn -0.9855 0.1627 -0.0484
vn -0.9382 0.2504 0.2388
vn -0.9821 0.1439 0.1212
vn -0.0000 0.7315 0.6819
vn -0.0000 -1.0000 -0.0000
vt 0.003906 0.503906
vt 0.025391 0.503906
vt 0.025391 0.534437
vt 0.003906 0.534437
vt 0.042969 0.503906
vt 0.042969 0.534437
vt 0.089844 0.503906
vt 0.101562 0.503906
vt 0.101562 0.534437
vt 0.089844 0.534437
vt 0.085938 0.503906
vt 0.068359 0.503906
vt 0.068359 0.534437
vt 0.085938 0.534437
vt 0.046875 0.503906
vt 0.046875 0.534437
vt 0.105469 0.503906
vt 0.109375 0.503906
vt 0.109375 0.534437
vt 0.105469 0.534437
vt 0.025391 0.626033
vt 0.003906 0.626033
vt 0.042969 0.626033
vt 0.101562 0.626033
vt 0.089844 0.626033
vt 0.068359 0.626033
vt 0.085938 0.626033
vt 0.046875 0.626033
vt 0.109375 0.626033
vt 0.105469 0.626033
vt 0.025391 0.717691
vt 0.003906 0.717691
vt 0.042969 0.717691
vt 0.101562 0.717691
vt 0.089844 0.717691
vt 0.068359 0.717691
vt 0.085938 0.717691
vt 0.046875 0.717691
vt 0.109375 0.717691
vt 0.105469 0.717691
vt 0.025391 0.778925
vt 0.003906 0.778925
vt 0.042969 0.778925
vt 0.101562 0.778925
vt 0.089844 0.778925
vt 0.068359 0.778925
vt 0.085938 0.778925
vt 0.046875 0.778925
vt 0.109375 0.778925
vt 0.105469 0.778925
vt 0.025391 0.828139
vt 0.003906 0.828139
vt 0.042969 0.828139
vt 0.101562 0.828139
vt 0.089844 0.828139
vt 0.068359 0.828139
vt 0.085938 0.828139
vt 0.046875 0.828139
vt 0.109375 0.828139
vt 0.105469 0.828139
vt 0.025391 0.871404
vt 0.003906 0.871404
vt 0.042969 0.871404
vt 0.101562 0.871404
vt 0.089844 0.871404
vt 0.068359 0.871404
vt 0.085938 0.871404
vt 0.046875 0.871404
vt 0.109375 0.871404
vt 0.105469 0.871404
vt 0.025391 0.902317
vt 0.003906 0.902317
vt 0.042969 0.902317
vt 0.101562 0.902317
vt 0.089844 0.902317
vt 0.068359 0.902317
vt 0.085938 0.902317
vt 0.046875 0.902317
vt 0.109375 0.902317
vt 0.105469 0.902317
vt 0.042969 0.923952
vt 0.025391 0.923952
vt 0.101562 0.923952
vt 0.089844 0.923952
vt 0.068359 0.923952
vt 0.085938 0.923952
vt 0.109375 0.923952
vt 0.105469 0.923952
vt 0.007812 0.923952
vt 0.003906 0.923952
vt 0.050781 0.923952
vt 0.046875 0.923952
vt 0.007812 0.939445
vt 0.003906 0.939445
vt 0.025391 0.939445
vt 0.042969 0.939445
vt 0.101562 0.939445
vt 0.089844 0.939445
vt 0.068359 0.939445
vt 0.085938 0.939445
vt 0.050781 0.939445
vt 0.046875 0.939445
vt 0.109375 0.939445
vt 0.105469 0.939445
vt 0.007812 0.967527
vt 0.003906 0.967527
vt 0.025391 0.967527
vt 0.042969 0.967527
vt 0.101562 0.967527
vt 0.089844 0.967527
vt 0.068359 0.967527
vt 0.085938 0.967527
vt 0.050781 0.967527
vt 0.046875 0.967527
vt 0.109375 0.967527
vt 0.105469 0.967527
vt 0.007812 0.976978
vt 0.003906 0.976978
vt 0.025391 0.976978
vt 0.042969 0.976978
vt 0.101562 0.976978
vt 0.089844 0.976978
vt 0.068359 0.976978
vt 0.085938 0.976978
vt 0.050781 0.976978
vt 0.046875 0.976978
vt 0.109375 0.976978
vt 0.105469 0.976978
vt 0.007812 0.986495
vt 0.003906 0.986495
vt 0.025391 0.986495
vt 0.042969 0.986495
vt 0.101562 0.986495
vt 0.089844 0.986495
vt 0.068359 0.986495
vt 0.085938 0.986495
vt 0.050781 0.986495
vt 0.046875 0.986495
vt 0.109375 0.986495
vt 0.105469 0.986495
vt 0.005859 0.996094
vt 0.016602 0.996094
vt 0.034180 0.996094
vt 0.095703 0.996094
vt 0.077148 0.996094
vt 0.059570 0.996094
vt 0.048828 0.996094
vt 0.107422 0.996094
vt 0.023438 0.511289
s 0
f 1/1/1 2/2/1 8/3/1 7/4/1
f 2/2/2 3/5/2 9/6/2 8/3/2
f 3/7/3 4/8/3 10/9/3 9/10/3
f 4/11/4 5/12/4 11/13/4 10/14/4
f 5/12/5 6/15/5 12/16/5 11/13/5
f 6/17/6 1/18/6 7/19/6 12/20/6
f 7/4/7 8/3/7 14/21/7 13/22/7
f 8/3/8 9/6/8 15/23/8 14/21/8
f 9/10/9 10/9/9 16/24/9 15/25/9
f 10/14/10 11/13/10 17/26/10 16/27/10
f 11/13/11 12/16/11 18/28/11 17/26/11
f 12/20/12 7/19/12 13/29/12 18/30/12
f 13/22/13 14/21/13 20/31/13 19/32/13
f 14/21/14 15/23/14 21/33/14 20/31/14
f 15/25/15 16/24/15 22/34/15 21/35/15
f 16/27/16 17/26/16 23/36/16 22/37/16
f 17/26/17 18/28/17 24/38/17 23/36/17
f 18/30/18 13/29/18 19/39/18 24/40/18
f 19/32/19 20/31/19 26/41/19 25/42/19
f 20/31/20 21/33/20 27/43/20 26/41/20
f 21/35/21 22/34/21 28/44/21 27/45/21
f 22/37/22 23/36/22 29/46/22 28/47/22
f 23/36/23 24/38/23 30/48/23 29/46/23
f 24/40/24 19/39/24 25/49/24 30/50/24
f 25/42/25 26/41/25 32/51/25 31/52/25
f 26/41/26 27/43/26 33/53/26 32/51/26
f 27/45/27 28/44/27 34/54/27 33/55/27
f 28/47/28 29/46/28 35/56/28 34/57/28
f 29/46/29 30/48/29 36/58/29 35/56/29
f 30/50/30 25/49/30 31/59/30 36/60/30
f 31/52/31 32/51/31 38/61/31 37/62/31
f 32/51/32 33/53/32 39/63/32 38/61/32
f 33/55/33 34/54/33 40/64/33 39/65/33
f 34/57/34 35/56/34 41/66/34 40/67/34
f 35/56/35 36/58/35 42/68/35 41/66/35
f 36/60/36 31/59/36 37/69/36 42/70/36
f 37/62/37 38/61/37 44/71/37 43/72/37
f 38/61/32 39/63/32 45/73/32 44/71/32
f 39/65/38 40/64/38 46/74/38 45/75/38
f 40/67/34 41/66/34 47/76/34 46/77/34
f 41/66/39 42/68/39 48/78/39 47/76/39
f 42/70/40 37/69/40 43/79/40 48/80/40
f 44/71/32 45/73/32 52/81/32 51/82/32
f 45/75/41 46/74/41 53/83/41 52/84/41
f 46/77/34 47/76/34 54/85/34 53/86/34
f 48/80/42 43/79/42 49/87/42 56/88/42
f 50/89/43 49/90/43 43/72/43
f 50/89/44 43/72/44 44/71/44
f 50/89/45 44/71/45 51/82/45
f 55/91/46 54/85/46 47/76/46
f 55/91/47 47/76/47 48/78/47
f 55/91/48 48/78/48 56/92/48
f 49/90/49 50/89/49 58/93/49 57/94/49
f 50/89/50 51/82/50 59/95/50 58/93/50
f 51/82/51 52/81/51 60/96/51 59/95/51
f 52/84/52 53/83/52 61/97/52 60/98/52
f 53/86/53 54/85/53 62/99/53 61/100/53
f 54/85/54 55/91/54 63/101/54 62/99/54
f 55/91/55 56/92/55 64/102/55 63/101/55
f 56/88/56 49/87/56 57/103/56 64/104/56
f 57/94/57 58/93/57 66/105/57 65/106/57
f 58/93/58 59/95/58 67/107/58 66/105/58
f 59/95/59 60/96/59 68/108/59 67/107/59
f 60/98/60 61/97/60 69/109/60 68/110/60
f 61/100/61 62/99/61 70/111/61 69/112/61
f 62/99/62 63/101/62 71/113/62 70/111/62
f 63/101/63 64/102/63 72/114/63 71/113/63
f 64/104/64 57/103/64 65/115/64 72/116/64
f 65/106/65 66/105/65 74/117/65 73/118/65
f 66/105/66 67/107/66 75/119/66 74/117/66
f 67/107/67 68/108/67 76/120/67 75/119/67
f 68/110/68 69/109/68 77/121/68 76/122/68
f 69/112/69 70/111/69 78/123/69 77/124/69
f 70/111/70 71/113/70 79/125/70 78/123/70
f 71/113/71 72/114/71 80/126/71 79/125/71
f 72/116/72 65/115/72 73/127/72 80/128/72
f 73/118/73 74/117/73 82/129/73 81/130/73
f 74/117/74 75/119/74 83/131/74 82/129/74
f 75/119/75 76/120/75 84/132/75 83/131/75
f 76/122/76 77/121/76 85/133/76 84/134/76
f 77/124/77 78/123/77 86/135/77 85/136/77
f 78/123/78 79/125/78 87/137/78 86/135/78
f 79/125/79 80/126/79 88/138/79 87/137/79
f 80/128/80 73/127/80 81/139/80 88/140/80
f 81/130/81 82/129/81 89/141/81
f 82/129/82 83/131/82 89/142/82
f 83/131/83 84/132/83 89/143/83
f 84/134/84 85/133/84 89/144/84
f 85/136/85 86/135/85 89/145/85
f 86/135/86 87/137/86 89/146/86
f 87/137/87 88/138/87 89/147/87
f 88/140/88 81/139/88 89/148/88
f 4/149/89 3/149/89 2/149/89
f 2/149/89 1/149/89 6/149/89
f 6/149/89 5/149/89 2/149/89
f 5/149/89 4/149/89 2/149/89
