# Blender 5.2.2 LTS
# www.blender.org
o hakuteiken_halo
v 1.100000 0.000000 0.000000
v 1.062518 0.284701 0.000000
v 0.952628 0.550000 0.000000
v 0.777817 0.777817 0.000000
v 0.550000 0.952628 0.000000
v 0.284701 1.062518 0.000000
v 0.000000 1.100000 0.000000
v -0.284701 1.062518 0.000000
v -0.550000 0.952628 0.000000
v -0.777817 0.777817 0.000000
v -0.952628 0.550000 0.000000
v -1.062518 0.284701 0.000000
v -1.100000 0.000000 0.000000
v -1.062518 -0.284701 0.000000
v -0.952628 -0.550000 0.000000
v -0.777817 -0.777817 0.000000
v -0.550000 -0.952628 0.000000
v -0.284701 -1.062518 0.000000
v -0.000000 -1.100000 0.000000
v 0.284701 -1.062518 0.000000
v 0.550000 -0.952628 0.000000
v 0.777817 -0.777817 0.000000
v 0.952628 -0.550000 0.000000
v 1.062518 -0.284701 0.000000
v 1.000000 0.000000 0.000000
v 0.965926 0.258819 0.000000
v 0.866025 0.500000 0.000000
v 0.707107 0.707107 0.000000
v 0.500000 0.866025 0.000000
v 0.258819 0.965926 0.000000
v 0.000000 1.000000 0.000000
v -0.258819 0.965926 0.000000
v -0.500000 0.866025 0.000000
v -0.707107 0.707107 0.000000
v -0.866025 0.500000 0.000000
v -0.965926 0.258819 0.000000
v -1.000000 0.000000 0.000000
v -0.965926 -0.258819 0.000000
v -0.866025 -0.500000 0.000000
v -0.707107 -0.707107 0.000000
v -0.500000 -0.866025 0.000000
v -0.258819 -0.965926 0.000000
v -0.000000 -1.000000 0.000000
v 0.258819 -0.965926 0.000000
v 0.500000 -0.866025 0.000000
v 0.707107 -0.707107 0.000000
v 0.866025 -0.500000 0.000000
v 0.965926 -0.258819 0.000000
vn -0.0000 -0.0000 -1.0000
vt 0.320312 0.312500
vt 0.320312 0.296875
vt 0.328125 0.296875
vt 0.328125 0.312500
vt 0.335938 0.296875
vt 0.335938 0.312500
vt 0.343750 0.296875
vt 0.343750 0.312500
vt 0.351562 0.296875
vt 0.351562 0.312500
vt 0.359375 0.296875
vt 0.359375 0.312500
vt 0.367188 0.296875
vt 0.367188 0.312500
vt 0.375000 0.296875
vt 0.375000 0.312500
vt 0.382812 0.296875
vt 0.382812 0.312500
vt 0.390625 0.296875
vt 0.390625 0.312500
vt 0.398438 0.296875
vt 0.398438 0.312500
vt 0.406250 0.296875
vt 0.406250 0.312500
vt 0.414062 0.296875
vt 0.414062 0.312500
vt 0.421875 0.296875
vt 0.421875 0.312500
vt 0.429688 0.296875
vt 0.429688 0.312500
vt 0.437500 0.296875
vt 0.437500 0.312500
vt 0.445312 0.296875
vt 0.445312 0.312500
vt 0.453125 0.296875
vt 0.453125 0.312500
vt 0.460938 0.296875
vt 0.460938 0.312500
vt 0.468750 0.296875
vt 0.468750 0.312500
vt 0.476562 0.296875
vt 0.476562 0.312500
vt 0.484375 0.296875
vt 0.484375 0.312500
vt 0.492188 0.296875
vt 0.492188 0.312500
vt 0.500000 0.296875
vt 0.500000 0.312500
vt 0.507812 0.296875
vt 0.507812 0.312500
s 0
f 1/1/1 25/2/1 26/3/1 2/4/1
f 2/4/1 26/3/1 27/5/1 3/6/1
f 3/6/1 27/5/1 28/7/1 4/8/1
f 4/8/1 28/7/1 29/9/1 5/10/1
f 5/10/1 29/9/1 30/11/1 6/12/1
f 6/12/1 30/11/1 31/13/1 7/14/1
f 7/14/1 31/13/1 32/15/1 8/16/1
f 8/16/1 32/15/1 33/17/1 9/18/1
f 9/18/1 33/17/1 34/19/1 10/20/1
f 10/20/1 34/19/1 35/21/1 11/22/1
f 11/22/1 35/21/1 36/23/1 12/24/1
f 12/24/1 36/23/1 37/25/1 13/26/1
f 13/26/1 37/25/1 38/27/1 14/28/1
f 14/28/1 38/27/1 39/29/1 15/30/1
f 15/30/1 39/29/1 40/31/1 16/32/1
f 16/32/1 40/31/1 41/33/1 17/34/1
f 17/34/1 41/33/1 42/35/1 18/36/1
f 18/36/1 42/35/1 43/37/1 19/38/1
f 19/38/1 43/37/1 44/39/1 20/40/1
f 20/40/1 44/39/1 45/41/1 21/42/1
f 21/42/1 45/41/1 46/43/1 22/44/1
f 22/44/1 46/43/1 47/45/1 23/46/1
f 23/46/1 47/45/1 48/47/1 24/48/1
f 24/48/1 48/47/1 25/49/1 1/50/1
