# Blender 5.2.2 LTS
# www.blender.org
o hakuteiken_blade_tip
v 0.002000 0.000000 0.050000
v 0.015000 0.000000 -0.005000
v 0.015000 0.000000 -0.050000
v -0.015000 0.000000 -0.050000
v -0.015000 0.000000 -0.005000
v -0.002000 0.000000 0.050000
v 0.002000 0.080000 0.045000
v 0.013500 0.080000 -0.004500
v 0.013500 0.080000 -0.045000
v -0.013500 0.080000 -0.045000
v -0.013500 0.080000 -0.004500
v -0.002000 0.080000 0.045000
v 0.002000 0.150000 0.030000
v 0.010000 0.150000 -0.003000
v 0.010000 0.150000 -0.030000
v -0.010000 0.150000 -0.030000
v -0.010000 0.150000 -0.003000
v -0.002000 0.150000 0.030000
v 0.000000 0.200000 -0.017000
vn 0.9735 0.0155 0.2282
vn 0.9998 0.0187 -0.0000
vn -0.0000 0.0624 -0.9981
vn -0.9998 0.0187 -0.0000
vn -0.9735 0.0155 0.2282
vn -0.0000 0.0624 0.9981
vn 0.9721 0.0465 0.2298
vn 0.9988 0.0499 -0.0000
vn -0.0000 0.2095 -0.9778
vn -0.9988 0.0499 -0.0000
vn -0.9721 0.0465 0.2298
vn -0.0000 0.2095 0.9778
vn 0.9405 0.2519 0.2280
vn 0.9806 0.1961 -0.0000
vn -0.0000 0.2516 -0.9678
vn -0.9806 0.1961 -0.0000
vn -0.9405 0.2519 0.2280
vn -0.0000 0.6849 0.7286
vt 0.320312 0.234375
vt 0.342665 0.234375
vt 0.342665 0.246875
vt 0.320312 0.246875
vt 0.360464 0.234375
vt 0.360464 0.246875
vt 0.372329 0.234375
vt 0.372329 0.246875
vt 0.390128 0.234375
vt 0.390128 0.246875
vt 0.412480 0.234375
vt 0.412480 0.246875
vt 0.414062 0.234375
vt 0.414062 0.246875
vt 0.342665 0.257812
vt 0.320312 0.257812
vt 0.360464 0.257812
vt 0.372329 0.257812
vt 0.390128 0.257812
vt 0.412480 0.257812
vt 0.414062 0.257812
vt 0.331489 0.265625
vt 0.351565 0.265625
vt 0.366396 0.265625
vt 0.381228 0.265625
vt 0.401304 0.265625
vt 0.413271 0.265625
s 0
f 1/1/1 2/2/1 8/3/1 7/4/1
f 2/2/2 3/5/2 9/6/2 8/3/2
f 3/5/3 4/7/3 10/8/3 9/6/3
f 4/7/4 5/9/4 11/10/4 10/8/4
f 5/9/5 6/11/5 12/12/5 11/10/5
f 6/11/6 1/13/6 7/14/6 12/12/6
f 7/4/7 8/3/7 14/15/7 13/16/7
f 8/3/8 9/6/8 15/17/8 14/15/8
f 9/6/9 10/8/9 16/18/9 15/17/9
f 10/8/10 11/10/10 17/19/10 16/18/10
f 11/10/11 12/12/11 18/20/11 17/19/11
f 12/12/12 7/14/12 13/21/12 18/20/12
f 13/16/13 14/15/13 19/22/13
f 14/15/14 15/17/14 19/23/14
f 15/17/15 16/18/15 19/24/15
f 16/18/16 17/19/16 19/25/16
f 17/19/17 18/20/17 19/26/17
f 18/20/18 13/21/18 19/27/18
