# Blender 5.2.2 LTS
# www.blender.org
o rukia_bankai_crystal_a
v 0.024863 0.000000 0.000941
v 0.012544 0.000000 -0.021798
v -0.013380 0.000000 -0.022363
v -0.024899 0.000000 0.000876
v -0.013550 0.000000 0.021033
v 0.012091 0.000000 0.022131
v 0.023522 0.045000 0.000891
v 0.012392 0.045000 -0.021535
v -0.013124 0.045000 -0.021934
v -0.023486 0.045000 0.000826
v -0.013523 0.045000 0.020992
v 0.012052 0.045000 0.022061
v 0.022083 0.090000 0.000836
v 0.011114 0.090000 -0.019314
v -0.011543 0.090000 -0.019292
v -0.021271 0.090000 0.000748
v -0.011944 0.090000 0.018540
v 0.010361 0.090000 0.018965
v 0.017567 0.123000 0.000665
v 0.008892 0.123000 -0.015453
v -0.009373 0.123000 -0.015666
v -0.017888 0.123000 0.000629
v -0.009721 0.123000 0.015090
v 0.008882 0.123000 0.016259
v 0.000048 0.150000 -0.000351
vn 0.8874 0.0158 -0.4607
vn 0.0187 0.0077 -0.9998
vn -0.9029 0.0186 -0.4295
vn -0.8840 0.0146 0.4672
vn -0.0423 0.0012 0.9991
vn 0.8678 0.0140 0.4967
vn 0.8869 0.0379 -0.4603
vn 0.0078 0.0539 -0.9985
vn -0.9041 0.0502 -0.4244
vn -0.8904 0.0502 0.4525
vn -0.0311 0.0614 0.9976
vn 0.8602 0.0477 0.5077
vn 0.8734 0.1156 -0.4730
vn 0.0046 0.1127 -0.9936
vn -0.8893 0.0985 -0.4465
vn -0.8746 0.0999 0.4744
vn -0.0388 0.0932 0.9949
vn 0.8513 0.0998 0.5151
vn 0.7704 0.4843 -0.4146
vn 0.0102 0.4907 -0.8713
vn -0.7693 0.4965 -0.4020
vn -0.7479 0.5121 0.4224
vn -0.0539 0.5103 0.8583
vn 0.7540 0.5051 0.4199
vn -0.0000 -1.0000 -0.0000
vt 0.746094 0.285156
vt 0.756510 0.285156
vt 0.756510 0.303906
vt 0.746094 0.303906
vt 0.766927 0.285156
vt 0.766927 0.303906
vt 0.777344 0.285156
vt 0.777344 0.303906
vt 0.787760 0.285156
vt 0.787760 0.303906
vt 0.798177 0.285156
vt 0.798177 0.303906
vt 0.808594 0.285156
vt 0.808594 0.303906
vt 0.756510 0.322656
vt 0.746094 0.322656
vt 0.766927 0.322656
vt 0.777344 0.322656
vt 0.787760 0.322656
vt 0.798177 0.322656
vt 0.808594 0.322656
vt 0.756510 0.336406
vt 0.746094 0.336406
vt 0.766927 0.336406
vt 0.777344 0.336406
vt 0.787760 0.336406
vt 0.798177 0.336406
vt 0.808594 0.336406
vt 0.751302 0.347656
vt 0.761719 0.347656
vt 0.772135 0.347656
vt 0.782552 0.347656
vt 0.792969 0.347656
vt 0.803385 0.347656
vt 0.777344 0.285781
s 0
f 1/1/1 2/2/1 8/3/1 7/4/1
f 2/2/2 3/5/2 9/6/2 8/3/2
f 3/5/3 4/7/3 10/8/3 9/6/3
f 4/7/4 5/9/4 11/10/4 10/8/4
f 5/9/5 6/11/5 12/12/5 11/10/5
f 6/11/6 1/13/6 7/14/6 12/12/6
f 7/4/7 8/3/7 14/15/7 13/16/7
f 8/3/8 9/6/8 15/17/8 14/15/8
f 9/6/9 10/8/9 16/18/9 15/17/9
f 10/8/10 11/10/10 17/19/10 16/18/10
f 11/10/11 12/12/11 18/20/11 17/19/11
f 12/12/12 7/14/12 13/21/12 18/20/12
f 13/16/13 14/15/13 20/22/13 19/23/13
f 14/15/14 15/17/14 21/24/14 20/22/14
f 15/17/15 16/18/15 22/25/15 21/24/15
f 16/18/16 17/19/16 23/26/16 22/25/16
f 17/19/17 18/20/17 24/27/17 23/26/17
f 18/20/18 13/21/18 19/28/18 24/27/18
f 19/23/19 20/22/19 25/29/19
f 20/22/20 21/24/20 25/30/20
f 21/24/21 22/25/21 25/31/21
f 22/25/22 23/26/22 25/32/22
f 23/26/23 24/27/23 25/33/23
f 24/27/24 19/28/24 25/34/24
f 4/35/25 3/35/25 2/35/25
f 2/35/25 1/35/25 4/35/25
f 1/35/25 6/35/25 5/35/25
f 4/35/25 1/35/25 5/35/25
