# Blender 5.2.2 LTS
# www.blender.org
o rukia_bankai_crystal_b
v 0.049855 0.000000 0.001352
v 0.023738 0.000000 -0.044898
v -0.026416 0.000000 -0.043429
v -0.048209 0.000000 0.000587
v -0.023489 0.000000 0.041348
v 0.025510 0.000000 0.042273
v 0.047327 0.090000 0.001284
v 0.022945 0.090000 -0.043397
v -0.025113 0.090000 -0.041287
v -0.047944 0.090000 0.000584
v -0.022150 0.090000 0.038992
v 0.025224 0.090000 0.041799
v 0.042749 0.180000 0.001159
v 0.021121 0.180000 -0.039947
v -0.023023 0.180000 -0.037850
v -0.042172 0.180000 0.000513
v -0.021117 0.180000 0.037172
v 0.021792 0.180000 0.036112
v 0.034947 0.246000 0.000948
v 0.017511 0.246000 -0.033119
v -0.019030 0.246000 -0.031285
v -0.033827 0.246000 0.000412
v -0.017432 0.246000 0.030686
v 0.018866 0.246000 0.031263
v -0.001937 0.300000 0.000384
vn 0.8741 0.0200 -0.4854
vn -0.0364 0.0203 -0.9991
vn -0.8873 0.0132 -0.4610
vn -0.8429 0.0146 0.5378
vn -0.0387 0.0159 0.9991
vn 0.8685 0.0151 0.4954
vn 0.8805 0.0400 -0.4723
vn -0.0455 0.0383 -0.9982
vn -0.8850 0.0473 -0.4631
vn -0.8477 0.0376 0.5291
vn -0.0193 0.0414 0.9990
vn 0.8673 0.0546 0.4948
vn 0.8829 0.0993 -0.4588
vn -0.0484 0.1010 -0.9937
vn -0.8950 0.1049 -0.4336
vn -0.8680 0.1033 0.4857
vn 0.0061 0.0855 0.9963
vn 0.8662 0.0893 0.4916
vn 0.7622 0.5166 -0.3901
vn -0.0429 0.5155 -0.8558
vn -0.7990 0.4717 -0.3730
vn -0.7803 0.4610 0.4226
vn -0.0138 0.4923 0.8703
vn 0.7547 0.5197 0.4004
vn -0.0000 -1.0000 -0.0000
vt 0.894531 0.402344
vt 0.910156 0.402344
vt 0.910156 0.430469
vt 0.894531 0.430469
vt 0.925781 0.402344
vt 0.925781 0.430469
vt 0.941406 0.402344
vt 0.941406 0.430469
vt 0.957031 0.402344
vt 0.957031 0.430469
vt 0.972656 0.402344
vt 0.972656 0.430469
vt 0.988281 0.402344
vt 0.988281 0.430469
vt 0.910156 0.458594
vt 0.894531 0.458594
vt 0.925781 0.458594
vt 0.941406 0.458594
vt 0.957031 0.458594
vt 0.972656 0.458594
vt 0.988281 0.458594
vt 0.910156 0.479219
vt 0.894531 0.479219
vt 0.925781 0.479219
vt 0.941406 0.479219
vt 0.957031 0.479219
vt 0.972656 0.479219
vt 0.988281 0.479219
vt 0.902344 0.496094
vt 0.917969 0.496094
vt 0.933594 0.496094
vt 0.949219 0.496094
vt 0.964844 0.496094
vt 0.980469 0.496094
vt 0.941406 0.403281
s 0
f 1/1/1 2/2/1 8/3/1 7/4/1
f 2/2/2 3/5/2 9/6/2 8/3/2
f 3/5/3 4/7/3 10/8/3 9/6/3
f 4/7/4 5/9/4 11/10/4 10/8/4
f 5/9/5 6/11/5 12/12/5 11/10/5
f 6/11/6 1/13/6 7/14/6 12/12/6
f 7/4/7 8/3/7 14/15/7 13/16/7
f 8/3/8 9/6/8 15/17/8 14/15/8
f 9/6/9 10/8/9 16/18/9 15/17/9
f 10/8/10 11/10/10 17/19/10 16/18/10
f 11/10/11 12/12/11 18/20/11 17/19/11
f 12/12/12 7/14/12 13/21/12 18/20/12
f 13/16/13 14/15/13 20/22/13 19/23/13
f 14/15/14 15/17/14 21/24/14 20/22/14
f 15/17/15 16/18/15 22/25/15 21/24/15
f 16/18/16 17/19/16 23/26/16 22/25/16
f 17/19/17 18/20/17 24/27/17 23/26/17
f 18/20/18 13/21/18 19/28/18 24/27/18
f 19/23/19 20/22/19 25/29/19
f 20/22/20 21/24/20 25/30/20
f 21/24/21 22/25/21 25/31/21
f 22/25/22 23/26/22 25/32/22
f 23/26/23 24/27/23 25/33/23
f 24/27/24 19/28/24 25/34/24
f 4/35/25 3/35/25 2/35/25
f 2/35/25 1/35/25 4/35/25
f 1/35/25 6/35/25 5/35/25
f 4/35/25 1/35/25 5/35/25
