# Blender 5.2.2 LTS
# www.blender.org
o rukia_bankai_ribbon_tip
v -0.035000 0.000000 -0.001000
v 0.035000 0.000000 -0.001000
v 0.000000 -0.350000 -0.001000
v -0.035000 0.000000 0.001000
v 0.035000 0.000000 0.001000
v 0.000000 -0.350000 0.001000
vn -0.0000 -0.0000 -1.0000
vn -0.0000 -0.0000 1.0000
vn -0.9950 -0.0995 -0.0000
vn 0.9950 -0.0995 -0.0000
vn -0.0000 1.0000 -0.0000
vt 0.714844 0.503906
vt 0.714844 0.542969
vt 0.917969 0.523438
vt 0.718906 0.523438
s 0
f 1/1/1 2/2/1 3/3/1
f 4/1/2 6/3/2 5/2/2
f 1/1/3 3/3/3 6/3/3 4/1/3
f 2/2/4 5/2/4 6/3/4 3/3/4
f 1/4/5 4/4/5 5/4/5 2/4/5
