# Blender 5.2.2 LTS
# www.blender.org
o rukia_bankai_crystal_d
v 0.192061 0.000000 -0.005396
v 0.098648 0.000000 -0.178622
v -0.097335 0.000000 -0.178189
v -0.208756 0.000000 0.004616
v -0.099802 0.000000 0.168016
v 0.103130 0.000000 0.165633
v 0.178109 0.540000 -0.005004
v 0.092190 0.540000 -0.166929
v -0.094663 0.540000 -0.173296
v -0.196700 0.540000 0.004349
v -0.093417 0.540000 0.157267
v 0.099807 0.540000 0.160296
v 0.151039 0.936000 -0.004243
v 0.075360 0.936000 -0.136455
v -0.076152 0.936000 -0.139409
v -0.164364 0.936000 0.003634
v -0.076244 0.936000 0.128356
v 0.081192 0.936000 0.130399
v -0.007539 1.200000 0.003259
vn 0.8815 0.0219 -0.4717
vn 0.0155 0.0154 -0.9998
vn -0.8604 0.0139 -0.5095
vn -0.8302 0.0199 0.5571
vn -0.0016 0.0149 0.9999
vn 0.8953 0.0164 0.4452
vn 0.8744 0.0674 -0.4804
vn 0.0274 0.0809 -0.9963
vn -0.8575 0.0764 -0.5087
vn -0.8211 0.0725 0.5661
vn -0.0144 0.0740 0.9972
vn 0.8945 0.0679 0.4418
vn 0.7651 0.4720 -0.4380
vn 0.0172 0.4719 -0.8815
vn -0.7598 0.4507 -0.4686
vn -0.7346 0.4371 0.5190
vn -0.0117 0.4307 0.9024
vn 0.7875 0.4614 0.4085
vn -0.0000 -1.0000 -0.0000
vt 0.503906 0.261719
vt 0.542969 0.261719
vt 0.542969 0.367188
vt 0.503906 0.367188
vt 0.582031 0.261719
vt 0.582031 0.367188
vt 0.621094 0.261719
vt 0.621094 0.367188
vt 0.660156 0.261719
vt 0.660156 0.367188
vt 0.699219 0.261719
vt 0.699219 0.367188
vt 0.738281 0.261719
vt 0.738281 0.367188
vt 0.542969 0.444531
vt 0.503906 0.444531
vt 0.582031 0.444531
vt 0.621094 0.444531
vt 0.660156 0.444531
vt 0.699219 0.444531
vt 0.738281 0.444531
vt 0.523438 0.496094
vt 0.562500 0.496094
vt 0.601562 0.496094
vt 0.640625 0.496094
vt 0.679688 0.496094
vt 0.718750 0.496094
vt 0.621094 0.264062
s 0
f 1/1/1 2/2/1 8/3/1 7/4/1
f 2/2/2 3/5/2 9/6/2 8/3/2
f 3/5/3 4/7/3 10/8/3 9/6/3
f 4/7/4 5/9/4 11/10/4 10/8/4
f 5/9/5 6/11/5 12/12/5 11/10/5
f 6/11/6 1/13/6 7/14/6 12/12/6
f 7/4/7 8/3/7 14/15/7 13/16/7
f 8/3/8 9/6/8 15/17/8 14/15/8
f 9/6/9 10/8/9 16/18/9 15/17/9
f 10/8/10 11/10/10 17/19/10 16/18/10
f 11/10/11 12/12/11 18/20/11 17/19/11
f 12/12/12 7/14/12 13/21/12 18/20/12
f 13/16/13 14/15/13 19/22/13
f 14/15/14 15/17/14 19/23/14
f 15/17/15 16/18/15 19/24/15
f 16/18/16 17/19/16 19/25/16
f 17/19/17 18/20/17 19/26/17
f 18/20/18 13/21/18 19/27/18
f 5/28/19 4/28/19 3/28/19
f 2/28/19 1/28/19 3/28/19
f 1/28/19 6/28/19 5/28/19
f 3/28/19 1/28/19 5/28/19
