# Blender 5.2.2 LTS
# www.blender.org
o rukia_sealed_drawn
v 0.009680 0.000000 0.000000
v 0.008943 0.000000 -0.005051
v 0.006845 0.000000 -0.009334
v 0.003704 0.000000 -0.012195
v 0.000000 0.000000 -0.013200
v -0.003704 0.000000 -0.012195
v -0.006845 0.000000 -0.009334
v -0.008943 0.000000 -0.005051
v -0.009680 0.000000 -0.000000
v -0.008943 0.000000 0.005051
v -0.006845 0.000000 0.009334
v -0.003704 0.000000 0.012195
v -0.000000 0.000000 0.013200
v 0.003704 0.000000 0.012195
v 0.006845 0.000000 0.009334
v 0.008943 0.000000 0.005051
v 0.011000 0.001800 0.000000
v 0.010163 0.001800 -0.005740
v 0.007778 0.001800 -0.010607
v 0.004210 0.001800 -0.013858
v 0.000000 0.001800 -0.015000
v -0.004210 0.001800 -0.013858
v -0.007778 0.001800 -0.010607
v -0.010163 0.001800 -0.005740
v -0.011000 0.001800 -0.000000
v -0.010163 0.001800 0.005740
v -0.007778 0.001800 0.010607
v -0.004210 0.001800 0.013858
v -0.000000 0.001800 0.015000
v 0.004210 0.001800 0.013858
v 0.007778 0.001800 0.010607
v 0.010163 0.001800 0.005740
v 0.011000 0.014000 0.000000
v 0.010163 0.014000 -0.005740
v 0.007778 0.014000 -0.010607
v 0.004210 0.014000 -0.013858
v 0.000000 0.014000 -0.015000
v -0.004210 0.014000 -0.013858
v -0.007778 0.014000 -0.010607
v -0.010163 0.014000 -0.005740
v -0.011000 0.014000 -0.000000
v -0.010163 0.014000 0.005740
v -0.007778 0.014000 0.010607
v -0.004210 0.014000 0.013858
v -0.000000 0.014000 0.015000
v 0.004210 0.014000 0.013858
v 0.007778 0.014000 0.010607
v 0.010163 0.014000 0.005740
v 0.012000 0.014000 0.000000
v 0.010392 0.014000 -0.007500
v 0.006000 0.014000 -0.012990
v 0.000000 0.014000 -0.015000
v -0.006000 0.014000 -0.012990
v -0.010392 0.014000 -0.007500
v -0.012000 0.014000 -0.000000
v -0.010392 0.014000 0.007500
v -0.006000 0.014000 0.012990
v -0.000000 0.014000 0.015000
v 0.006000 0.014000 0.012990
v 0.010392 0.014000 0.007500
v 0.013500 0.025684 0.000000
v 0.011691 0.025684 -0.008250
v 0.006750 0.025684 -0.014289
v 0.000000 0.025684 -0.016500
v -0.006750 0.025684 -0.014289
v -0.011691 0.025684 -0.008250
v -0.013500 0.025684 -0.000000
v -0.011691 0.025684 0.008250
v -0.006750 0.025684 0.014289
v -0.000000 0.025684 0.016500
v 0.006750 0.025684 0.014289
v 0.011691 0.025684 0.008250
v 0.012000 0.037368 0.000000
v 0.010392 0.037368 -0.007500
v 0.006000 0.037368 -0.012990
v 0.000000 0.037368 -0.015000
v -0.006000 0.037368 -0.012990
v -0.010392 0.037368 -0.007500
v -0.012000 0.037368 -0.000000
v -0.010392 0.037368 0.007500
v -0.006000 0.037368 0.012990
v -0.000000 0.037368 0.015000
v 0.006000 0.037368 0.012990
v 0.010392 0.037368 0.007500
v 0.013500 0.049053 0.000000
v 0.011691 0.049053 -0.008250
v 0.006750 0.049053 -0.014289
v 0.000000 0.049053 -0.016500
v -0.006750 0.049053 -0.014289
v -0.011691 0.049053 -0.008250
v -0.013500 0.049053 -0.000000
v -0.011691 0.049053 0.008250
v -0.006750 0.049053 0.014289
v -0.000000 0.049053 0.016500
v 0.006750 0.049053 0.014289
v 0.011691 0.049053 0.008250
v 0.012000 0.060737 0.000000
v 0.010392 0.060737 -0.007500
v 0.006000 0.060737 -0.012990
v 0.000000 0.060737 -0.015000
v -0.006000 0.060737 -0.012990
v -0.010392 0.060737 -0.007500
v -0.012000 0.060737 -0.000000
v -0.010392 0.060737 0.007500
v -0.006000 0.060737 0.012990
v -0.000000 0.060737 0.015000
v 0.006000 0.060737 0.012990
v 0.010392 0.060737 0.007500
v 0.013500 0.072421 0.000000
v 0.011691 0.072421 -0.008250
v 0.006750 0.072421 -0.014289
v 0.000000 0.072421 -0.016500
v -0.006750 0.072421 -0.014289
v -0.011691 0.072421 -0.008250
v -0.013500 0.072421 -0.000000
v -0.011691 0.072421 0.008250
v -0.006750 0.072421 0.014289
v -0.000000 0.072421 0.016500
v 0.006750 0.072421 0.014289
v 0.011691 0.072421 0.008250
v 0.012000 0.084105 0.000000
v 0.010392 0.084105 -0.007500
v 0.006000 0.084105 -0.012990
v 0.000000 0.084105 -0.015000
v -0.006000 0.084105 -0.012990
v -0.010392 0.084105 -0.007500
v -0.012000 0.084105 -0.000000
v -0.010392 0.084105 0.007500
v -0.006000 0.084105 0.012990
v -0.000000 0.084105 0.015000
v 0.006000 0.084105 0.012990
v 0.010392 0.084105 0.007500
v 0.013987 0.095789 0.000000
v 0.012113 0.095789 -0.008494
v 0.006994 0.095789 -0.014711
v 0.000000 0.095789 -0.016987
v -0.006994 0.095789 -0.014711
v -0.012113 0.095789 -0.008494
v -0.013987 0.095789 -0.000000
v -0.012113 0.095789 0.008494
v -0.006994 0.095789 0.014711
v -0.000000 0.095789 0.016987
v 0.006994 0.095789 0.014711
v 0.012113 0.095789 0.008494
v 0.013104 0.107474 0.000000
v 0.011348 0.107474 -0.008052
v 0.006552 0.107474 -0.013946
v 0.000000 0.107474 -0.016104
v -0.006552 0.107474 -0.013946
v -0.011348 0.107474 -0.008052
v -0.013104 0.107474 -0.000000
v -0.011348 0.107474 0.008052
v -0.006552 0.107474 0.013946
v -0.000000 0.107474 0.016104
v 0.006552 0.107474 0.013946
v 0.011348 0.107474 0.008052
v 0.014954 0.119158 0.000000
v 0.012951 0.119158 -0.008977
v 0.007477 0.119158 -0.015549
v 0.000000 0.119158 -0.017954
v -0.007477 0.119158 -0.015549
v -0.012951 0.119158 -0.008977
v -0.014954 0.119158 -0.000000
v -0.012951 0.119158 0.008977
v -0.007477 0.119158 0.015549
v -0.000000 0.119158 0.017954
v 0.007477 0.119158 0.015549
v 0.012951 0.119158 0.008977
v 0.013454 0.130842 0.000000
v 0.011652 0.130842 -0.008227
v 0.006727 0.130842 -0.014250
v 0.000000 0.130842 -0.016454
v -0.006727 0.130842 -0.014250
v -0.011652 0.130842 -0.008227
v -0.013454 0.130842 -0.000000
v -0.011652 0.130842 0.008227
v -0.006727 0.130842 0.014250
v -0.000000 0.130842 0.016454
v 0.006727 0.130842 0.014250
v 0.011652 0.130842 0.008227
v 0.014604 0.142526 0.000000
v 0.012647 0.142526 -0.008802
v 0.007302 0.142526 -0.015245
v 0.000000 0.142526 -0.017604
v -0.007302 0.142526 -0.015245
v -0.012647 0.142526 -0.008802
v -0.014604 0.142526 -0.000000
v -0.012647 0.142526 0.008802
v -0.007302 0.142526 0.015245
v -0.000000 0.142526 0.017604
v 0.007302 0.142526 0.015245
v 0.012647 0.142526 0.008802
v 0.012487 0.154211 0.000000
v 0.010814 0.154211 -0.007744
v 0.006244 0.154211 -0.013412
v 0.000000 0.154211 -0.015487
v -0.006244 0.154211 -0.013412
v -0.010814 0.154211 -0.007744
v -0.012487 0.154211 -0.000000
v -0.010814 0.154211 0.007744
v -0.006244 0.154211 0.013412
v -0.000000 0.154211 0.015487
v 0.006244 0.154211 0.013412
v 0.010814 0.154211 0.007744
v 0.013500 0.165895 0.000000
v 0.011691 0.165895 -0.008250
v 0.006750 0.165895 -0.014289
v 0.000000 0.165895 -0.016500
v -0.006750 0.165895 -0.014289
v -0.011691 0.165895 -0.008250
v -0.013500 0.165895 -0.000000
v -0.011691 0.165895 0.008250
v -0.006750 0.165895 0.014289
v -0.000000 0.165895 0.016500
v 0.006750 0.165895 0.014289
v 0.011691 0.165895 0.008250
v 0.012000 0.177579 0.000000
v 0.010392 0.177579 -0.007500
v 0.006000 0.177579 -0.012990
v 0.000000 0.177579 -0.015000
v -0.006000 0.177579 -0.012990
v -0.010392 0.177579 -0.007500
v -0.012000 0.177579 -0.000000
v -0.010392 0.177579 0.007500
v -0.006000 0.177579 0.012990
v -0.000000 0.177579 0.015000
v 0.006000 0.177579 0.012990
v 0.010392 0.177579 0.007500
v 0.013500 0.189263 0.000000
v 0.011691 0.189263 -0.008250
v 0.006750 0.189263 -0.014289
v 0.000000 0.189263 -0.016500
v -0.006750 0.189263 -0.014289
v -0.011691 0.189263 -0.008250
v -0.013500 0.189263 -0.000000
v -0.011691 0.189263 0.008250
v -0.006750 0.189263 0.014289
v -0.000000 0.189263 0.016500
v 0.006750 0.189263 0.014289
v 0.011691 0.189263 0.008250
v 0.012000 0.200947 0.000000
v 0.010392 0.200947 -0.007500
v 0.006000 0.200947 -0.012990
v 0.000000 0.200947 -0.015000
v -0.006000 0.200947 -0.012990
v -0.010392 0.200947 -0.007500
v -0.012000 0.200947 -0.000000
v -0.010392 0.200947 0.007500
v -0.006000 0.200947 0.012990
v -0.000000 0.200947 0.015000
v 0.006000 0.200947 0.012990
v 0.010392 0.200947 0.007500
v 0.013500 0.212632 0.000000
v 0.011691 0.212632 -0.008250
v 0.006750 0.212632 -0.014289
v 0.000000 0.212632 -0.016500
v -0.006750 0.212632 -0.014289
v -0.011691 0.212632 -0.008250
v -0.013500 0.212632 -0.000000
v -0.011691 0.212632 0.008250
v -0.006750 0.212632 0.014289
v -0.000000 0.212632 0.016500
v 0.006750 0.212632 0.014289
v 0.011691 0.212632 0.008250
v 0.012000 0.224316 0.000000
v 0.010392 0.224316 -0.007500
v 0.006000 0.224316 -0.012990
v 0.000000 0.224316 -0.015000
v -0.006000 0.224316 -0.012990
v -0.010392 0.224316 -0.007500
v -0.012000 0.224316 -0.000000
v -0.010392 0.224316 0.007500
v -0.006000 0.224316 0.012990
v -0.000000 0.224316 0.015000
v 0.006000 0.224316 0.012990
v 0.010392 0.224316 0.007500
v 0.012000 0.236000 0.000000
v 0.010392 0.236000 -0.007500
v 0.006000 0.236000 -0.012990
v 0.000000 0.236000 -0.015000
v -0.006000 0.236000 -0.012990
v -0.010392 0.236000 -0.007500
v -0.012000 0.236000 -0.000000
v -0.010392 0.236000 0.007500
v -0.006000 0.236000 0.012990
v -0.000000 0.236000 0.015000
v 0.006000 0.236000 0.012990
v 0.010392 0.236000 0.007500
v 0.012000 0.236000 0.000000
v 0.011087 0.236000 -0.005740
v 0.008485 0.236000 -0.010607
v 0.004592 0.236000 -0.013858
v 0.000000 0.236000 -0.015000
v -0.004592 0.236000 -0.013858
v -0.008485 0.236000 -0.010607
v -0.011087 0.236000 -0.005740
v -0.012000 0.236000 -0.000000
v -0.011087 0.236000 0.005740
v -0.008485 0.236000 0.010607
v -0.004592 0.236000 0.013858
v -0.000000 0.236000 0.015000
v 0.004592 0.236000 0.013858
v 0.008485 0.236000 0.010607
v 0.011087 0.236000 0.005740
v 0.013000 0.237500 0.000000
v 0.012010 0.237500 -0.006123
v 0.009192 0.237500 -0.011314
v 0.004975 0.237500 -0.014782
v 0.000000 0.237500 -0.016000
v -0.004975 0.237500 -0.014782
v -0.009192 0.237500 -0.011314
v -0.012010 0.237500 -0.006123
v -0.013000 0.237500 -0.000000
v -0.012010 0.237500 0.006123
v -0.009192 0.237500 0.011314
v -0.004975 0.237500 0.014782
v -0.000000 0.237500 0.016000
v 0.004975 0.237500 0.014782
v 0.009192 0.237500 0.011314
v 0.012010 0.237500 0.006123
v 0.013000 0.250000 0.000000
v 0.012010 0.250000 -0.006123
v 0.009192 0.250000 -0.011314
v 0.004975 0.250000 -0.014782
v 0.000000 0.250000 -0.016000
v -0.004975 0.250000 -0.014782
v -0.009192 0.250000 -0.011314
v -0.012010 0.250000 -0.006123
v -0.013000 0.250000 -0.000000
v -0.012010 0.250000 0.006123
v -0.009192 0.250000 0.011314
v -0.004975 0.250000 0.014782
v -0.000000 0.250000 0.016000
v 0.004975 0.250000 0.014782
v 0.009192 0.250000 0.011314
v 0.012010 0.250000 0.006123
v 0.030200 0.250000 -0.025343
v 0.026861 0.250000 -0.026008
v 0.023352 0.250000 -0.028352
v 0.021008 0.250000 -0.031861
v 0.020343 0.250000 -0.035200
v -0.020343 0.250000 -0.035200
v -0.021008 0.250000 -0.031861
v -0.023352 0.250000 -0.028352
v -0.026861 0.250000 -0.026008
v -0.030200 0.250000 -0.025343
v -0.030200 0.250000 0.025343
v -0.026861 0.250000 0.026008
v -0.023352 0.250000 0.028352
v -0.021008 0.250000 0.031861
v -0.020343 0.250000 0.035200
v 0.020343 0.250000 0.035200
v 0.021008 0.250000 0.031861
v 0.023352 0.250000 0.028352
v 0.026861 0.250000 0.026008
v 0.030200 0.250000 0.025343
v 0.031000 0.250800 -0.026000
v 0.027173 0.250800 -0.026761
v 0.023929 0.250800 -0.028929
v 0.021761 0.250800 -0.032173
v 0.021000 0.250800 -0.036000
v -0.021000 0.250800 -0.036000
v -0.021761 0.250800 -0.032173
v -0.023929 0.250800 -0.028929
v -0.027173 0.250800 -0.026761
v -0.031000 0.250800 -0.026000
v -0.031000 0.250800 0.026000
v -0.027173 0.250800 0.026761
v -0.023929 0.250800 0.028929
v -0.021761 0.250800 0.032173
v -0.021000 0.250800 0.036000
v 0.021000 0.250800 0.036000
v 0.021761 0.250800 0.032173
v 0.023929 0.250800 0.028929
v 0.027173 0.250800 0.026761
v 0.031000 0.250800 0.026000
v 0.031000 0.255200 -0.026000
v 0.027173 0.255200 -0.026761
v 0.023929 0.255200 -0.028929
v 0.021761 0.255200 -0.032173
v 0.021000 0.255200 -0.036000
v -0.021000 0.255200 -0.036000
v -0.021761 0.255200 -0.032173
v -0.023929 0.255200 -0.028929
v -0.027173 0.255200 -0.026761
v -0.031000 0.255200 -0.026000
v -0.031000 0.255200 0.026000
v -0.027173 0.255200 0.026761
v -0.023929 0.255200 0.028929
v -0.021761 0.255200 0.032173
v -0.021000 0.255200 0.036000
v 0.021000 0.255200 0.036000
v 0.021761 0.255200 0.032173
v 0.023929 0.255200 0.028929
v 0.027173 0.255200 0.026761
v 0.031000 0.255200 0.026000
v 0.030200 0.256000 -0.025343
v 0.026861 0.256000 -0.026008
v 0.023352 0.256000 -0.028352
v 0.021008 0.256000 -0.031861
v 0.020343 0.256000 -0.035200
v -0.020343 0.256000 -0.035200
v -0.021008 0.256000 -0.031861
v -0.023352 0.256000 -0.028352
v -0.026861 0.256000 -0.026008
v -0.030200 0.256000 -0.025343
v -0.030200 0.256000 0.025343
v -0.026861 0.256000 0.026008
v -0.023352 0.256000 0.028352
v -0.021008 0.256000 0.031861
v -0.020343 0.256000 0.035200
v 0.020343 0.256000 0.035200
v 0.021008 0.256000 0.031861
v 0.023352 0.256000 0.028352
v 0.026861 0.256000 0.026008
v 0.030200 0.256000 0.025343
v -0.010000 0.250000 0.021700
v -0.007500 0.250000 0.021028
v -0.005000 0.250000 0.021352
v -0.002500 0.250000 0.021608
v 0.000000 0.250000 0.021700
v 0.002500 0.250000 0.021608
v 0.005000 0.250000 0.021352
v 0.007500 0.250000 0.021028
v 0.010000 0.250000 0.021700
v 0.010000 0.250000 0.022300
v 0.007500 0.250000 0.025597
v 0.005000 0.250000 0.027148
v 0.002500 0.250000 0.028017
v 0.000000 0.250000 0.028300
v -0.002500 0.250000 0.028017
v -0.005000 0.250000 0.027148
v -0.007500 0.250000 0.025597
v -0.010000 0.250000 0.022300
v -0.010000 0.250000 -0.022300
v -0.007500 0.250000 -0.025597
v -0.005000 0.250000 -0.027148
v -0.002500 0.250000 -0.028017
v 0.000000 0.250000 -0.028300
v 0.002500 0.250000 -0.028017
v 0.005000 0.250000 -0.027148
v 0.007500 0.250000 -0.025597
v 0.010000 0.250000 -0.022300
v 0.010000 0.250000 -0.021700
v 0.007500 0.250000 -0.021028
v 0.005000 0.250000 -0.021352
v 0.002500 0.250000 -0.021608
v 0.000000 0.250000 -0.021700
v -0.002500 0.250000 -0.021608
v -0.005000 0.250000 -0.021352
v -0.007500 0.250000 -0.021028
v -0.010000 0.250000 -0.021700
v -0.010000 0.256000 0.021700
v -0.007500 0.256000 0.021028
v -0.005000 0.256000 0.021352
v -0.002500 0.256000 0.021608
v 0.000000 0.256000 0.021700
v 0.002500 0.256000 0.021608
v 0.005000 0.256000 0.021352
v 0.007500 0.256000 0.021028
v 0.010000 0.256000 0.021700
v 0.010000 0.256000 0.022300
v 0.007500 0.256000 0.025597
v 0.005000 0.256000 0.027148
v 0.002500 0.256000 0.028017
v 0.000000 0.256000 0.028300
v -0.002500 0.256000 0.028017
v -0.005000 0.256000 0.027148
v -0.007500 0.256000 0.025597
v -0.010000 0.256000 0.022300
v -0.010000 0.256000 -0.022300
v -0.007500 0.256000 -0.025597
v -0.005000 0.256000 -0.027148
v -0.002500 0.256000 -0.028017
v 0.000000 0.256000 -0.028300
v 0.002500 0.256000 -0.028017
v 0.005000 0.256000 -0.027148
v 0.007500 0.256000 -0.025597
v 0.010000 0.256000 -0.022300
v 0.010000 0.256000 -0.021700
v 0.007500 0.256000 -0.021028
v 0.005000 0.256000 -0.021352
v 0.002500 0.256000 -0.021608
v 0.000000 0.256000 -0.021700
v -0.002500 0.256000 -0.021608
v -0.005000 0.256000 -0.021352
v -0.007500 0.256000 -0.021028
v -0.010000 0.256000 -0.021700
v 0.004000 0.256000 0.016000
v 0.005000 0.256000 0.015000
v 0.005000 0.256000 -0.015000
v 0.004000 0.256000 -0.016000
v -0.004000 0.256000 -0.016000
v -0.005000 0.256000 -0.015000
v -0.005000 0.256000 0.015000
v -0.004000 0.256000 0.016000
v 0.004000 0.284000 0.016000
v 0.005000 0.284000 0.015000
v 0.005000 0.284000 -0.015000
v 0.004000 0.284000 -0.016000
v -0.004000 0.284000 -0.016000
v -0.005000 0.284000 -0.015000
v -0.005000 0.284000 0.015000
v -0.004000 0.284000 0.016000
v 0.000000 0.978521 -0.086432
v 0.000500 0.284000 0.016000
v 0.005000 0.284000 -0.001600
v 0.005000 0.284000 -0.016000
v -0.005000 0.284000 -0.016000
v -0.005000 0.284000 -0.001600
v -0.000500 0.284000 0.016000
v 0.000500 0.346920 0.014850
v 0.004750 0.346568 -0.002197
v 0.004750 0.346280 -0.016144
v -0.004750 0.346280 -0.016144
v -0.004750 0.346568 -0.002197
v -0.000500 0.346920 0.014850
v 0.000500 0.409820 0.012398
v 0.004500 0.409138 -0.004087
v 0.004500 0.408580 -0.017576
v -0.004500 0.408580 -0.017576
v -0.004500 0.409138 -0.004087
v -0.000500 0.409820 0.012398
v 0.000500 0.472698 0.008648
v 0.004250 0.471710 -0.007272
v 0.004250 0.470902 -0.020297
v -0.004250 0.470902 -0.020297
v -0.004250 0.471710 -0.007272
v -0.000500 0.472698 0.008648
v 0.000500 0.535554 0.003598
v 0.004000 0.534285 -0.011750
v 0.004000 0.533246 -0.024307
v -0.004000 0.533246 -0.024307
v -0.004000 0.534285 -0.011750
v -0.000500 0.535554 0.003598
v 0.000500 0.598388 -0.002751
v 0.003750 0.596861 -0.017522
v 0.003750 0.595612 -0.029608
v -0.003750 0.595612 -0.029608
v -0.003750 0.596861 -0.017522
v -0.000500 0.598388 -0.002751
v 0.000500 0.661200 -0.010397
v 0.003500 0.659440 -0.024588
v 0.003500 0.658000 -0.036199
v -0.003500 0.658000 -0.036199
v -0.003500 0.659440 -0.024588
v -0.000500 0.661200 -0.010397
v 0.000500 0.723991 -0.019340
v 0.003250 0.722021 -0.032949
v 0.003250 0.720409 -0.044083
v -0.003250 0.720409 -0.044083
v -0.003250 0.722021 -0.032949
v -0.000500 0.723991 -0.019340
v 0.000500 0.786758 -0.029580
v 0.003000 0.784604 -0.042603
v 0.003000 0.782842 -0.053258
v -0.003000 0.782842 -0.053258
v -0.003000 0.784604 -0.042603
v -0.000500 0.786758 -0.029580
v 0.000500 0.849504 -0.041115
v 0.002750 0.847190 -0.053552
v 0.002750 0.845296 -0.063727
v -0.002750 0.845296 -0.063727
v -0.002750 0.847190 -0.053552
v -0.000500 0.849504 -0.041115
v 0.000500 0.912227 -0.053945
v 0.002500 0.909777 -0.065794
v 0.002500 0.907773 -0.075489
v -0.002500 0.907773 -0.075489
v -0.002500 0.909777 -0.065794
v -0.000500 0.912227 -0.053945
v 0.000500 0.945985 -0.067643
v 0.002000 0.944385 -0.074972
v 0.002000 0.943076 -0.080969
v -0.002000 0.943076 -0.080969
v -0.002000 0.944385 -0.074972
v -0.000500 0.945985 -0.067643
vn 0.8009 -0.5873 -0.1168
vn 0.7092 -0.6135 -0.3475
vn 0.5076 -0.6572 -0.5571
vn 0.1884 -0.6944 -0.6944
vn -0.1884 -0.6944 -0.6944
vn -0.5076 -0.6572 -0.5571
vn -0.7092 -0.6135 -0.3475
vn -0.8009 -0.5873 -0.1168
vn -0.8009 -0.5873 0.1168
vn -0.7092 -0.6135 0.3475
vn -0.5076 -0.6572 0.5571
vn -0.1884 -0.6944 0.6944
vn 0.1884 -0.6944 0.6944
vn 0.5076 -0.6572 0.5571
vn 0.7092 -0.6135 0.3475
vn 0.8009 -0.5873 0.1168
vn 0.9895 -0.0000 -0.1443
vn 0.8980 -0.0000 -0.4400
vn 0.6735 -0.0000 -0.7392
vn 0.2618 -0.0000 -0.9651
vn -0.2618 -0.0000 -0.9651
vn -0.6735 -0.0000 -0.7392
vn -0.8980 -0.0000 -0.4400
vn -0.9895 -0.0000 -0.1443
vn -0.9895 -0.0000 0.1443
vn -0.8980 -0.0000 0.4400
vn -0.6735 -0.0000 0.7392
vn -0.2618 -0.0000 0.9651
vn 0.2618 -0.0000 0.9651
vn 0.6735 -0.0000 0.7392
vn 0.8980 -0.0000 0.4400
vn 0.9895 -0.0000 0.1443
vn -0.0000 -1.0000 -0.0000
vn 0.9921 -0.1257 -0.0000
vn 0.8952 -0.1260 -0.4276
vn 0.9011 -0.0000 -0.4336
vn 1.0000 -0.0000 -0.0000
vn 0.5656 -0.1277 -0.8147
vn 0.5673 -0.0000 -0.8235
vn -0.0000 -0.1293 -0.9916
vn -0.0000 -0.0000 -1.0000
vn -0.5656 -0.1277 -0.8147
vn -0.5673 -0.0000 -0.8235
vn -0.8952 -0.1260 -0.4276
vn -0.9011 -0.0000 -0.4336
vn -0.9921 -0.1257 -0.0000
vn -1.0000 -0.0000 -0.0000
vn -0.8952 -0.1260 0.4276
vn -0.9011 -0.0000 0.4336
vn -0.5656 -0.1277 0.8147
vn -0.5673 -0.0000 0.8235
vn -0.0000 -0.1293 0.9916
vn -0.0000 -0.0000 1.0000
vn 0.5656 -0.1277 0.8147
vn 0.5673 -0.0000 0.8235
vn 0.8952 -0.1260 0.4276
vn 0.9011 -0.0000 0.4336
vn 0.9024 -0.0000 -0.4310
vn 0.5703 -0.0000 -0.8214
vn -0.5703 -0.0000 -0.8214
vn -0.9024 -0.0000 -0.4310
vn -0.9024 -0.0000 0.4310
vn -0.5703 -0.0000 0.8214
vn 0.5703 -0.0000 0.8214
vn 0.9024 -0.0000 0.4310
vn 0.9020 -0.0206 -0.4313
vn 0.9998 -0.0205 -0.0000
vn 0.5699 -0.0210 -0.8215
vn -0.0000 -0.0213 -0.9998
vn -0.5699 -0.0210 -0.8215
vn -0.9020 -0.0206 -0.4313
vn -0.9998 -0.0205 -0.0000
vn -0.9020 -0.0206 0.4313
vn -0.5699 -0.0210 0.8215
vn -0.0000 -0.0213 0.9998
vn 0.5699 -0.0210 0.8215
vn 0.9020 -0.0206 0.4313
vn 0.8991 -0.0452 -0.4354
vn 0.9990 -0.0452 -0.0000
vn 0.5644 -0.0456 -0.8243
vn -0.0000 -0.0461 -0.9989
vn -0.5644 -0.0456 -0.8243
vn -0.8991 -0.0452 -0.4354
vn -0.9990 -0.0452 -0.0000
vn -0.8991 -0.0452 0.4354
vn -0.5644 -0.0456 0.8243
vn -0.0000 -0.0461 0.9989
vn 0.5644 -0.0456 0.8243
vn 0.8991 -0.0452 0.4354
vn 0.8993 -0.0411 -0.4353
vn 0.9992 -0.0410 -0.0000
vn 0.5649 -0.0418 -0.8241
vn -0.0000 -0.0424 -0.9991
vn -0.5649 -0.0418 -0.8241
vn -0.8993 -0.0411 -0.4353
vn -0.9992 -0.0410 -0.0000
vn -0.8993 -0.0411 0.4353
vn -0.5649 -0.0418 0.8241
vn -0.0000 -0.0424 0.9991
vn 0.5649 -0.0418 0.8241
vn 0.8993 -0.0411 0.4353
vn 0.8982 -0.0143 -0.4394
vn 0.9999 -0.0143 -0.0000
vn 0.5611 -0.0144 -0.8276
vn -0.0000 -0.0145 -0.9999
vn -0.5611 -0.0144 -0.8276
vn -0.8982 -0.0143 -0.4394
vn -0.9999 -0.0143 -0.0000
vn -0.8982 -0.0143 0.4394
vn -0.5611 -0.0144 0.8276
vn -0.0000 -0.0145 0.9999
vn 0.5611 -0.0144 0.8276
vn 0.8982 -0.0143 0.4394
vn 0.8993 0.0149 -0.4370
vn 0.9999 0.0149 -0.0000
vn 0.5639 0.0152 -0.8257
vn -0.0000 0.0154 -0.9999
vn -0.5639 0.0152 -0.8257
vn -0.8993 0.0149 -0.4370
vn -0.9999 0.0149 -0.0000
vn -0.8993 0.0149 0.4370
vn -0.5639 0.0152 0.8257
vn -0.0000 0.0154 0.9999
vn 0.5639 0.0152 0.8257
vn 0.8993 0.0149 0.4370
vn 0.8982 0.0394 -0.4378
vn 0.9992 0.0393 -0.0000
vn 0.5621 0.0397 -0.8261
vn -0.0000 0.0401 -0.9992
vn -0.5621 0.0397 -0.8261
vn -0.8982 0.0394 -0.4378
vn -0.9992 0.0393 -0.0000
vn -0.8982 0.0394 0.4378
vn -0.5621 0.0397 0.8261
vn -0.0000 0.0401 0.9992
vn 0.5621 0.0397 0.8261
vn 0.8982 0.0394 0.4378
vn 0.9003 0.0468 -0.4328
vn 0.9989 0.0466 -0.0000
vn 0.5673 0.0476 -0.8222
vn -0.0000 0.0483 -0.9988
vn -0.5673 0.0476 -0.8222
vn -0.9003 0.0468 -0.4328
vn -0.9989 0.0466 -0.0000
vn -0.9003 0.0468 0.4328
vn -0.5673 0.0476 0.8222
vn -0.0000 0.0483 0.9988
vn 0.5673 0.0476 0.8222
vn 0.9003 0.0468 0.4328
vn 0.9008 0.0201 -0.4338
vn 0.9998 0.0201 -0.0000
vn 0.5668 0.0203 -0.8236
vn -0.0000 0.0205 -0.9998
vn -0.5668 0.0203 -0.8236
vn -0.9008 0.0201 -0.4338
vn -0.9998 0.0201 -0.0000
vn -0.9008 0.0201 0.4338
vn -0.5668 0.0203 0.8236
vn -0.0000 0.0205 0.9998
vn 0.5668 0.0203 0.8236
vn 0.9008 0.0201 0.4338
vn 0.9011 0.0637 -0.4289
vn 0.9980 0.0635 -0.0000
vn 0.5702 0.0647 -0.8189
vn -0.0000 0.0657 -0.9978
vn -0.5702 0.0647 -0.8189
vn -0.9011 0.0637 -0.4289
vn -0.9980 0.0635 -0.0000
vn -0.9011 0.0637 0.4289
vn -0.5702 0.0647 0.8189
vn -0.0000 0.0657 0.9978
vn 0.5702 0.0647 0.8189
vn 0.9011 0.0637 0.4289
vn 0.9035 -0.0000 -0.4286
vn 0.5726 -0.0000 -0.8199
vn -0.5726 -0.0000 -0.8199
vn -0.9035 -0.0000 -0.4286
vn -0.9035 -0.0000 0.4286
vn -0.5726 -0.0000 0.8199
vn 0.5726 -0.0000 0.8199
vn 0.9035 -0.0000 0.4286
vn 0.8266 -0.5470 -0.1326
vn 0.7378 -0.5455 -0.3976
vn 0.5348 -0.5452 -0.6455
vn 0.2005 -0.5469 -0.8129
vn -0.2005 -0.5469 -0.8129
vn -0.5348 -0.5452 -0.6455
vn -0.7378 -0.5455 -0.3976
vn -0.8266 -0.5470 -0.1326
vn -0.8266 -0.5470 0.1326
vn -0.7378 -0.5455 0.3976
vn -0.5348 -0.5452 0.6455
vn -0.2005 -0.5469 0.8129
vn 0.2005 -0.5469 0.8129
vn 0.5348 -0.5452 0.6455
vn 0.7378 -0.5455 0.3976
vn 0.8266 -0.5470 0.1326
vn 0.9872 -0.0000 -0.1595
vn 0.8788 -0.0000 -0.4771
vn 0.6352 -0.0000 -0.7724
vn 0.2378 -0.0000 -0.9713
vn -0.2378 -0.0000 -0.9713
vn -0.6352 -0.0000 -0.7724
vn -0.8788 -0.0000 -0.4771
vn -0.9872 -0.0000 -0.1595
vn -0.9872 -0.0000 0.1595
vn -0.8788 -0.0000 0.4771
vn -0.6352 -0.0000 0.7724
vn -0.2378 -0.0000 0.9713
vn 0.2378 -0.0000 0.9713
vn 0.6352 -0.0000 0.7724
vn 0.8788 -0.0000 0.4771
vn 0.9872 -0.0000 0.1595
vn 0.1379 -0.7071 -0.6935
vn 0.3929 -0.7071 -0.5879
vn 0.5879 -0.7071 -0.3928
vn 0.6935 -0.7071 -0.1380
vn -0.0000 -0.7071 -0.7071
vn -0.6935 -0.7071 -0.1380
vn -0.5879 -0.7071 -0.3929
vn -0.3929 -0.7071 -0.5879
vn -0.1379 -0.7071 -0.6935
vn -0.7071 -0.7071 -0.0000
vn -0.1379 -0.7071 0.6935
vn -0.3929 -0.7071 0.5879
vn -0.5879 -0.7071 0.3928
vn -0.6935 -0.7071 0.1380
vn -0.0000 -0.7071 0.7071
vn 0.6935 -0.7071 0.1380
vn 0.5879 -0.7071 0.3929
vn 0.3929 -0.7071 0.5879
vn 0.1379 -0.7071 0.6935
vn 0.7071 -0.7071 -0.0000
vn 0.1951 -0.0000 -0.9808
vn 0.5556 -0.0000 -0.8315
vn 0.8315 -0.0000 -0.5556
vn 0.9808 -0.0000 -0.1951
vn -0.9808 -0.0000 -0.1951
vn -0.8315 -0.0000 -0.5556
vn -0.5556 -0.0000 -0.8315
vn -0.1951 -0.0000 -0.9808
vn -0.1951 -0.0000 0.9808
vn -0.5556 -0.0000 0.8315
vn -0.8315 -0.0000 0.5556
vn -0.9808 -0.0000 0.1951
vn 0.9808 -0.0000 0.1951
vn 0.8315 -0.0000 0.5556
vn 0.5556 -0.0000 0.8315
vn 0.1951 -0.0000 0.9808
vn 0.1380 0.7071 -0.6935
vn 0.3928 0.7071 -0.5879
vn 0.5880 0.7071 -0.3928
vn 0.6935 0.7071 -0.1380
vn -0.0000 0.7071 -0.7071
vn -0.6935 0.7071 -0.1380
vn -0.5880 0.7071 -0.3928
vn -0.3928 0.7071 -0.5879
vn -0.1380 0.7071 -0.6935
vn -0.7071 0.7071 -0.0000
vn -0.1380 0.7071 0.6935
vn -0.3928 0.7071 0.5879
vn -0.5880 0.7071 0.3928
vn -0.6935 0.7071 0.1380
vn -0.0000 0.7071 0.7071
vn 0.6935 0.7071 0.1380
vn 0.5880 0.7071 0.3928
vn 0.3928 0.7071 0.5879
vn 0.1380 0.7071 0.6935
vn 0.7071 0.7071 -0.0000
vn -0.0000 1.0000 -0.0000
vn 0.0001 1.0000 -0.0000
vn 0.2595 -0.0000 0.9657
vn -0.1284 -0.0000 0.9917
vn -0.1018 -0.0000 0.9948
vn -0.0369 -0.0000 0.9993
vn 0.0369 -0.0000 0.9993
vn 0.1018 -0.0000 0.9948
vn 0.1284 -0.0000 0.9917
vn -0.2595 -0.0000 0.9657
vn -0.7968 -0.0000 -0.6042
vn -0.5272 -0.0000 -0.8497
vn -0.3284 -0.0000 -0.9445
vn -0.1124 -0.0000 -0.9937
vn 0.1124 -0.0000 -0.9937
vn 0.3284 -0.0000 -0.9445
vn 0.5272 -0.0000 -0.8497
vn 0.7968 -0.0000 -0.6042
vn 0.7968 -0.0000 0.6042
vn 0.5272 -0.0000 0.8497
vn 0.3284 -0.0000 0.9445
vn 0.1124 -0.0000 0.9937
vn -0.1124 -0.0000 0.9937
vn -0.3284 -0.0000 0.9445
vn -0.5272 -0.0000 0.8497
vn -0.7968 -0.0000 0.6042
vn -0.2595 -0.0000 -0.9657
vn 0.1284 -0.0000 -0.9917
vn 0.1018 -0.0000 -0.9948
vn 0.0369 -0.0000 -0.9993
vn -0.0369 -0.0000 -0.9993
vn -0.1018 -0.0000 -0.9948
vn -0.1284 -0.0000 -0.9917
vn 0.2595 -0.0000 -0.9657
vn 0.7071 -0.0000 0.7071
vn 0.7071 -0.0000 -0.7071
vn -0.7071 -0.0000 -0.7071
vn -0.7071 -0.0000 0.7071
vn 0.9696 0.0053 0.2448
vn 1.0000 0.0040 -0.0000
vn -0.0000 -0.0023 -1.0000
vn -1.0000 0.0040 -0.0000
vn -0.9696 0.0053 0.2448
vn -0.0000 0.0183 0.9998
vn 0.9711 0.0102 0.2386
vn 1.0000 0.0040 -0.0001
vn -0.0000 -0.0230 -0.9997
vn -1.0000 0.0040 -0.0001
vn -0.9711 0.0102 0.2386
vn -0.0000 0.0389 0.9992
vn 0.9726 0.0148 0.2319
vn 1.0000 0.0040 -0.0002
vn -0.0000 -0.0436 -0.9990
vn -1.0000 0.0040 -0.0002
vn -0.9726 0.0148 0.2319
vn -0.0000 0.0595 0.9982
vn 0.9743 0.0190 0.2245
vn 1.0000 0.0040 -0.0003
vn -0.0000 -0.0642 -0.9979
vn -1.0000 0.0040 -0.0003
vn -0.9743 0.0190 0.2245
vn -0.0000 0.0801 0.9968
vn 0.9760 0.0229 0.2166
vn 1.0000 0.0040 -0.0004
vn -0.0000 -0.0847 -0.9964
vn -1.0000 0.0040 -0.0004
vn -0.9760 0.0229 0.2166
vn -0.0000 0.1005 0.9949
vn 0.9778 0.0264 0.2080
vn -0.0000 -0.1051 -0.9945
vn -0.9778 0.0264 0.2080
vn -0.0000 0.1208 0.9927
vn 0.9796 0.0294 0.1987
vn 1.0000 0.0039 -0.0005
vn -0.0000 -0.1253 -0.9921
vn -1.0000 0.0039 -0.0005
vn -0.9796 0.0294 0.1987
vn -0.0000 0.1410 0.9900
vn 0.9815 0.0319 0.1886
vn 1.0000 0.0039 -0.0006
vn -0.0000 -0.1454 -0.9894
vn -1.0000 0.0039 -0.0006
vn -0.9815 0.0319 0.1886
vn -0.0000 0.1610 0.9870
vn 0.9835 0.0338 0.1776
vn 1.0000 0.0039 -0.0007
vn -0.0000 -0.1653 -0.9862
vn -1.0000 0.0039 -0.0007
vn -0.9835 0.0338 0.1776
vn -0.0000 0.1808 0.9835
vn 0.9856 0.0351 0.1656
vn 1.0000 0.0039 -0.0008
vn -0.0000 -0.1850 -0.9827
vn -1.0000 0.0039 -0.0008
vn -0.9856 0.0351 0.1656
vn -0.0000 0.2004 0.9797
vn 0.9841 0.0628 0.1663
vn 0.9999 0.0137 -0.0029
vn -0.0000 -0.1534 -0.9882
vn -0.9999 0.0137 -0.0029
vn -0.9841 0.0628 0.1663
vn -0.0000 0.3760 0.9266
vn 0.9778 0.1160 0.1748
vn 0.9984 0.0545 -0.0119
vn -0.0000 -0.1523 -0.9883
vn -0.9984 0.0545 -0.0119
vn -0.9778 0.1160 0.1748
vn -0.0000 0.5001 0.8660
vt 0.646484 0.710938
vt 0.658142 0.710938
vt 0.658142 0.717188
vt 0.646484 0.717188
vt 0.669033 0.710938
vt 0.669033 0.717188
vt 0.678735 0.710938
vt 0.678735 0.717188
vt 0.687500 0.710938
vt 0.687500 0.717188
vt 0.523438 0.710938
vt 0.532203 0.710938
vt 0.532203 0.717188
vt 0.523438 0.717188
vt 0.541905 0.710938
vt 0.541905 0.717188
vt 0.552795 0.710938
vt 0.552795 0.717188
vt 0.564453 0.710938
vt 0.564453 0.717188
vt 0.576111 0.710938
vt 0.576111 0.717188
vt 0.587001 0.710938
vt 0.587001 0.717188
vt 0.596704 0.710938
vt 0.596704 0.717188
vt 0.605469 0.710938
vt 0.605469 0.717188
vt 0.614234 0.710938
vt 0.614234 0.717188
vt 0.623936 0.710938
vt 0.623936 0.717188
vt 0.634827 0.710938
vt 0.634827 0.717188
vt 0.658142 0.742188
vt 0.646484 0.742188
vt 0.669033 0.742188
vt 0.678735 0.742188
vt 0.687500 0.742188
vt 0.532203 0.742188
vt 0.523438 0.742188
vt 0.541905 0.742188
vt 0.552795 0.742188
vt 0.564453 0.742188
vt 0.576111 0.742188
vt 0.587001 0.742188
vt 0.596704 0.742188
vt 0.605469 0.742188
vt 0.614234 0.742188
vt 0.623936 0.742188
vt 0.634827 0.742188
vt 0.734376 0.736662
vt 0.741001 0.730626
vt 0.718749 0.736662
vt 0.183594 0.398438
vt 0.204966 0.398438
vt 0.204786 0.429688
vt 0.183594 0.429688
vt 0.224557 0.398438
vt 0.224366 0.429688
vt 0.242188 0.398438
vt 0.242188 0.429688
vt 0.007812 0.398438
vt 0.025443 0.398438
vt 0.025634 0.429688
vt 0.007812 0.429688
vt 0.045034 0.398438
vt 0.045214 0.429688
vt 0.066406 0.398438
vt 0.066406 0.429688
vt 0.087778 0.398438
vt 0.087598 0.429688
vt 0.107369 0.398438
vt 0.107178 0.429688
vt 0.125000 0.398438
vt 0.125000 0.429688
vt 0.142631 0.398438
vt 0.142822 0.429688
vt 0.162222 0.398438
vt 0.162402 0.429688
vt 0.204966 0.460938
vt 0.183594 0.460938
vt 0.224557 0.460938
vt 0.242188 0.460938
vt 0.025443 0.460938
vt 0.007812 0.460938
vt 0.045034 0.460938
vt 0.066406 0.460938
vt 0.087778 0.460938
vt 0.107369 0.460938
vt 0.125000 0.460938
vt 0.142631 0.460938
vt 0.162222 0.460938
vt 0.204786 0.492188
vt 0.183594 0.492188
vt 0.224366 0.492188
vt 0.242188 0.492188
vt 0.025634 0.492188
vt 0.007812 0.492188
vt 0.045214 0.492188
vt 0.066406 0.492188
vt 0.087598 0.492188
vt 0.107178 0.492188
vt 0.125000 0.492188
vt 0.142822 0.492188
vt 0.162402 0.492188
vt 0.204966 0.523438
vt 0.183594 0.523438
vt 0.224557 0.523438
vt 0.242188 0.523438
vt 0.025443 0.523438
vt 0.007812 0.523438
vt 0.045034 0.523438
vt 0.066406 0.523438
vt 0.087778 0.523438
vt 0.107369 0.523438
vt 0.125000 0.523438
vt 0.142631 0.523438
vt 0.162222 0.523438
vt 0.204786 0.554688
vt 0.183594 0.554688
vt 0.224366 0.554688
vt 0.242188 0.554688
vt 0.025634 0.554688
vt 0.007812 0.554688
vt 0.045214 0.554688
vt 0.066406 0.554688
vt 0.087598 0.554688
vt 0.107178 0.554688
vt 0.125000 0.554688
vt 0.142822 0.554688
vt 0.162402 0.554688
vt 0.204966 0.585938
vt 0.183594 0.585938
vt 0.224557 0.585938
vt 0.242188 0.585938
vt 0.025443 0.585938
vt 0.007812 0.585938
vt 0.045034 0.585938
vt 0.066406 0.585938
vt 0.087778 0.585938
vt 0.107369 0.585938
vt 0.125000 0.585938
vt 0.142631 0.585938
vt 0.162222 0.585938
vt 0.204735 0.617188
vt 0.183594 0.617188
vt 0.224311 0.617188
vt 0.242188 0.617188
vt 0.025689 0.617188
vt 0.007812 0.617188
vt 0.045265 0.617188
vt 0.066406 0.617188
vt 0.087547 0.617188
vt 0.107124 0.617188
vt 0.125000 0.617188
vt 0.142876 0.617188
vt 0.162453 0.617188
vt 0.204830 0.648438
vt 0.183594 0.648438
vt 0.224412 0.648438
vt 0.242188 0.648438
vt 0.025588 0.648438
vt 0.007812 0.648438
vt 0.045170 0.648438
vt 0.066406 0.648438
vt 0.087642 0.648438
vt 0.107225 0.648438
vt 0.125000 0.648438
vt 0.142775 0.648438
vt 0.162358 0.648438
vt 0.204642 0.679688
vt 0.183594 0.679688
vt 0.224214 0.679688
vt 0.242188 0.679688
vt 0.025786 0.679688
vt 0.007812 0.679688
vt 0.045358 0.679688
vt 0.066406 0.679688
vt 0.087455 0.679688
vt 0.107026 0.679688
vt 0.125000 0.679688
vt 0.142974 0.679688
vt 0.162545 0.679688
vt 0.204791 0.710938
vt 0.183594 0.710938
vt 0.224371 0.710938
vt 0.242188 0.710938
vt 0.025629 0.710938
vt 0.007812 0.710938
vt 0.045209 0.710938
vt 0.066406 0.710938
vt 0.087603 0.710938
vt 0.107183 0.710938
vt 0.125000 0.710938
vt 0.142817 0.710938
vt 0.162397 0.710938
vt 0.204674 0.742188
vt 0.183594 0.742188
vt 0.224248 0.742188
vt 0.242188 0.742188
vt 0.025752 0.742188
vt 0.007812 0.742188
vt 0.045326 0.742188
vt 0.066406 0.742188
vt 0.087487 0.742188
vt 0.107060 0.742188
vt 0.125000 0.742188
vt 0.142940 0.742188
vt 0.162513 0.742188
vt 0.204903 0.773438
vt 0.183594 0.773438
vt 0.224490 0.773438
vt 0.242188 0.773438
vt 0.025510 0.773438
vt 0.007812 0.773438
vt 0.045097 0.773438
vt 0.066406 0.773438
vt 0.087716 0.773438
vt 0.107303 0.773438
vt 0.125000 0.773438
vt 0.142697 0.773438
vt 0.162284 0.773438
vt 0.204786 0.804688
vt 0.183594 0.804688
vt 0.224366 0.804688
vt 0.242188 0.804688
vt 0.025634 0.804688
vt 0.007812 0.804688
vt 0.045214 0.804688
vt 0.066406 0.804688
vt 0.087598 0.804688
vt 0.107178 0.804688
vt 0.125000 0.804688
vt 0.142822 0.804688
vt 0.162402 0.804688
vt 0.204966 0.835938
vt 0.183594 0.835938
vt 0.224557 0.835938
vt 0.242188 0.835938
vt 0.025443 0.835938
vt 0.007812 0.835938
vt 0.045034 0.835938
vt 0.066406 0.835938
vt 0.087778 0.835938
vt 0.107369 0.835938
vt 0.125000 0.835938
vt 0.142631 0.835938
vt 0.162222 0.835938
vt 0.204786 0.867188
vt 0.183594 0.867188
vt 0.224366 0.867188
vt 0.242188 0.867188
vt 0.025634 0.867188
vt 0.007812 0.867188
vt 0.045214 0.867188
vt 0.066406 0.867188
vt 0.087598 0.867188
vt 0.107178 0.867188
vt 0.125000 0.867188
vt 0.142822 0.867188
vt 0.162402 0.867188
vt 0.204966 0.898438
vt 0.183594 0.898438
vt 0.224557 0.898438
vt 0.242188 0.898438
vt 0.025443 0.898438
vt 0.007812 0.898438
vt 0.045034 0.898438
vt 0.066406 0.898438
vt 0.087778 0.898438
vt 0.107369 0.898438
vt 0.125000 0.898438
vt 0.142631 0.898438
vt 0.162222 0.898438
vt 0.204786 0.929688
vt 0.183594 0.929688
vt 0.224366 0.929688
vt 0.242188 0.929688
vt 0.025634 0.929688
vt 0.007812 0.929688
vt 0.045214 0.929688
vt 0.066406 0.929688
vt 0.087598 0.929688
vt 0.107178 0.929688
vt 0.125000 0.929688
vt 0.142822 0.929688
vt 0.162402 0.929688
vt 0.204966 0.960938
vt 0.183594 0.960938
vt 0.224557 0.960938
vt 0.242188 0.960938
vt 0.025443 0.960938
vt 0.007812 0.960938
vt 0.045034 0.960938
vt 0.066406 0.960938
vt 0.087778 0.960938
vt 0.107369 0.960938
vt 0.125000 0.960938
vt 0.142631 0.960938
vt 0.162222 0.960938
vt 0.204966 0.992188
vt 0.183594 0.992188
vt 0.224557 0.992188
vt 0.242188 0.992188
vt 0.025443 0.992188
vt 0.007812 0.992188
vt 0.045034 0.992188
vt 0.066406 0.992188
vt 0.087778 0.992188
vt 0.107369 0.992188
vt 0.125000 0.992188
vt 0.142631 0.992188
vt 0.162222 0.992188
vt 0.664062 0.664062
vt 0.676954 0.664062
vt 0.676875 0.669688
vt 0.664062 0.669688
vt 0.689192 0.664062
vt 0.689077 0.669688
vt 0.700442 0.664062
vt 0.700357 0.669688
vt 0.710938 0.664062
vt 0.710938 0.669688
vt 0.523438 0.664062
vt 0.533933 0.664062
vt 0.534018 0.669688
vt 0.523438 0.669688
vt 0.545183 0.664062
vt 0.545298 0.669688
vt 0.557421 0.664062
vt 0.557500 0.669688
vt 0.570312 0.664062
vt 0.570312 0.669688
vt 0.583204 0.664062
vt 0.583125 0.669688
vt 0.595442 0.664062
vt 0.595327 0.669688
vt 0.606692 0.664062
vt 0.606607 0.669688
vt 0.617188 0.664062
vt 0.617188 0.669688
vt 0.627683 0.664062
vt 0.627768 0.669688
vt 0.638933 0.664062
vt 0.639048 0.669688
vt 0.651171 0.664062
vt 0.651250 0.669688
vt 0.676875 0.695312
vt 0.664062 0.695312
vt 0.689077 0.695312
vt 0.700357 0.695312
vt 0.710938 0.695312
vt 0.534018 0.695312
vt 0.523438 0.695312
vt 0.545298 0.695312
vt 0.557500 0.695312
vt 0.570312 0.695312
vt 0.583125 0.695312
vt 0.595327 0.695312
vt 0.606607 0.695312
vt 0.617188 0.695312
vt 0.627768 0.695312
vt 0.639048 0.695312
vt 0.651250 0.695312
vt 0.523438 0.781250
vt 0.529524 0.781250
vt 0.529524 0.790625
vt 0.523438 0.790625
vt 0.535610 0.781250
vt 0.535610 0.790625
vt 0.541696 0.781250
vt 0.541696 0.790625
vt 0.547782 0.781250
vt 0.547782 0.790625
vt 0.613295 0.781250
vt 0.613295 0.790625
vt 0.619381 0.781250
vt 0.619381 0.790625
vt 0.625467 0.781250
vt 0.625467 0.790625
vt 0.631553 0.781250
vt 0.631553 0.790625
vt 0.637639 0.781250
vt 0.637639 0.790625
vt 0.718750 0.781250
vt 0.718750 0.790625
vt 0.724836 0.781250
vt 0.724836 0.790625
vt 0.730922 0.781250
vt 0.730922 0.790625
vt 0.737008 0.781250
vt 0.737008 0.790625
vt 0.743095 0.781250
vt 0.743095 0.790625
vt 0.808607 0.781250
vt 0.808607 0.790625
vt 0.814693 0.781250
vt 0.814693 0.790625
vt 0.820779 0.781250
vt 0.820779 0.790625
vt 0.826865 0.781250
vt 0.826865 0.790625
vt 0.832952 0.781250
vt 0.832952 0.790625
vt 0.914062 0.781250
vt 0.914062 0.790625
vt 0.529524 0.803125
vt 0.523438 0.803125
vt 0.535610 0.803125
vt 0.541696 0.803125
vt 0.547782 0.803125
vt 0.613295 0.803125
vt 0.619381 0.803125
vt 0.625467 0.803125
vt 0.631553 0.803125
vt 0.637639 0.803125
vt 0.718750 0.803125
vt 0.724836 0.803125
vt 0.730922 0.803125
vt 0.737008 0.803125
vt 0.743095 0.803125
vt 0.808607 0.803125
vt 0.814693 0.803125
vt 0.820779 0.803125
vt 0.826865 0.803125
vt 0.832952 0.803125
vt 0.914062 0.803125
vt 0.529524 0.812500
vt 0.523438 0.812500
vt 0.535610 0.812500
vt 0.541696 0.812500
vt 0.547782 0.812500
vt 0.613295 0.812500
vt 0.619381 0.812500
vt 0.625467 0.812500
vt 0.631553 0.812500
vt 0.637639 0.812500
vt 0.718750 0.812500
vt 0.724836 0.812500
vt 0.730922 0.812500
vt 0.737008 0.812500
vt 0.743095 0.812500
vt 0.808607 0.812500
vt 0.814693 0.812500
vt 0.820779 0.812500
vt 0.826865 0.812500
vt 0.832952 0.812500
vt 0.914062 0.812500
vt 0.639704 0.979852
vt 0.638251 0.987156
vt 0.549249 0.987156
vt 0.704046 0.979852
vt 0.794501 0.987156
vt 0.705499 0.987156
vt 0.547796 0.979852
vt 0.795954 0.979852
vt 0.644833 0.972177
vt 0.698917 0.972177
vt 0.542667 0.972177
vt 0.801083 0.972177
vt 0.652508 0.967048
vt 0.593750 0.972063
vt 0.691242 0.967048
vt 0.750000 0.972063
vt 0.534992 0.967048
vt 0.808758 0.967048
vt 0.599219 0.971444
vt 0.744531 0.971444
vt 0.588281 0.971444
vt 0.755469 0.971444
vt 0.604688 0.969543
vt 0.739062 0.969543
vt 0.582812 0.969543
vt 0.760938 0.969543
vt 0.610156 0.966149
vt 0.733594 0.966149
vt 0.577344 0.966149
vt 0.766406 0.966149
vt 0.659813 0.965595
vt 0.683937 0.965595
vt 0.527687 0.965595
vt 0.816063 0.965595
vt 0.615625 0.958938
vt 0.728125 0.958938
vt 0.571875 0.958938
vt 0.771875 0.958938
vt 0.659813 0.854717
vt 0.683937 0.854717
vt 0.527687 0.854717
vt 0.816063 0.854717
vt 0.615625 0.957625
vt 0.728125 0.957625
vt 0.571875 0.957625
vt 0.771875 0.957625
vt 0.610156 0.956155
vt 0.733594 0.956155
vt 0.599219 0.957423
vt 0.593750 0.957625
vt 0.588281 0.957423
vt 0.744531 0.957423
vt 0.755469 0.957423
vt 0.750000 0.957625
vt 0.577344 0.956155
vt 0.766406 0.956155
vt 0.604688 0.956864
vt 0.739062 0.956864
vt 0.582812 0.956864
vt 0.760938 0.956864
vt 0.610156 0.864157
vt 0.733594 0.864157
vt 0.577344 0.864157
vt 0.766406 0.864157
vt 0.615625 0.862688
vt 0.728125 0.862688
vt 0.604688 0.863449
vt 0.739062 0.863449
vt 0.582812 0.863449
vt 0.760938 0.863449
vt 0.571875 0.862688
vt 0.771875 0.862688
vt 0.599219 0.862889
vt 0.744531 0.862889
vt 0.588281 0.862889
vt 0.755469 0.862889
vt 0.593750 0.862688
vt 0.750000 0.862688
vt 0.615625 0.861375
vt 0.728125 0.861375
vt 0.571875 0.861375
vt 0.771875 0.861375
vt 0.610156 0.854163
vt 0.733594 0.854163
vt 0.577344 0.854163
vt 0.766406 0.854163
vt 0.652508 0.853265
vt 0.691242 0.853265
vt 0.534992 0.853265
vt 0.808758 0.853265
vt 0.604688 0.850770
vt 0.739062 0.850770
vt 0.582812 0.850770
vt 0.760938 0.850770
vt 0.644833 0.848136
vt 0.698917 0.848136
vt 0.542667 0.848136
vt 0.801083 0.848136
vt 0.599219 0.848869
vt 0.744531 0.848869
vt 0.588281 0.848869
vt 0.755469 0.848869
vt 0.593750 0.848250
vt 0.750000 0.848250
vt 0.639704 0.840460
vt 0.704046 0.840460
vt 0.547796 0.840460
vt 0.795954 0.840460
vt 0.638251 0.833156
vt 0.705499 0.833156
vt 0.549249 0.833156
vt 0.794501 0.833156
vt 0.523438 0.757812
vt 0.526079 0.757812
vt 0.526079 0.773438
vt 0.523438 0.773438
vt 0.528652 0.757812
vt 0.528652 0.773438
vt 0.531216 0.757812
vt 0.531216 0.773438
vt 0.533769 0.757812
vt 0.533769 0.773438
vt 0.536322 0.757812
vt 0.536322 0.773438
vt 0.538887 0.757812
vt 0.538887 0.773438
vt 0.541459 0.757812
vt 0.541459 0.773438
vt 0.544101 0.757812
vt 0.544101 0.773438
vt 0.544713 0.757812
vt 0.544713 0.773438
vt 0.548936 0.757812
vt 0.548936 0.773438
vt 0.551938 0.757812
vt 0.551938 0.773438
vt 0.554639 0.757812
vt 0.554639 0.773438
vt 0.557207 0.757812
vt 0.557207 0.773438
vt 0.559774 0.757812
vt 0.559774 0.773438
vt 0.562475 0.757812
vt 0.562475 0.773438
vt 0.565478 0.757812
vt 0.565478 0.773438
vt 0.569700 0.757812
vt 0.569700 0.773438
vt 0.570312 0.757812
vt 0.570312 0.773438
vt 0.527660 0.757812
vt 0.527660 0.773438
vt 0.530662 0.757812
vt 0.530662 0.773438
vt 0.533363 0.757812
vt 0.533363 0.773438
vt 0.535931 0.757812
vt 0.535931 0.773438
vt 0.538498 0.757812
vt 0.538498 0.773438
vt 0.541199 0.757812
vt 0.541199 0.773438
vt 0.544202 0.757812
vt 0.544202 0.773438
vt 0.548424 0.757812
vt 0.548424 0.773438
vt 0.549037 0.757812
vt 0.549037 0.773438
vt 0.551678 0.757812
vt 0.551678 0.773438
vt 0.554251 0.757812
vt 0.554251 0.773438
vt 0.556815 0.757812
vt 0.556815 0.773438
vt 0.559368 0.757812
vt 0.559368 0.773438
vt 0.561921 0.757812
vt 0.561921 0.773438
vt 0.564486 0.757812
vt 0.564486 0.773438
vt 0.567058 0.757812
vt 0.567058 0.773438
vt 0.602856 0.601562
vt 0.605156 0.601562
vt 0.605156 0.648438
vt 0.602856 0.648438
vt 0.653950 0.601562
vt 0.653950 0.648438
vt 0.656250 0.601562
vt 0.656250 0.648438
vt 0.523438 0.601562
vt 0.536449 0.601562
vt 0.536449 0.648438
vt 0.523438 0.648438
vt 0.538749 0.601562
vt 0.538749 0.648438
vt 0.587544 0.601562
vt 0.587544 0.648438
vt 0.589844 0.601562
vt 0.589844 0.648438
vt 0.690820 0.611523
vt 0.692500 0.609844
vt 0.707617 0.611523
vt 0.257812 0.445312
vt 0.275000 0.445312
vt 0.275000 0.494500
vt 0.257812 0.494500
vt 0.289062 0.445312
vt 0.289062 0.494500
vt 0.335938 0.445312
vt 0.351562 0.445312
vt 0.351562 0.494500
vt 0.335938 0.494500
vt 0.328125 0.445312
vt 0.314063 0.445312
vt 0.314063 0.494500
vt 0.328125 0.494500
vt 0.296875 0.445312
vt 0.296875 0.494500
vt 0.359375 0.445312
vt 0.367188 0.445312
vt 0.367188 0.494500
vt 0.359375 0.494500
vt 0.275000 0.543687
vt 0.257812 0.543687
vt 0.289062 0.543687
vt 0.351562 0.543687
vt 0.335938 0.543687
vt 0.314063 0.543687
vt 0.328125 0.543687
vt 0.296875 0.543687
vt 0.367188 0.543687
vt 0.359375 0.543687
vt 0.275000 0.592874
vt 0.257812 0.592874
vt 0.289062 0.592874
vt 0.351562 0.592874
vt 0.335938 0.592874
vt 0.314063 0.592874
vt 0.328125 0.592874
vt 0.296875 0.592874
vt 0.367188 0.592874
vt 0.359375 0.592874
vt 0.275000 0.642062
vt 0.257812 0.642062
vt 0.289062 0.642062
vt 0.351562 0.642062
vt 0.335938 0.642062
vt 0.314063 0.642062
vt 0.328125 0.642062
vt 0.296875 0.642062
vt 0.367188 0.642062
vt 0.359375 0.642062
vt 0.275000 0.691249
vt 0.257812 0.691249
vt 0.289062 0.691249
vt 0.351562 0.691249
vt 0.335938 0.691249
vt 0.314063 0.691249
vt 0.328125 0.691249
vt 0.296875 0.691249
vt 0.367188 0.691249
vt 0.359375 0.691249
vt 0.275000 0.740436
vt 0.257812 0.740436
vt 0.289062 0.740436
vt 0.351562 0.740436
vt 0.335938 0.740436
vt 0.314063 0.740436
vt 0.328125 0.740436
vt 0.296875 0.740436
vt 0.367188 0.740436
vt 0.359375 0.740436
vt 0.275000 0.789624
vt 0.257812 0.789624
vt 0.289062 0.789624
vt 0.351562 0.789624
vt 0.335938 0.789624
vt 0.314063 0.789624
vt 0.328125 0.789624
vt 0.296875 0.789624
vt 0.367188 0.789624
vt 0.359375 0.789624
vt 0.275000 0.838811
vt 0.257812 0.838811
vt 0.289062 0.838811
vt 0.351562 0.838811
vt 0.335938 0.838811
vt 0.314063 0.838811
vt 0.328125 0.838811
vt 0.296875 0.838811
vt 0.367188 0.838811
vt 0.359375 0.838811
vt 0.275000 0.887998
vt 0.257812 0.887998
vt 0.289062 0.887998
vt 0.351562 0.887998
vt 0.335938 0.887998
vt 0.314063 0.887998
vt 0.328125 0.887998
vt 0.296875 0.887998
vt 0.367188 0.887998
vt 0.359375 0.887998
vt 0.275000 0.937186
vt 0.257812 0.937186
vt 0.289062 0.937186
vt 0.351562 0.937186
vt 0.335938 0.937186
vt 0.314063 0.937186
vt 0.328125 0.937186
vt 0.296875 0.937186
vt 0.367188 0.937186
vt 0.359375 0.937186
vt 0.275000 0.964687
vt 0.257812 0.964687
vt 0.289062 0.964687
vt 0.351562 0.964687
vt 0.335938 0.964687
vt 0.314063 0.964687
vt 0.328125 0.964687
vt 0.296875 0.964687
vt 0.367188 0.964687
vt 0.359375 0.964687
vt 0.266406 0.992188
vt 0.282031 0.992188
vt 0.343750 0.992188
vt 0.321094 0.992188
vt 0.305469 0.992188
vt 0.363281 0.992188
vt 0.745427 0.721593
vt 0.746981 0.710938
vt 0.706144 0.710938
vt 0.745427 0.700282
vt 0.707698 0.700282
vt 0.741001 0.691249
vt 0.734376 0.685213
vt 0.712124 0.691249
vt 0.726562 0.683094
vt 0.718749 0.685213
vt 0.707698 0.721593
vt 0.712124 0.730626
vt 0.726562 0.738781
vt 0.705938 0.609844
vt 0.707617 0.661914
vt 0.690820 0.661914
vt 0.705938 0.663594
vt 0.692500 0.663594
s 0
f 1/1/1 2/2/1 18/3/1 17/4/1
f 2/2/2 3/5/2 19/6/2 18/3/2
f 3/5/3 4/7/3 20/8/3 19/6/3
f 4/7/4 5/9/4 21/10/4 20/8/4
f 5/11/5 6/12/5 22/13/5 21/14/5
f 6/12/6 7/15/6 23/16/6 22/13/6
f 7/15/7 8/17/7 24/18/7 23/16/7
f 8/17/8 9/19/8 25/20/8 24/18/8
f 9/19/9 10/21/9 26/22/9 25/20/9
f 10/21/10 11/23/10 27/24/10 26/22/10
f 11/23/11 12/25/11 28/26/11 27/24/11
f 12/25/12 13/27/12 29/28/12 28/26/12
f 13/27/13 14/29/13 30/30/13 29/28/13
f 14/29/14 15/31/14 31/32/14 30/30/14
f 15/31/15 16/33/15 32/34/15 31/32/15
f 16/33/16 1/1/16 17/4/16 32/34/16
f 17/4/17 18/3/17 34/35/17 33/36/17
f 18/3/18 19/6/18 35/37/18 34/35/18
f 19/6/19 20/8/19 36/38/19 35/37/19
f 20/8/20 21/10/20 37/39/20 36/38/20
f 21/14/21 22/13/21 38/40/21 37/41/21
f 22/13/22 23/16/22 39/42/22 38/40/22
f 23/16/23 24/18/23 40/43/23 39/42/23
f 24/18/24 25/20/24 41/44/24 40/43/24
f 25/20/25 26/22/25 42/45/25 41/44/25
f 26/22/26 27/24/26 43/46/26 42/45/26
f 27/24/27 28/26/27 44/47/27 43/46/27
f 28/26/28 29/28/28 45/48/28 44/47/28
f 29/28/29 30/30/29 46/49/29 45/48/29
f 30/30/30 31/32/30 47/50/30 46/49/30
f 31/32/31 32/34/31 48/51/31 47/50/31
f 32/34/32 17/4/32 33/36/32 48/51/32
f 4/52/33 3/53/33 6/54/33
s 1
f 49/55/34 50/56/35 62/57/36 61/58/37
f 50/56/35 51/59/38 63/60/39 62/57/36
f 51/59/38 52/61/40 64/62/41 63/60/39
f 52/63/40 53/64/42 65/65/43 64/66/41
f 53/64/42 54/67/44 66/68/45 65/65/43
f 54/67/44 55/69/46 67/70/47 66/68/45
f 55/69/46 56/71/48 68/72/49 67/70/47
f 56/71/48 57/73/50 69/74/51 68/72/49
f 57/73/50 58/75/52 70/76/53 69/74/51
f 58/75/52 59/77/54 71/78/55 70/76/53
f 59/77/54 60/79/56 72/80/57 71/78/55
f 60/79/56 49/55/34 61/58/37 72/80/57
f 61/58/37 62/57/36 74/81/58 73/82/37
f 62/57/36 63/60/39 75/83/59 74/81/58
f 63/60/39 64/62/41 76/84/41 75/83/59
f 64/66/41 65/65/43 77/85/60 76/86/41
f 65/65/43 66/68/45 78/87/61 77/85/60
f 66/68/45 67/70/47 79/88/47 78/87/61
f 67/70/47 68/72/49 80/89/62 79/88/47
f 68/72/49 69/74/51 81/90/63 80/89/62
f 69/74/51 70/76/53 82/91/53 81/90/63
f 70/76/53 71/78/55 83/92/64 82/91/53
f 71/78/55 72/80/57 84/93/65 83/92/64
f 72/80/57 61/58/37 73/82/37 84/93/65
f 73/82/37 74/81/58 86/94/36 85/95/37
f 74/81/58 75/83/59 87/96/39 86/94/36
f 75/83/59 76/84/41 88/97/41 87/96/39
f 76/86/41 77/85/60 89/98/43 88/99/41
f 77/85/60 78/87/61 90/100/45 89/98/43
f 78/87/61 79/88/47 91/101/47 90/100/45
f 79/88/47 80/89/62 92/102/49 91/101/47
f 80/89/62 81/90/63 93/103/51 92/102/49
f 81/90/63 82/91/53 94/104/53 93/103/51
f 82/91/53 83/92/64 95/105/55 94/104/53
f 83/92/64 84/93/65 96/106/57 95/105/55
f 84/93/65 73/82/37 85/95/37 96/106/57
f 85/95/37 86/94/36 98/107/58 97/108/37
f 86/94/36 87/96/39 99/109/59 98/107/58
f 87/96/39 88/97/41 100/110/41 99/109/59
f 88/99/41 89/98/43 101/111/60 100/112/41
f 89/98/43 90/100/45 102/113/61 101/111/60
f 90/100/45 91/101/47 103/114/47 102/113/61
f 91/101/47 92/102/49 104/115/62 103/114/47
f 92/102/49 93/103/51 105/116/63 104/115/62
f 93/103/51 94/104/53 106/117/53 105/116/63
f 94/104/53 95/105/55 107/118/64 106/117/53
f 95/105/55 96/106/57 108/119/65 107/118/64
f 96/106/57 85/95/37 97/108/37 108/119/65
f 97/108/37 98/107/58 110/120/36 109/121/37
f 98/107/58 99/109/59 111/122/39 110/120/36
f 99/109/59 100/110/41 112/123/41 111/122/39
f 100/112/41 101/111/60 113/124/43 112/125/41
f 101/111/60 102/113/61 114/126/45 113/124/43
f 102/113/61 103/114/47 115/127/47 114/126/45
f 103/114/47 104/115/62 116/128/49 115/127/47
f 104/115/62 105/116/63 117/129/51 116/128/49
f 105/116/63 106/117/53 118/130/53 117/129/51
f 106/117/53 107/118/64 119/131/55 118/130/53
f 107/118/64 108/119/65 120/132/57 119/131/55
f 108/119/65 97/108/37 109/121/37 120/132/57
f 109/121/37 110/120/36 122/133/66 121/134/67
f 110/120/36 111/122/39 123/135/68 122/133/66
f 111/122/39 112/123/41 124/136/69 123/135/68
f 112/125/41 113/124/43 125/137/70 124/138/69
f 113/124/43 114/126/45 126/139/71 125/137/70
f 114/126/45 115/127/47 127/140/72 126/139/71
f 115/127/47 116/128/49 128/141/73 127/140/72
f 116/128/49 117/129/51 129/142/74 128/141/73
f 117/129/51 118/130/53 130/143/75 129/142/74
f 118/130/53 119/131/55 131/144/76 130/143/75
f 119/131/55 120/132/57 132/145/77 131/144/76
f 120/132/57 109/121/37 121/134/67 132/145/77
f 121/134/67 122/133/66 134/146/78 133/147/79
f 122/133/66 123/135/68 135/148/80 134/146/78
f 123/135/68 124/136/69 136/149/81 135/148/80
f 124/138/69 125/137/70 137/150/82 136/151/81
f 125/137/70 126/139/71 138/152/83 137/150/82
f 126/139/71 127/140/72 139/153/84 138/152/83
f 127/140/72 128/141/73 140/154/85 139/153/84
f 128/141/73 129/142/74 141/155/86 140/154/85
f 129/142/74 130/143/75 142/156/87 141/155/86
f 130/143/75 131/144/76 143/157/88 142/156/87
f 131/144/76 132/145/77 144/158/89 143/157/88
f 132/145/77 121/134/67 133/147/79 144/158/89
f 133/147/79 134/146/78 146/159/90 145/160/91
f 134/146/78 135/148/80 147/161/92 146/159/90
f 135/148/80 136/149/81 148/162/93 147/161/92
f 136/151/81 137/150/82 149/163/94 148/164/93
f 137/150/82 138/152/83 150/165/95 149/163/94
f 138/152/83 139/153/84 151/166/96 150/165/95
f 139/153/84 140/154/85 152/167/97 151/166/96
f 140/154/85 141/155/86 153/168/98 152/167/97
f 141/155/86 142/156/87 154/169/99 153/168/98
f 142/156/87 143/157/88 155/170/100 154/169/99
f 143/157/88 144/158/89 156/171/101 155/170/100
f 144/158/89 133/147/79 145/160/91 156/171/101
f 145/160/91 146/159/90 158/172/102 157/173/103
f 146/159/90 147/161/92 159/174/104 158/172/102
f 147/161/92 148/162/93 160/175/105 159/174/104
f 148/164/93 149/163/94 161/176/106 160/177/105
f 149/163/94 150/165/95 162/178/107 161/176/106
f 150/165/95 151/166/96 163/179/108 162/178/107
f 151/166/96 152/167/97 164/180/109 163/179/108
f 152/167/97 153/168/98 165/181/110 164/180/109
f 153/168/98 154/169/99 166/182/111 165/181/110
f 154/169/99 155/170/100 167/183/112 166/182/111
f 155/170/100 156/171/101 168/184/113 167/183/112
f 156/171/101 145/160/91 157/173/103 168/184/113
f 157/173/103 158/172/102 170/185/114 169/186/115
f 158/172/102 159/174/104 171/187/116 170/185/114
f 159/174/104 160/175/105 172/188/117 171/187/116
f 160/177/105 161/176/106 173/189/118 172/190/117
f 161/176/106 162/178/107 174/191/119 173/189/118
f 162/178/107 163/179/108 175/192/120 174/191/119
f 163/179/108 164/180/109 176/193/121 175/192/120
f 164/180/109 165/181/110 177/194/122 176/193/121
f 165/181/110 166/182/111 178/195/123 177/194/122
f 166/182/111 167/183/112 179/196/124 178/195/123
f 167/183/112 168/184/113 180/197/125 179/196/124
f 168/184/113 157/173/103 169/186/115 180/197/125
f 169/186/115 170/185/114 182/198/126 181/199/127
f 170/185/114 171/187/116 183/200/128 182/198/126
f 171/187/116 172/188/117 184/201/129 183/200/128
f 172/190/117 173/189/118 185/202/130 184/203/129
f 173/189/118 174/191/119 186/204/131 185/202/130
f 174/191/119 175/192/120 187/205/132 186/204/131
f 175/192/120 176/193/121 188/206/133 187/205/132
f 176/193/121 177/194/122 189/207/134 188/206/133
f 177/194/122 178/195/123 190/208/135 189/207/134
f 178/195/123 179/196/124 191/209/136 190/208/135
f 179/196/124 180/197/125 192/210/137 191/209/136
f 180/197/125 169/186/115 181/199/127 192/210/137
f 181/199/127 182/198/126 194/211/138 193/212/139
f 182/198/126 183/200/128 195/213/140 194/211/138
f 183/200/128 184/201/129 196/214/141 195/213/140
f 184/203/129 185/202/130 197/215/142 196/216/141
f 185/202/130 186/204/131 198/217/143 197/215/142
f 186/204/131 187/205/132 199/218/144 198/217/143
f 187/205/132 188/206/133 200/219/145 199/218/144
f 188/206/133 189/207/134 201/220/146 200/219/145
f 189/207/134 190/208/135 202/221/147 201/220/146
f 190/208/135 191/209/136 203/222/148 202/221/147
f 191/209/136 192/210/137 204/223/149 203/222/148
f 192/210/137 181/199/127 193/212/139 204/223/149
f 193/212/139 194/211/138 206/224/150 205/225/151
f 194/211/138 195/213/140 207/226/152 206/224/150
f 195/213/140 196/214/141 208/227/153 207/226/152
f 196/216/141 197/215/142 209/228/154 208/229/153
f 197/215/142 198/217/143 210/230/155 209/228/154
f 198/217/143 199/218/144 211/231/156 210/230/155
f 199/218/144 200/219/145 212/232/157 211/231/156
f 200/219/145 201/220/146 213/233/158 212/232/157
f 201/220/146 202/221/147 214/234/159 213/233/158
f 202/221/147 203/222/148 215/235/160 214/234/159
f 203/222/148 204/223/149 216/236/161 215/235/160
f 204/223/149 193/212/139 205/225/151 216/236/161
f 205/225/151 206/224/150 218/237/58 217/238/37
f 206/224/150 207/226/152 219/239/59 218/237/58
f 207/226/152 208/227/153 220/240/41 219/239/59
f 208/229/153 209/228/154 221/241/60 220/242/41
f 209/228/154 210/230/155 222/243/61 221/241/60
f 210/230/155 211/231/156 223/244/47 222/243/61
f 211/231/156 212/232/157 224/245/62 223/244/47
f 212/232/157 213/233/158 225/246/63 224/245/62
f 213/233/158 214/234/159 226/247/53 225/246/63
f 214/234/159 215/235/160 227/248/64 226/247/53
f 215/235/160 216/236/161 228/249/65 227/248/64
f 216/236/161 205/225/151 217/238/37 228/249/65
f 217/238/37 218/237/58 230/250/36 229/251/37
f 218/237/58 219/239/59 231/252/39 230/250/36
f 219/239/59 220/240/41 232/253/41 231/252/39
f 220/242/41 221/241/60 233/254/43 232/255/41
f 221/241/60 222/243/61 234/256/45 233/254/43
f 222/243/61 223/244/47 235/257/47 234/256/45
f 223/244/47 224/245/62 236/258/49 235/257/47
f 224/245/62 225/246/63 237/259/51 236/258/49
f 225/246/63 226/247/53 238/260/53 237/259/51
f 226/247/53 227/248/64 239/261/55 238/260/53
f 227/248/64 228/249/65 240/262/57 239/261/55
f 228/249/65 217/238/37 229/251/37 240/262/57
f 229/251/37 230/250/36 242/263/58 241/264/37
f 230/250/36 231/252/39 243/265/59 242/263/58
f 231/252/39 232/253/41 244/266/41 243/265/59
f 232/255/41 233/254/43 245/267/60 244/268/41
f 233/254/43 234/256/45 246/269/61 245/267/60
f 234/256/45 235/257/47 247/270/47 246/269/61
f 235/257/47 236/258/49 248/271/62 247/270/47
f 236/258/49 237/259/51 249/272/63 248/271/62
f 237/259/51 238/260/53 250/273/53 249/272/63
f 238/260/53 239/261/55 251/274/64 250/273/53
f 239/261/55 240/262/57 252/275/65 251/274/64
f 240/262/57 229/251/37 241/264/37 252/275/65
f 241/264/37 242/263/58 254/276/36 253/277/37
f 242/263/58 243/265/59 255/278/39 254/276/36
f 243/265/59 244/266/41 256/279/41 255/278/39
f 244/268/41 245/267/60 257/280/43 256/281/41
f 245/267/60 246/269/61 258/282/45 257/280/43
f 246/269/61 247/270/47 259/283/47 258/282/45
f 247/270/47 248/271/62 260/284/49 259/283/47
f 248/271/62 249/272/63 261/285/51 260/284/49
f 249/272/63 250/273/53 262/286/53 261/285/51
f 250/273/53 251/274/64 263/287/55 262/286/53
f 251/274/64 252/275/65 264/288/57 263/287/55
f 252/275/65 241/264/37 253/277/37 264/288/57
f 253/277/37 254/276/36 266/289/162 265/290/163
f 254/276/36 255/278/39 267/291/164 266/289/162
f 255/278/39 256/279/41 268/292/165 267/291/164
f 256/281/41 257/280/43 269/293/166 268/294/165
f 257/280/43 258/282/45 270/295/167 269/293/166
f 258/282/45 259/283/47 271/296/168 270/295/167
f 259/283/47 260/284/49 272/297/169 271/296/168
f 260/284/49 261/285/51 273/298/170 272/297/169
f 261/285/51 262/286/53 274/299/171 273/298/170
f 262/286/53 263/287/55 275/300/172 274/299/171
f 263/287/55 264/288/57 276/301/173 275/300/172
f 264/288/57 253/277/37 265/290/163 276/301/173
f 265/290/163 266/289/162 278/302/174 277/303/37
f 266/289/162 267/291/164 279/304/175 278/302/174
f 267/291/164 268/292/165 280/305/41 279/304/175
f 268/294/165 269/293/166 281/306/176 280/307/41
f 269/293/166 270/295/167 282/308/177 281/306/176
f 270/295/167 271/296/168 283/309/47 282/308/177
f 271/296/168 272/297/169 284/310/178 283/309/47
f 272/297/169 273/298/170 285/311/179 284/310/178
f 273/298/170 274/299/171 286/312/53 285/311/179
f 274/299/171 275/300/172 287/313/180 286/312/53
f 275/300/172 276/301/173 288/314/181 287/313/180
f 276/301/173 265/290/163 277/303/37 288/314/181
s 0
f 51/75/33 50/75/33 54/75/33
f 289/315/182 290/316/182 306/317/182 305/318/182
f 290/316/183 291/319/183 307/320/183 306/317/183
f 291/319/184 292/321/184 308/322/184 307/320/184
f 292/321/185 293/323/185 309/324/185 308/322/185
f 293/325/186 294/326/186 310/327/186 309/328/186
f 294/326/187 295/329/187 311/330/187 310/327/187
f 295/329/188 296/331/188 312/332/188 311/330/188
f 296/331/189 297/333/189 313/334/189 312/332/189
f 297/333/190 298/335/190 314/336/190 313/334/190
f 298/335/191 299/337/191 315/338/191 314/336/191
f 299/337/192 300/339/192 316/340/192 315/338/192
f 300/339/193 301/341/193 317/342/193 316/340/193
f 301/341/194 302/343/194 318/344/194 317/342/194
f 302/343/195 303/345/195 319/346/195 318/344/195
f 303/345/196 304/347/196 320/348/196 319/346/196
f 304/347/197 289/315/197 305/318/197 320/348/197
f 305/318/198 306/317/198 322/349/198 321/350/198
f 306/317/199 307/320/199 323/351/199 322/349/199
f 307/320/200 308/322/200 324/352/200 323/351/200
f 308/322/201 309/324/201 325/353/201 324/352/201
f 309/328/202 310/327/202 326/354/202 325/355/202
f 310/327/203 311/330/203 327/356/203 326/354/203
f 311/330/204 312/332/204 328/357/204 327/356/204
f 312/332/205 313/334/205 329/358/205 328/357/205
f 313/334/206 314/336/206 330/359/206 329/358/206
f 314/336/207 315/338/207 331/360/207 330/359/207
f 315/338/208 316/340/208 332/361/208 331/360/208
f 316/340/209 317/342/209 333/362/209 332/361/209
f 317/342/210 318/344/210 334/363/210 333/362/210
f 318/344/211 319/346/211 335/364/211 334/363/211
f 319/346/212 320/348/212 336/365/212 335/364/212
f 320/348/213 305/318/213 321/350/213 336/365/213
f 337/366/214 338/367/214 358/368/214 357/369/214
f 338/367/215 339/370/215 359/371/215 358/368/215
f 339/370/216 340/372/216 360/373/216 359/371/216
f 340/372/217 341/374/217 361/375/217 360/373/217
f 341/374/218 342/376/218 362/377/218 361/375/218
f 342/376/219 343/378/219 363/379/219 362/377/219
f 343/378/220 344/380/220 364/381/220 363/379/220
f 344/380/221 345/382/221 365/383/221 364/381/221
f 345/382/222 346/384/222 366/385/222 365/383/222
f 346/384/223 347/386/223 367/387/223 366/385/223
f 347/386/224 348/388/224 368/389/224 367/387/224
f 348/388/225 349/390/225 369/391/225 368/389/225
f 349/390/226 350/392/226 370/393/226 369/391/226
f 350/392/227 351/394/227 371/395/227 370/393/227
f 351/394/228 352/396/228 372/397/228 371/395/228
f 352/396/229 353/398/229 373/399/229 372/397/229
f 353/398/230 354/400/230 374/401/230 373/399/230
f 354/400/231 355/402/231 375/403/231 374/401/231
f 355/402/232 356/404/232 376/405/232 375/403/232
f 356/404/233 337/406/233 357/407/233 376/405/233
f 357/369/234 358/368/234 378/408/234 377/409/234
f 358/368/235 359/371/235 379/410/235 378/408/235
f 359/371/236 360/373/236 380/411/236 379/410/236
f 360/373/237 361/375/237 381/412/237 380/411/237
f 361/375/41 362/377/41 382/413/41 381/412/41
f 362/377/238 363/379/238 383/414/238 382/413/238
f 363/379/239 364/381/239 384/415/239 383/414/239
f 364/381/240 365/383/240 385/416/240 384/415/240
f 365/383/241 366/385/241 386/417/241 385/416/241
f 366/385/47 367/387/47 387/418/47 386/417/47
f 367/387/242 368/389/242 388/419/242 387/418/242
f 368/389/243 369/391/243 389/420/243 388/419/243
f 369/391/244 370/393/244 390/421/244 389/420/244
f 370/393/245 371/395/245 391/422/245 390/421/245
f 371/395/53 372/397/53 392/423/53 391/422/53
f 372/397/246 373/399/246 393/424/246 392/423/246
f 373/399/247 374/401/247 394/425/247 393/424/247
f 374/401/248 375/403/248 395/426/248 394/425/248
f 375/403/249 376/405/249 396/427/249 395/426/249
f 376/405/37 357/407/37 377/428/37 396/427/37
f 377/409/250 378/408/250 398/429/250 397/430/250
f 378/408/251 379/410/251 399/431/251 398/429/251
f 379/410/252 380/411/252 400/432/252 399/431/252
f 380/411/253 381/412/253 401/433/253 400/432/253
f 381/412/254 382/413/254 402/434/254 401/433/254
f 382/413/255 383/414/255 403/435/255 402/434/255
f 383/414/256 384/415/256 404/436/256 403/435/256
f 384/415/257 385/416/257 405/437/257 404/436/257
f 385/416/258 386/417/258 406/438/258 405/437/258
f 386/417/259 387/418/259 407/439/259 406/438/259
f 387/418/260 388/419/260 408/440/260 407/439/260
f 388/419/261 389/420/261 409/441/261 408/440/261
f 389/420/262 390/421/262 410/442/262 409/441/262
f 390/421/263 391/422/263 411/443/263 410/442/263
f 391/422/264 392/423/264 412/444/264 411/443/264
f 392/423/265 393/424/265 413/445/265 412/444/265
f 393/424/266 394/425/266 414/446/266 413/445/266
f 394/425/267 395/426/267 415/447/267 414/446/267
f 395/426/268 396/427/268 416/448/268 415/447/268
f 396/427/269 377/428/269 397/449/269 416/448/269
f 400/450/270 401/451/270 402/452/270
f 340/453/33 342/454/33 341/455/33
f 400/450/270 402/452/270 403/456/270
f 340/453/33 343/457/33 342/454/33
f 399/458/270 400/450/270 403/456/270
f 339/459/33 343/457/33 340/453/33
f 399/458/270 403/456/270 404/460/270
f 339/459/33 344/461/33 343/457/33
f 398/462/270 399/458/270 475/463/270
f 338/464/33 439/465/33 339/459/33
f 475/463/270 399/458/270 404/460/270
f 439/465/33 344/461/33 339/459/33
f 475/463/270 404/460/270 405/466/270
f 439/465/33 345/467/33 344/461/33
f 398/462/270 475/463/270 476/468/270
f 338/464/33 440/469/33 439/465/33
f 474/470/270 475/463/270 405/466/270
f 438/471/33 345/467/33 439/465/33
f 398/462/270 476/468/270 477/472/270
f 338/464/33 441/473/33 440/469/33
f 473/474/270 474/470/270 405/466/270
f 437/475/33 345/467/33 438/471/33
f 398/462/270 477/472/270 478/476/270
f 338/464/33 442/477/33 441/473/33
f 472/478/270 473/474/270 405/466/270
f 436/479/33 345/467/33 437/475/33
f 397/480/270 398/462/270 478/476/270
f 337/481/33 442/477/33 338/464/33
f 472/478/270 405/466/270 406/482/270
f 436/479/33 346/483/33 345/467/33
f 397/480/270 478/476/270 479/484/270
f 337/481/33 443/485/33 442/477/33
f 471/486/270 472/478/270 406/482/270
f 435/487/33 346/483/33 436/479/33
f 416/488/270 397/480/270 479/484/270
f 356/489/33 443/485/33 337/481/33
f 471/486/270 406/482/270 407/490/270
f 435/487/33 347/491/33 346/483/33
f 416/488/271 479/484/271 480/492/271
f 356/489/33 444/493/33 443/485/33
f 488/494/270 471/486/270 407/490/270
f 452/495/33 347/491/33 435/487/33
f 416/488/270 480/492/270 481/496/270
f 356/489/33 445/497/33 444/493/33
f 483/498/270 484/499/270 485/500/270
f 447/501/33 449/502/33 448/503/33
f 487/504/270 488/494/270 407/490/270
f 451/505/33 347/491/33 452/495/33
f 482/506/270 483/498/270 485/500/270
f 446/507/33 449/502/33 447/501/33
f 482/506/270 485/500/270 486/508/270
f 446/507/33 450/509/33 449/502/33
f 481/496/270 482/506/270 486/508/270
f 445/497/33 450/509/33 446/507/33
f 481/496/270 486/508/270 487/504/270
f 445/497/33 451/505/33 450/509/33
f 416/488/270 481/496/270 487/504/270
f 356/489/33 451/505/33 445/497/33
f 416/488/270 487/504/270 460/510/270
f 356/489/33 424/511/33 451/505/33
f 460/510/270 487/504/270 454/512/270
f 424/511/33 418/513/33 451/505/33
f 454/512/270 487/504/270 407/490/270
f 418/513/33 347/491/33 451/505/33
f 416/488/270 460/510/270 461/514/270
f 356/489/33 425/515/33 424/511/33
f 459/516/270 460/510/270 454/512/270
f 423/517/33 418/513/33 424/511/33
f 459/516/270 454/512/270 455/518/270
f 423/517/33 419/519/33 418/513/33
f 453/520/270 454/512/270 407/490/270
f 417/521/33 347/491/33 418/513/33
f 458/522/270 459/516/270 455/518/270
f 422/523/33 419/519/33 423/517/33
f 458/522/270 455/518/270 456/524/270
f 422/523/33 420/525/33 419/519/33
f 457/526/270 458/522/270 456/524/270
f 421/527/33 420/525/33 422/523/33
f 416/488/270 461/514/270 462/528/270
f 356/489/33 426/529/33 425/515/33
f 470/530/270 453/520/270 407/490/270
f 434/531/33 347/491/33 417/521/33
f 416/488/270 462/528/270 463/532/270
f 356/489/33 427/533/33 426/529/33
f 469/534/270 470/530/270 407/490/270
f 433/535/33 347/491/33 434/531/33
f 415/536/270 416/488/270 463/532/270
f 355/537/33 427/533/33 356/489/33
f 469/534/270 407/490/270 408/538/270
f 433/535/33 348/539/33 347/491/33
f 415/536/270 463/532/270 464/540/270
f 355/537/33 428/541/33 427/533/33
f 468/542/270 469/534/270 408/538/270
f 432/543/33 348/539/33 433/535/33
f 414/544/270 415/536/270 464/540/270
f 354/545/33 428/541/33 355/537/33
f 468/542/270 408/538/270 409/546/270
f 432/543/33 349/547/33 348/539/33
f 414/544/270 464/540/270 465/548/270
f 354/545/33 429/549/33 428/541/33
f 467/550/270 468/542/270 409/546/270
f 431/551/33 349/547/33 432/543/33
f 414/544/270 465/548/270 466/552/270
f 354/545/33 430/553/33 429/549/33
f 466/552/270 467/550/270 409/546/270
f 430/553/33 349/547/33 431/551/33
f 414/544/270 466/552/270 409/546/270
f 354/545/33 349/547/33 430/553/33
f 413/554/270 414/544/270 409/546/270
f 353/555/33 349/547/33 354/545/33
f 413/554/270 409/546/270 410/556/270
f 353/555/33 350/557/33 349/547/33
f 412/558/270 413/554/270 410/556/270
f 352/559/33 350/557/33 353/555/33
f 412/558/270 410/556/270 411/560/270
f 352/559/33 351/561/33 350/557/33
f 417/562/272 418/563/272 454/564/272 453/565/272
f 418/563/273 419/566/273 455/567/273 454/564/273
f 419/566/274 420/568/274 456/569/274 455/567/274
f 420/568/275 421/570/275 457/571/275 456/569/275
f 421/570/276 422/572/276 458/573/276 457/571/276
f 422/572/277 423/574/277 459/575/277 458/573/277
f 423/574/278 424/576/278 460/577/278 459/575/278
f 424/576/279 425/578/279 461/579/279 460/577/279
f 425/578/47 426/580/47 462/581/47 461/579/47
f 426/580/280 427/582/280 463/583/280 462/581/280
f 427/582/281 428/584/281 464/585/281 463/583/281
f 428/584/282 429/586/282 465/587/282 464/585/282
f 429/586/283 430/588/283 466/589/283 465/587/283
f 430/588/284 431/590/284 467/591/284 466/589/284
f 431/590/285 432/592/285 468/593/285 467/591/285
f 432/592/286 433/594/286 469/595/286 468/593/286
f 433/594/287 434/596/287 470/597/287 469/595/287
f 434/596/37 417/598/37 453/599/37 470/597/37
f 435/562/288 436/600/288 472/601/288 471/565/288
f 436/600/289 437/602/289 473/603/289 472/601/289
f 437/602/290 438/604/290 474/605/290 473/603/290
f 438/604/291 439/606/291 475/607/291 474/605/291
f 439/606/292 440/608/292 476/609/292 475/607/292
f 440/608/293 441/610/293 477/611/293 476/609/293
f 441/610/294 442/612/294 478/613/294 477/611/294
f 442/612/295 443/614/295 479/615/295 478/613/295
f 443/614/47 444/616/47 480/617/47 479/615/47
f 444/616/296 445/618/296 481/619/296 480/617/296
f 445/618/297 446/620/297 482/621/297 481/619/297
f 446/620/298 447/622/298 483/623/298 482/621/298
f 447/622/299 448/624/299 484/625/299 483/623/299
f 448/624/300 449/626/300 485/627/300 484/625/300
f 449/626/301 450/628/301 486/629/301 485/627/301
f 450/628/302 451/630/302 487/631/302 486/629/302
f 451/630/303 452/596/303 488/597/303 487/631/303
f 452/596/37 435/598/37 471/599/37 488/597/37
f 489/632/304 490/633/304 498/634/304 497/635/304
f 490/633/37 491/636/37 499/637/37 498/634/37
f 491/636/305 492/638/305 500/639/305 499/637/305
f 492/640/41 493/641/41 501/642/41 500/643/41
f 493/641/306 494/644/306 502/645/306 501/642/306
f 494/644/47 495/646/47 503/647/47 502/645/47
f 495/646/307 496/648/307 504/649/307 503/647/307
f 496/648/53 489/632/53 497/635/53 504/649/53
f 503/650/270 504/651/270 498/652/270
f 506/653/308 507/654/308 513/655/308 512/656/308
f 507/654/309 508/657/309 514/658/309 513/655/309
f 508/659/310 509/660/310 515/661/310 514/662/310
f 509/663/311 510/664/311 516/665/311 515/666/311
f 510/664/312 511/667/312 517/668/312 516/665/312
f 511/669/313 506/670/313 512/671/313 517/672/313
f 512/656/314 513/655/314 519/673/314 518/674/314
f 513/655/315 514/658/315 520/675/315 519/673/315
f 514/662/316 515/661/316 521/676/316 520/677/316
f 515/666/317 516/665/317 522/678/317 521/679/317
f 516/665/318 517/668/318 523/680/318 522/678/318
f 517/672/319 512/671/319 518/681/319 523/682/319
f 518/674/320 519/673/320 525/683/320 524/684/320
f 519/673/321 520/675/321 526/685/321 525/683/321
f 520/677/322 521/676/322 527/686/322 526/687/322
f 521/679/323 522/678/323 528/688/323 527/689/323
f 522/678/324 523/680/324 529/690/324 528/688/324
f 523/682/325 518/681/325 524/691/325 529/692/325
f 524/684/326 525/683/326 531/693/326 530/694/326
f 525/683/327 526/685/327 532/695/327 531/693/327
f 526/687/328 527/686/328 533/696/328 532/697/328
f 527/689/329 528/688/329 534/698/329 533/699/329
f 528/688/330 529/690/330 535/700/330 534/698/330
f 529/692/331 524/691/331 530/701/331 535/702/331
f 530/694/332 531/693/332 537/703/332 536/704/332
f 531/693/333 532/695/333 538/705/333 537/703/333
f 532/697/334 533/696/334 539/706/334 538/707/334
f 533/699/335 534/698/335 540/708/335 539/709/335
f 534/698/336 535/700/336 541/710/336 540/708/336
f 535/702/337 530/701/337 536/711/337 541/712/337
f 536/704/338 537/703/338 543/713/338 542/714/338
f 537/703/333 538/705/333 544/715/333 543/713/333
f 538/707/339 539/706/339 545/716/339 544/717/339
f 539/709/335 540/708/335 546/718/335 545/719/335
f 540/708/340 541/710/340 547/720/340 546/718/340
f 541/712/341 536/711/341 542/721/341 547/722/341
f 542/714/342 543/713/342 549/723/342 548/724/342
f 543/713/343 544/715/343 550/725/343 549/723/343
f 544/717/344 545/716/344 551/726/344 550/727/344
f 545/719/345 546/718/345 552/728/345 551/729/345
f 546/718/346 547/720/346 553/730/346 552/728/346
f 547/722/347 542/721/347 548/731/347 553/732/347
f 548/724/348 549/723/348 555/733/348 554/734/348
f 549/723/349 550/725/349 556/735/349 555/733/349
f 550/727/350 551/726/350 557/736/350 556/737/350
f 551/729/351 552/728/351 558/738/351 557/739/351
f 552/728/352 553/730/352 559/740/352 558/738/352
f 553/732/353 548/731/353 554/741/353 559/742/353
f 554/734/354 555/733/354 561/743/354 560/744/354
f 555/733/355 556/735/355 562/745/355 561/743/355
f 556/737/356 557/736/356 563/746/356 562/747/356
f 557/739/357 558/738/357 564/748/357 563/749/357
f 558/738/358 559/740/358 565/750/358 564/748/358
f 559/742/359 554/741/359 560/751/359 565/752/359
f 560/744/360 561/743/360 567/753/360 566/754/360
f 561/743/361 562/745/361 568/755/361 567/753/361
f 562/747/362 563/746/362 569/756/362 568/757/362
f 563/749/363 564/748/363 570/758/363 569/759/363
f 564/748/364 565/750/364 571/760/364 570/758/364
f 565/752/365 560/751/365 566/761/365 571/762/365
f 566/754/366 567/753/366 573/763/366 572/764/366
f 567/753/367 568/755/367 574/765/367 573/763/367
f 568/757/368 569/756/368 575/766/368 574/767/368
f 569/759/369 570/758/369 576/768/369 575/769/369
f 570/758/370 571/760/370 577/770/370 576/768/370
f 571/762/371 566/761/371 572/771/371 577/772/371
f 572/764/372 573/763/372 505/773/372
f 573/763/373 574/765/373 505/774/373
f 574/767/374 575/766/374 505/775/374
f 575/769/375 576/768/375 505/776/375
f 576/768/376 577/770/376 505/777/376
f 577/772/377 572/771/377 505/778/377
f 2/779/33 1/780/33 9/781/33
f 1/780/33 16/782/33 10/783/33
f 16/782/33 15/784/33 10/783/33
f 15/784/33 14/785/33 11/786/33
f 10/783/33 15/784/33 11/786/33
f 14/785/33 13/787/33 12/788/33
f 12/788/33 11/786/33 14/785/33
f 10/783/33 9/781/33 1/780/33
f 9/781/33 8/789/33 2/779/33
f 8/789/33 7/790/33 2/779/33
f 7/790/33 6/54/33 3/53/33
f 2/779/33 7/790/33 3/53/33
f 6/54/33 5/791/33 4/52/33
f 50/75/33 49/75/33 54/75/33
f 49/75/33 60/75/33 55/75/33
f 54/75/33 49/75/33 55/75/33
f 60/75/33 59/75/33 57/75/33
f 59/75/33 58/75/33 57/75/33
f 57/75/33 56/75/33 60/75/33
f 56/75/33 55/75/33 60/75/33
f 54/75/33 53/75/33 51/75/33
f 53/75/33 52/75/33 51/75/33
f 504/651/270 497/792/270 498/652/270
f 498/652/270 499/793/270 502/794/270
f 499/793/270 500/795/270 502/794/270
f 500/795/270 501/796/270 502/794/270
f 502/794/270 503/650/270 498/652/270
