# Blender 5.2.2 LTS
# www.blender.org
o rukia_shikai_ribbon_07
v -0.016400 0.000000 -0.001000
v 0.016400 0.000000 -0.001000
v 0.015800 -0.250000 -0.001000
v -0.015800 -0.250000 -0.001000
v -0.016400 0.000000 0.001000
v 0.016400 0.000000 0.001000
v 0.015800 -0.250000 0.001000
v -0.015800 -0.250000 0.001000
vn -0.0000 -0.0000 -1.0000
vn -0.0000 -0.0000 1.0000
vn -1.0000 -0.0024 -0.0000
vn 1.0000 -0.0024 -0.0000
vn -0.0000 1.0000 -0.0000
vn -0.0000 -1.0000 -0.0000
vt 0.593750 0.031250
vt 0.593750 0.062500
vt 0.691406 0.062500
vt 0.691406 0.031250
vt 0.595703 0.046875
vt 0.689453 0.046875
s 0
f 1/1/1 2/2/1 3/3/1 4/4/1
f 5/1/2 8/4/2 7/3/2 6/2/2
f 1/1/3 4/4/3 8/4/3 5/1/3
f 2/2/4 6/2/4 7/3/4 3/3/4
f 1/5/5 5/5/5 6/5/5 2/5/5
f 4/6/6 3/6/6 7/6/6 8/6/6
